<svg width="247" height="20" viewBox="0 0 247 20" fill="none" xmlns="http://www.w3.org/2000/svg">
<path d="M5.86063e-05 15.582L6.72006 0.88203H8.25306L14.9731 15.582H13.3351L7.16106 1.78503H7.79106L1.61706 15.582H5.86063e-05ZM2.64606 11.655L3.10806 10.395H11.6551L12.1171 11.655H2.64606ZM17.433 15.582V4.55703H18.924V9.42903H25.875V4.55703H27.366V15.582H25.875V10.71H18.924V15.582H17.433ZM38.7229 15.582V11.613L38.9959 11.928H35.2579C33.8439 11.928 32.7379 11.62 31.9399 11.004C31.1419 10.388 30.7429 9.49203 30.7429 8.31603C30.7429 7.05603 31.1699 6.11803 32.0239 5.50203C32.8779 4.87203 34.0189 4.55703 35.4469 4.55703H40.0879V15.582H38.7229ZM30.6589 15.582L33.6829 11.34H35.2369L32.2759 15.582H30.6589ZM38.7229 11.172V5.41803L38.9959 5.85903H35.4889C34.4669 5.85903 33.6689 6.05503 33.0949 6.44703C32.5349 6.83903 32.2549 7.47603 32.2549 8.35803C32.2549 9.99603 33.2979 10.815 35.3839 10.815H38.9959L38.7229 11.172ZM60.2514 15.582L54.6024 8.25303L55.8624 7.49703L62.0364 15.582H60.2514ZM50.1924 15.582V0.88203H51.7044V15.582H50.1924ZM51.2424 8.84103V7.47603H55.8414V8.84103H51.2424ZM55.9884 8.40003L54.5604 8.14803L60.0414 0.88203H61.7214L55.9884 8.40003ZM68.4807 15.687C67.4167 15.687 66.4577 15.449 65.6037 14.973C64.7637 14.483 64.0987 13.818 63.6087 12.978C63.1187 12.124 62.8737 11.151 62.8737 10.059C62.8737 8.95303 63.1187 7.98003 63.6087 7.14003C64.0987 6.30003 64.7637 5.64203 65.6037 5.16603C66.4437 4.69003 67.4027 4.45203 68.4807 4.45203C69.5727 4.45203 70.5387 4.69003 71.3787 5.16603C72.2327 5.64203 72.8977 6.30003 73.3737 7.14003C73.8637 7.98003 74.1087 8.95303 74.1087 10.059C74.1087 11.151 73.8637 12.124 73.3737 12.978C72.8977 13.818 72.2327 14.483 71.3787 14.973C70.5247 15.449 69.5587 15.687 68.4807 15.687ZM68.4807 14.364C69.2787 14.364 69.9857 14.189 70.6017 13.839C71.2177 13.475 71.7007 12.971 72.0507 12.327C72.4147 11.669 72.5967 10.913 72.5967 10.059C72.5967 9.19103 72.4147 8.43503 72.0507 7.79103C71.7007 7.14703 71.2177 6.65003 70.6017 6.30003C69.9857 5.93603 69.2857 5.75403 68.5017 5.75403C67.7177 5.75403 67.0177 5.93603 66.4017 6.30003C65.7857 6.65003 65.2957 7.14703 64.9317 7.79103C64.5677 8.43503 64.3857 9.19103 64.3857 10.059C64.3857 10.913 64.5677 11.669 64.9317 12.327C65.2957 12.971 65.7857 13.475 66.4017 13.839C67.0177 14.189 67.7107 14.364 68.4807 14.364ZM77.2953 15.582V4.55703H78.8073L83.8053 13.02H83.1753L88.2573 4.55703H89.6433V15.582H88.2783V6.25803L88.5513 6.38403L83.8053 14.238H83.1333L78.3453 6.30003L78.6603 6.23703V15.582H77.2953ZM101.971 15.582L97.4351 10.122L98.6741 9.38703L103.735 15.582H101.971ZM93.8861 15.582V4.55703H95.3771V15.582H93.8861ZM94.9151 10.668V9.38703H98.4641V10.668H94.9151ZM98.8001 10.227L97.4141 10.017L101.803 4.55703H103.42L98.8001 10.227ZM110.276 15.687C109.212 15.687 108.253 15.449 107.399 14.973C106.559 14.483 105.894 13.818 105.404 12.978C104.914 12.124 104.669 11.151 104.669 10.059C104.669 8.95303 104.914 7.98003 105.404 7.14003C105.894 6.30003 106.559 5.64203 107.399 5.16603C108.239 4.69003 109.198 4.45203 110.276 4.45203C111.368 4.45203 112.334 4.69003 113.174 5.16603C114.028 5.64203 114.693 6.30003 115.169 7.14003C115.659 7.98003 115.904 8.95303 115.904 10.059C115.904 11.151 115.659 12.124 115.169 12.978C114.693 13.818 114.028 14.483 113.174 14.973C112.32 15.449 111.354 15.687 110.276 15.687ZM110.276 14.364C111.074 14.364 111.781 14.189 112.397 13.839C113.013 13.475 113.496 12.971 113.846 12.327C114.21 11.669 114.392 10.913 114.392 10.059C114.392 9.19103 114.21 8.43503 113.846 7.79103C113.496 7.14703 113.013 6.65003 112.397 6.30003C111.781 5.93603 111.081 5.75403 110.297 5.75403C109.513 5.75403 108.813 5.93603 108.197 6.30003C107.581 6.65003 107.091 7.14703 106.727 7.79103C106.363 8.43503 106.181 9.19103 106.181 10.059C106.181 10.913 106.363 11.669 106.727 12.327C107.091 12.971 107.581 13.475 108.197 13.839C108.813 14.189 109.506 14.364 110.276 14.364ZM119.09 15.582V4.55703H123.962C125.208 4.55703 126.188 4.79503 126.902 5.27103C127.63 5.74703 127.994 6.44703 127.994 7.37103C127.994 8.26703 127.651 8.96003 126.965 9.45003C126.279 9.92603 125.376 10.164 124.256 10.164L124.55 9.72303C125.866 9.72303 126.832 9.96803 127.448 10.458C128.064 10.948 128.372 11.655 128.372 12.579C128.372 13.531 128.022 14.273 127.322 14.805C126.636 15.323 125.565 15.582 124.109 15.582H119.09ZM120.539 14.406H124.046C124.984 14.406 125.691 14.259 126.167 13.965C126.657 13.657 126.902 13.167 126.902 12.495C126.902 11.823 126.685 11.333 126.251 11.025C125.817 10.717 125.131 10.563 124.193 10.563H120.539V14.406ZM120.539 9.45003H123.857C124.711 9.45003 125.362 9.28903 125.81 8.96703C126.272 8.64503 126.503 8.17603 126.503 7.56003C126.503 6.94403 126.272 6.48203 125.81 6.17403C125.362 5.86603 124.711 5.71203 123.857 5.71203H120.539V9.45003ZM138.713 15.582V13.146L138.65 12.747V8.67303C138.65 7.73503 138.384 7.01403 137.852 6.51003C137.334 6.00603 136.557 5.75403 135.521 5.75403C134.807 5.75403 134.128 5.87303 133.484 6.11103C132.84 6.34903 132.294 6.66403 131.846 7.05603L131.174 5.94303C131.734 5.46703 132.406 5.10303 133.19 4.85103C133.974 4.58503 134.8 4.45203 135.668 4.45203C137.096 4.45203 138.195 4.80903 138.965 5.52303C139.749 6.22303 140.141 7.29403 140.141 8.73603V15.582H138.713ZM134.912 15.687C134.086 15.687 133.365 15.554 132.749 15.288C132.147 15.008 131.685 14.63 131.363 14.154C131.041 13.664 130.88 13.104 130.88 12.474C130.88 11.9 131.013 11.382 131.279 10.92C131.559 10.444 132.007 10.066 132.623 9.78603C133.253 9.49203 134.093 9.34503 135.143 9.34503H138.944V10.458H135.185C134.121 10.458 133.379 10.647 132.959 11.025C132.553 11.403 132.35 11.872 132.35 12.432C132.35 13.062 132.595 13.566 133.085 13.944C133.575 14.322 134.261 14.511 135.143 14.511C135.983 14.511 136.704 14.322 137.306 13.944C137.922 13.552 138.37 12.992 138.65 12.264L138.986 13.293C138.706 14.021 138.216 14.602 137.516 15.036C136.83 15.47 135.962 15.687 134.912 15.687ZM152.105 19.656C151.335 18.382 150.733 16.912 150.299 15.246C149.879 13.566 149.669 11.76 149.669 9.82803C149.669 7.89603 149.879 6.09003 150.299 4.41003C150.733 2.71603 151.335 1.24603 152.105 3.03388e-05H153.533C152.707 1.44203 152.098 2.97503 151.706 4.59903C151.328 6.20903 151.139 7.95203 151.139 9.82803C151.139 11.704 151.328 13.454 151.706 15.078C152.098 16.688 152.707 18.214 153.533 19.656H152.105ZM164.602 15.582L160.066 10.122L161.305 9.38703L166.366 15.582H164.602ZM156.517 15.582V4.55703H158.008V15.582H156.517ZM157.546 10.668V9.38703H161.095V10.668H157.546ZM161.431 10.227L160.045 10.017L164.434 4.55703H166.051L161.431 10.227ZM168.498 19.761C167.98 19.761 167.483 19.677 167.007 19.509C166.545 19.341 166.146 19.089 165.81 18.753L166.503 17.64C166.783 17.906 167.084 18.109 167.406 18.249C167.742 18.403 168.113 18.48 168.519 18.48C169.009 18.48 169.429 18.34 169.779 18.06C170.143 17.794 170.486 17.318 170.808 16.632L171.522 15.015L171.69 14.784L176.226 4.55703H177.696L172.173 16.905C171.865 17.619 171.522 18.186 171.144 18.606C170.78 19.026 170.381 19.32 169.947 19.488C169.513 19.67 169.03 19.761 168.498 19.761ZM171.438 15.897L166.356 4.55703H167.91L172.404 14.679L171.438 15.897ZM185.71 15.687C184.758 15.687 183.897 15.47 183.127 15.036C182.357 14.588 181.741 13.951 181.279 13.125C180.831 12.285 180.607 11.263 180.607 10.059C180.607 8.85503 180.831 7.84003 181.279 7.01403C181.727 6.17403 182.336 5.53703 183.106 5.10303C183.876 4.66903 184.744 4.45203 185.71 4.45203C186.76 4.45203 187.698 4.69003 188.524 5.16603C189.364 5.62803 190.022 6.28603 190.498 7.14003C190.974 7.98003 191.212 8.95303 191.212 10.059C191.212 11.179 190.974 12.159 190.498 12.999C190.022 13.839 189.364 14.497 188.524 14.973C187.698 15.449 186.76 15.687 185.71 15.687ZM180.019 19.656V4.55703H181.447V7.87503L181.3 10.08L181.51 12.306V19.656H180.019ZM185.605 14.364C186.389 14.364 187.089 14.189 187.705 13.839C188.321 13.475 188.811 12.971 189.175 12.327C189.539 11.669 189.721 10.913 189.721 10.059C189.721 9.20503 189.539 8.45603 189.175 7.81203C188.811 7.16803 188.321 6.66403 187.705 6.30003C187.089 5.93603 186.389 5.75403 185.605 5.75403C184.821 5.75403 184.114 5.93603 183.484 6.30003C182.868 6.66403 182.378 7.16803 182.014 7.81203C181.664 8.45603 181.489 9.20503 181.489 10.059C181.489 10.913 181.664 11.669 182.014 12.327C182.378 12.971 182.868 13.475 183.484 13.839C184.114 14.189 184.821 14.364 185.605 14.364ZM201.2 15.582V13.146L201.137 12.747V8.67303C201.137 7.73503 200.871 7.01403 200.339 6.51003C199.821 6.00603 199.044 5.75403 198.008 5.75403C197.294 5.75403 196.615 5.87303 195.971 6.11103C195.327 6.34903 194.781 6.66403 194.333 7.05603L193.661 5.94303C194.221 5.46703 194.893 5.10303 195.677 4.85103C196.461 4.58503 197.287 4.45203 198.155 4.45203C199.583 4.45203 200.682 4.80903 201.452 5.52303C202.236 6.22303 202.628 7.29403 202.628 8.73603V15.582H201.2ZM197.399 15.687C196.573 15.687 195.852 15.554 195.236 15.288C194.634 15.008 194.172 14.63 193.85 14.154C193.528 13.664 193.367 13.104 193.367 12.474C193.367 11.9 193.5 11.382 193.766 10.92C194.046 10.444 194.494 10.066 195.11 9.78603C195.74 9.49203 196.58 9.34503 197.63 9.34503H201.431V10.458H197.672C196.608 10.458 195.866 10.647 195.446 11.025C195.04 11.403 194.837 11.872 194.837 12.432C194.837 13.062 195.082 13.566 195.572 13.944C196.062 14.322 196.748 14.511 197.63 14.511C198.47 14.511 199.191 14.322 199.793 13.944C200.409 13.552 200.857 12.992 201.137 12.264L201.473 13.293C201.193 14.021 200.703 14.602 200.003 15.036C199.317 15.47 198.449 15.687 197.399 15.687ZM208.697 15.582V5.46003L209.075 5.85903H204.518V4.55703H214.367V5.85903H209.81L210.188 5.46003V15.582H208.697ZM220.546 15.687C219.482 15.687 218.523 15.449 217.669 14.973C216.829 14.483 216.164 13.818 215.674 12.978C215.184 12.124 214.939 11.151 214.939 10.059C214.939 8.95303 215.184 7.98003 215.674 7.14003C216.164 6.30003 216.829 5.64203 217.669 5.16603C218.509 4.69003 219.468 4.45203 220.546 4.45203C221.638 4.45203 222.604 4.69003 223.444 5.16603C224.298 5.64203 224.963 6.30003 225.439 7.14003C225.929 7.98003 226.174 8.95303 226.174 10.059C226.174 11.151 225.929 12.124 225.439 12.978C224.963 13.818 224.298 14.483 223.444 14.973C222.59 15.449 221.624 15.687 220.546 15.687ZM220.546 14.364C221.344 14.364 222.051 14.189 222.667 13.839C223.283 13.475 223.766 12.971 224.116 12.327C224.48 11.669 224.662 10.913 224.662 10.059C224.662 9.19103 224.48 8.43503 224.116 7.79103C223.766 7.14703 223.283 6.65003 222.667 6.30003C222.051 5.93603 221.351 5.75403 220.567 5.75403C219.783 5.75403 219.083 5.93603 218.467 6.30003C217.851 6.65003 217.361 7.14703 216.997 7.79103C216.633 8.43503 216.451 9.19103 216.451 10.059C216.451 10.913 216.633 11.669 216.997 12.327C217.361 12.971 217.851 13.475 218.467 13.839C219.083 14.189 219.776 14.364 220.546 14.364ZM235.052 15.687C234.1 15.687 233.239 15.47 232.469 15.036C231.699 14.588 231.083 13.951 230.621 13.125C230.173 12.285 229.949 11.263 229.949 10.059C229.949 8.85503 230.173 7.84003 230.621 7.01403C231.069 6.17403 231.678 5.53703 232.448 5.10303C233.218 4.66903 234.086 4.45203 235.052 4.45203C236.102 4.45203 237.04 4.69003 237.866 5.16603C238.706 5.62803 239.364 6.28603 239.84 7.14003C240.316 7.98003 240.554 8.95303 240.554 10.059C240.554 11.179 240.316 12.159 239.84 12.999C239.364 13.839 238.706 14.497 237.866 14.973C237.04 15.449 236.102 15.687 235.052 15.687ZM229.361 19.656V4.55703H230.789V7.87503L230.642 10.08L230.852 12.306V19.656H229.361ZM234.947 14.364C235.731 14.364 236.431 14.189 237.047 13.839C237.663 13.475 238.153 12.971 238.517 12.327C238.881 11.669 239.063 10.913 239.063 10.059C239.063 9.20503 238.881 8.45603 238.517 7.81203C238.153 7.16803 237.663 6.66403 237.047 6.30003C236.431 5.93603 235.731 5.75403 234.947 5.75403C234.163 5.75403 233.456 5.93603 232.826 6.30003C232.21 6.66403 231.72 7.16803 231.356 7.81203C231.006 8.45603 230.831 9.20503 230.831 10.059C230.831 10.913 231.006 11.669 231.356 12.327C231.72 12.971 232.21 13.475 232.826 13.839C233.456 14.189 234.163 14.364 234.947 14.364ZM242.476 19.656C243.316 18.214 243.925 16.688 244.303 15.078C244.695 13.454 244.891 11.704 244.891 9.82803C244.891 7.95203 244.695 6.20903 244.303 4.59903C243.925 2.97503 243.316 1.44203 242.476 3.03388e-05H243.904C244.702 1.24603 245.311 2.71603 245.731 4.41003C246.151 6.09003 246.361 7.89603 246.361 9.82803C246.361 11.76 246.151 13.566 245.731 15.246C245.311 16.912 244.702 18.382 243.904 19.656H242.476Z" fill="white"/>
</svg>
