<svg width="278" height="20" viewBox="0 0 278 20" fill="none" xmlns="http://www.w3.org/2000/svg">
<path d="M2.24704 14.553L0.546043 14.238C1.10604 14.266 1.56804 14.063 1.93204 13.629C2.31004 13.195 2.59704 12.586 2.79304 11.802C3.00304 11.018 3.15704 10.101 3.25504 9.05103C3.35304 8.00103 3.42304 6.86703 3.46504 5.64903L3.63304 0.88203H13.545V14.847H12.012V2.22603H4.97704L4.85104 5.79603C4.80904 6.90203 4.73904 7.96603 4.64104 8.98803C4.55704 9.99603 4.41704 10.906 4.22104 11.718C4.03904 12.516 3.78704 13.167 3.46504 13.671C3.15704 14.175 2.75104 14.469 2.24704 14.553ZM4.29871e-05 18.879L0.021043 14.238H15.75V18.879H14.301V15.582H1.47004L1.44904 18.879H4.29871e-05ZM25.4089 15.582V13.146L25.3459 12.747V8.67303C25.3459 7.73503 25.0799 7.01403 24.5479 6.51003C24.0299 6.00603 23.2529 5.75403 22.2169 5.75403C21.5029 5.75403 20.8239 5.87303 20.1799 6.11103C19.5359 6.34903 18.9899 6.66403 18.5419 7.05603L17.8699 5.94303C18.4299 5.46703 19.1019 5.10303 19.8859 4.85103C20.6699 4.58503 21.4959 4.45203 22.3639 4.45203C23.7919 4.45203 24.8909 4.80903 25.6609 5.52303C26.4449 6.22303 26.8369 7.29403 26.8369 8.73603V15.582H25.4089ZM21.6079 15.687C20.7819 15.687 20.0609 15.554 19.4449 15.288C18.8429 15.008 18.3809 14.63 18.0589 14.154C17.7369 13.664 17.5759 13.104 17.5759 12.474C17.5759 11.9 17.7089 11.382 17.9749 10.92C18.2549 10.444 18.7029 10.066 19.3189 9.78603C19.9489 9.49203 20.7889 9.34503 21.8389 9.34503H25.6399V10.458H21.8809C20.8169 10.458 20.0749 10.647 19.6549 11.025C19.2489 11.403 19.0459 11.872 19.0459 12.432C19.0459 13.062 19.2909 13.566 19.7809 13.944C20.2709 14.322 20.9569 14.511 21.8389 14.511C22.6789 14.511 23.3999 14.322 24.0019 13.944C24.6179 13.552 25.0659 12.992 25.3459 12.264L25.6819 13.293C25.4019 14.021 24.9119 14.602 24.2119 15.036C23.5259 15.47 22.6579 15.687 21.6079 15.687ZM30.8061 15.582V4.55703H32.2971V14.679L31.9191 14.28H38.0511L37.7151 14.679V4.55703H39.2061V14.679L38.8071 14.28H44.9601L44.5611 14.679V4.55703H46.0521V15.582H30.8061ZM57.1345 15.582V13.146L57.0715 12.747V8.67303C57.0715 7.73503 56.8055 7.01403 56.2735 6.51003C55.7555 6.00603 54.9785 5.75403 53.9425 5.75403C53.2285 5.75403 52.5495 5.87303 51.9055 6.11103C51.2615 6.34903 50.7155 6.66403 50.2675 7.05603L49.5955 5.94303C50.1555 5.46703 50.8275 5.10303 51.6115 4.85103C52.3955 4.58503 53.2215 4.45203 54.0895 4.45203C55.5175 4.45203 56.6165 4.80903 57.3865 5.52303C58.1705 6.22303 58.5625 7.29403 58.5625 8.73603V15.582H57.1345ZM53.3335 15.687C52.5075 15.687 51.7865 15.554 51.1705 15.288C50.5685 15.008 50.1065 14.63 49.7845 14.154C49.4625 13.664 49.3015 13.104 49.3015 12.474C49.3015 11.9 49.4345 11.382 49.7005 10.92C49.9805 10.444 50.4285 10.066 51.0445 9.78603C51.6745 9.49203 52.5145 9.34503 53.5645 9.34503H57.3655V10.458H53.6065C52.5425 10.458 51.8005 10.647 51.3805 11.025C50.9745 11.403 50.7715 11.872 50.7715 12.432C50.7715 13.062 51.0165 13.566 51.5065 13.944C51.9965 14.322 52.6825 14.511 53.5645 14.511C54.4045 14.511 55.1255 14.322 55.7275 13.944C56.3435 13.552 56.7915 12.992 57.0715 12.264L57.4075 13.293C57.1275 14.021 56.6375 14.602 55.9375 15.036C55.2515 15.47 54.3835 15.687 53.3335 15.687ZM71.7027 15.708C70.4987 15.708 69.3997 15.554 68.4057 15.246C67.4117 14.924 66.6067 14.476 65.9907 13.902L66.5787 12.726C67.1527 13.244 67.8807 13.65 68.7627 13.944C69.6447 14.238 70.6317 14.385 71.7237 14.385C73.2357 14.385 74.3557 14.119 75.0837 13.587C75.8117 13.041 76.1757 12.313 76.1757 11.403C76.1757 10.773 76.0077 10.248 75.6717 9.82803C75.3497 9.40803 74.8947 9.10003 74.3067 8.90403C73.7327 8.69403 73.0537 8.58903 72.2697 8.58903H68.9307V7.32903H72.2067C73.2567 7.32903 74.0757 7.11903 74.6637 6.69903C75.2517 6.27903 75.5457 5.66303 75.5457 4.85103C75.5457 4.22103 75.3637 3.70303 74.9997 3.29703C74.6497 2.89103 74.1807 2.59703 73.5927 2.41503C73.0187 2.21903 72.3887 2.12103 71.7027 2.12103C71.1847 2.12103 70.6527 2.17003 70.1067 2.26803C69.5747 2.36603 69.0567 2.50603 68.5527 2.68803C68.0627 2.87003 67.6077 3.08703 67.1877 3.33903L66.7047 2.10003C67.4327 1.66603 68.2307 1.33703 69.0987 1.11303C69.9667 0.889031 70.8347 0.77703 71.7027 0.77703C72.4167 0.77703 73.0957 0.854031 73.7397 1.00803C74.3837 1.16203 74.9577 1.40003 75.4617 1.72203C75.9657 2.04403 76.3647 2.45003 76.6587 2.94003C76.9527 3.43003 77.0997 4.00403 77.0997 4.66203C77.0997 5.34803 76.9387 5.95703 76.6167 6.48903C76.3087 7.02103 75.8607 7.44103 75.2727 7.74903C74.6847 8.05703 73.9917 8.21103 73.1937 8.21103L73.2987 7.72803C74.1107 7.72803 74.8527 7.87503 75.5247 8.16903C76.1967 8.46303 76.7287 8.89003 77.1207 9.45003C77.5267 10.01 77.7297 10.696 77.7297 11.508C77.7297 12.32 77.4987 13.048 77.0367 13.692C76.5747 14.322 75.8957 14.819 74.9997 15.183C74.1177 15.533 73.0187 15.708 71.7027 15.708ZM87.9167 15.582V13.146L87.8537 12.747V8.67303C87.8537 7.73503 87.5877 7.01403 87.0557 6.51003C86.5377 6.00603 85.7607 5.75403 84.7247 5.75403C84.0107 5.75403 83.3317 5.87303 82.6877 6.11103C82.0437 6.34903 81.4977 6.66403 81.0497 7.05603L80.3777 5.94303C80.9377 5.46703 81.6097 5.10303 82.3937 4.85103C83.1777 4.58503 84.0037 4.45203 84.8717 4.45203C86.2997 4.45203 87.3987 4.80903 88.1687 5.52303C88.9527 6.22303 89.3447 7.29403 89.3447 8.73603V15.582H87.9167ZM84.1157 15.687C83.2897 15.687 82.5687 15.554 81.9527 15.288C81.3507 15.008 80.8887 14.63 80.5667 14.154C80.2447 13.664 80.0837 13.104 80.0837 12.474C80.0837 11.9 80.2167 11.382 80.4827 10.92C80.7627 10.444 81.2107 10.066 81.8267 9.78603C82.4567 9.49203 83.2967 9.34503 84.3467 9.34503H88.1477V10.458H84.3887C83.3247 10.458 82.5827 10.647 82.1627 11.025C81.7567 11.403 81.5537 11.872 81.5537 12.432C81.5537 13.062 81.7987 13.566 82.2887 13.944C82.7787 14.322 83.4647 14.511 84.3467 14.511C85.1867 14.511 85.9077 14.322 86.5097 13.944C87.1257 13.552 87.5737 12.992 87.8537 12.264L88.1897 13.293C87.9097 14.021 87.4197 14.602 86.7197 15.036C86.0337 15.47 85.1657 15.687 84.1157 15.687ZM99.0049 15.687C98.0529 15.687 97.1919 15.47 96.4219 15.036C95.6519 14.588 95.0359 13.951 94.5739 13.125C94.1259 12.285 93.9019 11.263 93.9019 10.059C93.9019 8.85503 94.1259 7.84003 94.5739 7.01403C95.0219 6.17403 95.6309 5.53703 96.4009 5.10303C97.1709 4.66903 98.0389 4.45203 99.0049 4.45203C100.055 4.45203 100.993 4.69003 101.819 5.16603C102.659 5.62803 103.317 6.28603 103.793 7.14003C104.269 7.98003 104.507 8.95303 104.507 10.059C104.507 11.179 104.269 12.159 103.793 12.999C103.317 13.839 102.659 14.497 101.819 14.973C100.993 15.449 100.055 15.687 99.0049 15.687ZM93.3139 19.656V4.55703H94.7419V7.87503L94.5949 10.08L94.8049 12.306V19.656H93.3139ZM98.8999 14.364C99.6839 14.364 100.384 14.189 101 13.839C101.616 13.475 102.106 12.971 102.47 12.327C102.834 11.669 103.016 10.913 103.016 10.059C103.016 9.20503 102.834 8.45603 102.47 7.81203C102.106 7.16803 101.616 6.66403 101 6.30003C100.384 5.93603 99.6839 5.75403 98.8999 5.75403C98.1159 5.75403 97.4089 5.93603 96.7789 6.30003C96.1629 6.66403 95.6729 7.16803 95.3089 7.81203C94.9589 8.45603 94.7839 9.20503 94.7839 10.059C94.7839 10.913 94.9589 11.669 95.3089 12.327C95.6729 12.971 96.1629 13.475 96.7789 13.839C97.4089 14.189 98.1159 14.364 98.8999 14.364ZM112.246 15.687C111.182 15.687 110.223 15.449 109.369 14.973C108.529 14.483 107.864 13.818 107.374 12.978C106.884 12.124 106.639 11.151 106.639 10.059C106.639 8.95303 106.884 7.98003 107.374 7.14003C107.864 6.30003 108.529 5.64203 109.369 5.16603C110.209 4.69003 111.168 4.45203 112.246 4.45203C113.338 4.45203 114.304 4.69003 115.144 5.16603C115.998 5.64203 116.663 6.30003 117.139 7.14003C117.629 7.98003 117.874 8.95303 117.874 10.059C117.874 11.151 117.629 12.124 117.139 12.978C116.663 13.818 115.998 14.483 115.144 14.973C114.29 15.449 113.324 15.687 112.246 15.687ZM112.246 14.364C113.044 14.364 113.751 14.189 114.367 13.839C114.983 13.475 115.466 12.971 115.816 12.327C116.18 11.669 116.362 10.913 116.362 10.059C116.362 9.19103 116.18 8.43503 115.816 7.79103C115.466 7.14703 114.983 6.65003 114.367 6.30003C113.751 5.93603 113.051 5.75403 112.267 5.75403C111.483 5.75403 110.783 5.93603 110.167 6.30003C109.551 6.65003 109.061 7.14703 108.697 7.79103C108.333 8.43503 108.151 9.19103 108.151 10.059C108.151 10.913 108.333 11.669 108.697 12.327C109.061 12.971 109.551 13.475 110.167 13.839C110.783 14.189 111.476 14.364 112.246 14.364ZM121.02 14.553L119.529 14.28C119.963 14.294 120.32 14.14 120.6 13.818C120.88 13.482 121.097 13.027 121.251 12.453C121.405 11.879 121.517 11.228 121.587 10.5C121.657 9.75803 121.713 9.00203 121.755 8.23203L121.902 4.55703H130.05V14.868H128.559V5.85903H123.246L123.12 8.31603C123.092 9.05803 123.043 9.78603 122.973 10.5C122.917 11.214 122.812 11.872 122.658 12.474C122.518 13.062 122.315 13.545 122.049 13.923C121.783 14.287 121.44 14.497 121.02 14.553ZM119.067 18.249V14.28H131.772V18.249H130.365V15.582H120.474V18.249H119.067ZM134.678 15.582V4.55703H136.169V13.314L143.54 4.55703H144.863V15.582H143.372V6.80403L136.022 15.582H134.678ZM149.136 15.582V4.55703H150.627V9.42903H157.578V4.55703H159.069V15.582H157.578V10.71H150.627V15.582H149.136ZM170.153 15.582V13.146L170.09 12.747V8.67303C170.09 7.73503 169.824 7.01403 169.292 6.51003C168.774 6.00603 167.997 5.75403 166.961 5.75403C166.247 5.75403 165.568 5.87303 164.924 6.11103C164.28 6.34903 163.734 6.66403 163.286 7.05603L162.614 5.94303C163.174 5.46703 163.846 5.10303 164.63 4.85103C165.414 4.58503 166.24 4.45203 167.108 4.45203C168.536 4.45203 169.635 4.80903 170.405 5.52303C171.189 6.22303 171.581 7.29403 171.581 8.73603V15.582H170.153ZM166.352 15.687C165.526 15.687 164.805 15.554 164.189 15.288C163.587 15.008 163.125 14.63 162.803 14.154C162.481 13.664 162.32 13.104 162.32 12.474C162.32 11.9 162.453 11.382 162.719 10.92C162.999 10.444 163.447 10.066 164.063 9.78603C164.693 9.49203 165.533 9.34503 166.583 9.34503H170.384V10.458H166.625C165.561 10.458 164.819 10.647 164.399 11.025C163.993 11.403 163.79 11.872 163.79 12.432C163.79 13.062 164.035 13.566 164.525 13.944C165.015 14.322 165.701 14.511 166.583 14.511C167.423 14.511 168.144 14.322 168.746 13.944C169.362 13.552 169.81 12.992 170.09 12.264L170.426 13.293C170.146 14.021 169.656 14.602 168.956 15.036C168.27 15.47 167.402 15.687 166.352 15.687ZM183.545 19.656C182.775 18.382 182.173 16.912 181.739 15.246C181.319 13.566 181.109 11.76 181.109 9.82803C181.109 7.89603 181.319 6.09003 181.739 4.41003C182.173 2.71603 182.775 1.24603 183.545 3.03388e-05H184.973C184.147 1.44203 183.538 2.97503 183.146 4.59903C182.768 6.20903 182.579 7.95203 182.579 9.82803C182.579 11.704 182.768 13.454 183.146 15.078C183.538 16.688 184.147 18.214 184.973 19.656H183.545ZM196.042 15.582L191.506 10.122L192.745 9.38703L197.806 15.582H196.042ZM187.957 15.582V4.55703H189.448V15.582H187.957ZM188.986 10.668V9.38703H192.535V10.668H188.986ZM192.871 10.227L191.485 10.017L195.874 4.55703H197.491L192.871 10.227ZM199.938 19.761C199.42 19.761 198.923 19.677 198.447 19.509C197.985 19.341 197.586 19.089 197.25 18.753L197.943 17.64C198.223 17.906 198.524 18.109 198.846 18.249C199.182 18.403 199.553 18.48 199.959 18.48C200.449 18.48 200.869 18.34 201.219 18.06C201.583 17.794 201.926 17.318 202.248 16.632L202.962 15.015L203.13 14.784L207.666 4.55703H209.136L203.613 16.905C203.305 17.619 202.962 18.186 202.584 18.606C202.22 19.026 201.821 19.32 201.387 19.488C200.953 19.67 200.47 19.761 199.938 19.761ZM202.878 15.897L197.796 4.55703H199.35L203.844 14.679L202.878 15.897ZM217.15 15.687C216.198 15.687 215.337 15.47 214.567 15.036C213.797 14.588 213.181 13.951 212.719 13.125C212.271 12.285 212.047 11.263 212.047 10.059C212.047 8.85503 212.271 7.84003 212.719 7.01403C213.167 6.17403 213.776 5.53703 214.546 5.10303C215.316 4.66903 216.184 4.45203 217.15 4.45203C218.2 4.45203 219.138 4.69003 219.964 5.16603C220.804 5.62803 221.462 6.28603 221.938 7.14003C222.414 7.98003 222.652 8.95303 222.652 10.059C222.652 11.179 222.414 12.159 221.938 12.999C221.462 13.839 220.804 14.497 219.964 14.973C219.138 15.449 218.2 15.687 217.15 15.687ZM211.459 19.656V4.55703H212.887V7.87503L212.74 10.08L212.95 12.306V19.656H211.459ZM217.045 14.364C217.829 14.364 218.529 14.189 219.145 13.839C219.761 13.475 220.251 12.971 220.615 12.327C220.979 11.669 221.161 10.913 221.161 10.059C221.161 9.20503 220.979 8.45603 220.615 7.81203C220.251 7.16803 219.761 6.66403 219.145 6.30003C218.529 5.93603 217.829 5.75403 217.045 5.75403C216.261 5.75403 215.554 5.93603 214.924 6.30003C214.308 6.66403 213.818 7.16803 213.454 7.81203C213.104 8.45603 212.929 9.20503 212.929 10.059C212.929 10.913 213.104 11.669 213.454 12.327C213.818 12.971 214.308 13.475 214.924 13.839C215.554 14.189 216.261 14.364 217.045 14.364ZM232.64 15.582V13.146L232.577 12.747V8.67303C232.577 7.73503 232.311 7.01403 231.779 6.51003C231.261 6.00603 230.484 5.75403 229.448 5.75403C228.734 5.75403 228.055 5.87303 227.411 6.11103C226.767 6.34903 226.221 6.66403 225.773 7.05603L225.101 5.94303C225.661 5.46703 226.333 5.10303 227.117 4.85103C227.901 4.58503 228.727 4.45203 229.595 4.45203C231.023 4.45203 232.122 4.80903 232.892 5.52303C233.676 6.22303 234.068 7.29403 234.068 8.73603V15.582H232.64ZM228.839 15.687C228.013 15.687 227.292 15.554 226.676 15.288C226.074 15.008 225.612 14.63 225.29 14.154C224.968 13.664 224.807 13.104 224.807 12.474C224.807 11.9 224.94 11.382 225.206 10.92C225.486 10.444 225.934 10.066 226.55 9.78603C227.18 9.49203 228.02 9.34503 229.07 9.34503H232.871V10.458H229.112C228.048 10.458 227.306 10.647 226.886 11.025C226.48 11.403 226.277 11.872 226.277 12.432C226.277 13.062 226.522 13.566 227.012 13.944C227.502 14.322 228.188 14.511 229.07 14.511C229.91 14.511 230.631 14.322 231.233 13.944C231.849 13.552 232.297 12.992 232.577 12.264L232.913 13.293C232.633 14.021 232.143 14.602 231.443 15.036C230.757 15.47 229.889 15.687 228.839 15.687ZM240.138 15.582V5.46003L240.516 5.85903H235.959V4.55703H245.808V5.85903H241.251L241.629 5.46003V15.582H240.138ZM251.987 15.687C250.923 15.687 249.964 15.449 249.11 14.973C248.27 14.483 247.605 13.818 247.115 12.978C246.625 12.124 246.38 11.151 246.38 10.059C246.38 8.95303 246.625 7.98003 247.115 7.14003C247.605 6.30003 248.27 5.64203 249.11 5.16603C249.95 4.69003 250.909 4.45203 251.987 4.45203C253.079 4.45203 254.045 4.69003 254.885 5.16603C255.739 5.64203 256.404 6.30003 256.88 7.14003C257.37 7.98003 257.615 8.95303 257.615 10.059C257.615 11.151 257.37 12.124 256.88 12.978C256.404 13.818 255.739 14.483 254.885 14.973C254.031 15.449 253.065 15.687 251.987 15.687ZM251.987 14.364C252.785 14.364 253.492 14.189 254.108 13.839C254.724 13.475 255.207 12.971 255.557 12.327C255.921 11.669 256.103 10.913 256.103 10.059C256.103 9.19103 255.921 8.43503 255.557 7.79103C255.207 7.14703 254.724 6.65003 254.108 6.30003C253.492 5.93603 252.792 5.75403 252.008 5.75403C251.224 5.75403 250.524 5.93603 249.908 6.30003C249.292 6.65003 248.802 7.14703 248.438 7.79103C248.074 8.43503 247.892 9.19103 247.892 10.059C247.892 10.913 248.074 11.669 248.438 12.327C248.802 12.971 249.292 13.475 249.908 13.839C250.524 14.189 251.217 14.364 251.987 14.364ZM266.492 15.687C265.54 15.687 264.679 15.47 263.909 15.036C263.139 14.588 262.523 13.951 262.061 13.125C261.613 12.285 261.389 11.263 261.389 10.059C261.389 8.85503 261.613 7.84003 262.061 7.01403C262.509 6.17403 263.118 5.53703 263.888 5.10303C264.658 4.66903 265.526 4.45203 266.492 4.45203C267.542 4.45203 268.48 4.69003 269.306 5.16603C270.146 5.62803 270.804 6.28603 271.28 7.14003C271.756 7.98003 271.994 8.95303 271.994 10.059C271.994 11.179 271.756 12.159 271.28 12.999C270.804 13.839 270.146 14.497 269.306 14.973C268.48 15.449 267.542 15.687 266.492 15.687ZM260.801 19.656V4.55703H262.229V7.87503L262.082 10.08L262.292 12.306V19.656H260.801ZM266.387 14.364C267.171 14.364 267.871 14.189 268.487 13.839C269.103 13.475 269.593 12.971 269.957 12.327C270.321 11.669 270.503 10.913 270.503 10.059C270.503 9.20503 270.321 8.45603 269.957 7.81203C269.593 7.16803 269.103 6.66403 268.487 6.30003C267.871 5.93603 267.171 5.75403 266.387 5.75403C265.603 5.75403 264.896 5.93603 264.266 6.30003C263.65 6.66403 263.16 7.16803 262.796 7.81203C262.446 8.45603 262.271 9.20503 262.271 10.059C262.271 10.913 262.446 11.669 262.796 12.327C263.16 12.971 263.65 13.475 264.266 13.839C264.896 14.189 265.603 14.364 266.387 14.364ZM273.917 19.656C274.757 18.214 275.366 16.688 275.744 15.078C276.136 13.454 276.332 11.704 276.332 9.82803C276.332 7.95203 276.136 6.20903 275.744 4.59903C275.366 2.97503 274.757 1.44203 273.917 3.03388e-05H275.345C276.143 1.24603 276.752 2.71603 277.172 4.41003C277.592 6.09003 277.802 7.89603 277.802 9.82803C277.802 11.76 277.592 13.566 277.172 15.246C276.752 16.912 276.143 18.382 275.345 19.656H273.917Z" fill="white"/>
</svg>
