<svg width="1854" height="176" viewBox="0 0 1854 176" fill="none" xmlns="http://www.w3.org/2000/svg">
<g clip-path="url(#clip0_856_89300)">
<path d="M618 88L309 0L0 88L309 176L618 88Z" fill="#131312"/>
<g clip-path="url(#clip1_856_89300)">
<path d="M329.888 106V103.552L343.856 89.872C345.136 88.624 346.096 87.536 346.736 86.608C347.376 85.648 347.808 84.752 348.032 83.92C348.256 83.088 348.368 82.304 348.368 81.568C348.368 79.616 347.696 78.08 346.352 76.96C345.04 75.84 343.088 75.28 340.496 75.28C338.512 75.28 336.752 75.584 335.216 76.192C333.712 76.8 332.416 77.744 331.328 79.024L328.88 76.912C330.192 75.376 331.872 74.192 333.92 73.36C335.968 72.528 338.256 72.112 340.784 72.112C343.056 72.112 345.024 72.48 346.688 73.216C348.352 73.92 349.632 74.96 350.528 76.336C351.456 77.712 351.92 79.328 351.92 81.184C351.92 82.272 351.76 83.344 351.44 84.4C351.152 85.456 350.608 86.576 349.808 87.76C349.04 88.912 347.904 90.224 346.4 91.696L333.584 104.272L332.624 102.928H353.456V106H329.888ZM367.825 106.288C365.393 106.288 363.089 105.904 360.913 105.136C358.769 104.336 357.041 103.28 355.729 101.968L357.409 99.232C358.497 100.352 359.953 101.28 361.777 102.016C363.633 102.752 365.649 103.12 367.825 103.12C370.609 103.12 372.737 102.512 374.209 101.296C375.713 100.08 376.465 98.448 376.465 96.4C376.465 94.352 375.729 92.72 374.257 91.504C372.817 90.288 370.529 89.68 367.393 89.68H364.993V87.136L375.361 74.128L375.841 75.472H357.121V72.4H378.721V74.848L368.353 87.856L366.673 86.752H367.969C372.001 86.752 375.009 87.648 376.993 89.44C379.009 91.232 380.017 93.536 380.017 96.352C380.017 98.24 379.569 99.936 378.673 101.44C377.777 102.944 376.417 104.128 374.593 104.992C372.801 105.856 370.545 106.288 367.825 106.288ZM387.479 85.792C386.775 85.792 386.167 85.536 385.655 85.024C385.175 84.512 384.935 83.888 384.935 83.152C384.935 82.384 385.175 81.76 385.655 81.28C386.167 80.8 386.775 80.56 387.479 80.56C388.183 80.56 388.775 80.8 389.255 81.28C389.767 81.76 390.023 82.384 390.023 83.152C390.023 83.888 389.767 84.512 389.255 85.024C388.775 85.536 388.183 85.792 387.479 85.792ZM387.479 106.24C386.775 106.24 386.167 105.984 385.655 105.472C385.175 104.96 384.935 104.336 384.935 103.6C384.935 102.832 385.175 102.208 385.655 101.728C386.167 101.248 386.775 101.008 387.479 101.008C388.183 101.008 388.775 101.248 389.255 101.728C389.767 102.208 390.023 102.832 390.023 103.6C390.023 104.336 389.767 104.96 389.255 105.472C388.775 105.984 388.183 106.24 387.479 106.24ZM405.667 106.288C403.267 106.288 400.979 105.904 398.803 105.136C396.627 104.336 394.899 103.28 393.619 101.968L395.299 99.232C396.355 100.352 397.795 101.28 399.618 102.016C401.475 102.752 403.475 103.12 405.619 103.12C408.467 103.12 410.627 102.496 412.099 101.248C413.603 99.968 414.355 98.304 414.355 96.256C414.355 94.816 414.003 93.584 413.299 92.56C412.627 91.504 411.475 90.688 409.843 90.112C408.211 89.536 405.971 89.248 403.123 89.248H395.971L397.699 72.4H416.083V75.472H399.091L400.867 73.792L399.379 87.904L397.603 86.176H403.891C407.283 86.176 410.003 86.592 412.051 87.424C414.099 88.256 415.571 89.424 416.467 90.928C417.395 92.4 417.859 94.128 417.859 96.112C417.859 98 417.411 99.728 416.515 101.296C415.619 102.832 414.275 104.048 412.483 104.944C410.691 105.84 408.419 106.288 405.667 106.288ZM431.126 106.288C429.622 106.288 428.182 106.144 426.806 105.856C425.462 105.568 424.246 105.104 423.158 104.464L424.55 101.68C425.414 102.256 426.406 102.672 427.526 102.928C428.678 103.152 429.862 103.264 431.078 103.264C434.694 103.264 437.574 102.112 439.718 99.808C441.894 97.504 442.982 94.064 442.982 89.488C442.982 88.752 442.934 87.872 442.838 86.848C442.774 85.824 442.598 84.8 442.31 83.776L443.51 84.688C443.19 86.352 442.502 87.776 441.446 88.96C440.422 90.112 439.142 90.992 437.606 91.6C436.102 92.208 434.422 92.512 432.566 92.512C430.358 92.512 428.39 92.096 426.662 91.264C424.966 90.432 423.638 89.264 422.678 87.76C421.718 86.256 421.238 84.48 421.238 82.432C421.238 80.32 421.734 78.496 422.726 76.96C423.718 75.424 425.078 74.24 426.806 73.408C428.566 72.544 430.534 72.112 432.71 72.112C435.686 72.112 438.198 72.784 440.246 74.128C442.294 75.44 443.846 77.344 444.902 79.84C445.958 82.336 446.486 85.36 446.486 88.912C446.486 92.688 445.83 95.872 444.518 98.464C443.238 101.056 441.446 103.008 439.142 104.32C436.838 105.632 434.166 106.288 431.126 106.288ZM433.094 89.584C434.822 89.584 436.326 89.264 437.606 88.624C438.918 87.984 439.926 87.104 440.63 85.984C441.366 84.864 441.734 83.616 441.734 82.24C441.734 80.992 441.398 79.824 440.726 78.736C440.054 77.648 439.062 76.768 437.75 76.096C436.438 75.392 434.806 75.04 432.854 75.04C431.254 75.04 429.83 75.344 428.582 75.952C427.366 76.528 426.406 77.36 425.702 78.448C424.998 79.536 424.646 80.832 424.646 82.336C424.646 84.544 425.398 86.304 426.902 87.616C428.438 88.928 430.502 89.584 433.094 89.584Z" fill="white"/>
<path d="M182.091 106.288C179.659 106.288 177.355 105.904 175.179 105.136C173.035 104.336 171.307 103.28 169.995 101.968L171.675 99.232C172.763 100.352 174.219 101.28 176.043 102.016C177.899 102.752 179.915 103.12 182.091 103.12C184.875 103.12 187.003 102.512 188.475 101.296C189.979 100.08 190.731 98.448 190.731 96.4C190.731 94.352 189.995 92.72 188.523 91.504C187.083 90.288 184.795 89.68 181.659 89.68H179.259V87.136L189.627 74.128L190.107 75.472H171.387V72.4H192.987V74.848L182.619 87.856L180.939 86.752H182.234C186.267 86.752 189.275 87.648 191.259 89.44C193.275 91.232 194.283 93.536 194.283 96.352C194.283 98.24 193.835 99.936 192.939 101.44C192.043 102.944 190.683 104.128 188.859 104.992C187.067 105.856 184.811 106.288 182.091 106.288ZM205.008 106V73.84L206.544 75.472H197.088V72.4H208.464V106H205.008Z" fill="white"/>
<path d="M231.068 103.648L227.66 103.024C228.652 103.056 229.468 102.704 230.108 101.968C230.748 101.2 231.244 100.16 231.596 98.848C231.948 97.536 232.204 96.048 232.364 94.384C232.524 92.688 232.652 90.96 232.748 89.2L233.084 80.8H251.708V104.368H248.3V83.776H236.156L235.868 89.392C235.804 91.088 235.692 92.752 235.532 94.384C235.404 96.016 235.164 97.52 234.812 98.896C234.492 100.24 234.028 101.344 233.42 102.208C232.812 103.04 232.028 103.52 231.068 103.648ZM226.604 112.096V103.024H255.644V112.096H252.428V106H229.82V112.096H226.604ZM273.086 106.24C270.462 106.24 268.158 105.696 266.174 104.608C264.19 103.488 262.638 101.968 261.518 100.048C260.398 98.096 259.838 95.872 259.838 93.376C259.838 90.88 260.366 88.672 261.422 86.752C262.51 84.832 263.982 83.328 265.838 82.24C267.726 81.12 269.838 80.56 272.174 80.56C274.542 80.56 276.638 81.104 278.462 82.192C280.318 83.248 281.774 84.752 282.83 86.704C283.886 88.624 284.414 90.848 284.414 93.376C284.414 93.536 284.398 93.712 284.366 93.904C284.366 94.064 284.366 94.24 284.366 94.432H262.43V91.888H282.542L281.198 92.896C281.198 91.072 280.798 89.456 279.998 88.048C279.23 86.608 278.174 85.488 276.83 84.688C275.486 83.888 273.934 83.488 272.174 83.488C270.446 83.488 268.894 83.888 267.518 84.688C266.142 85.488 265.07 86.608 264.302 88.048C263.534 89.488 263.15 91.136 263.15 92.992V93.52C263.15 95.44 263.566 97.136 264.398 98.608C265.262 100.048 266.446 101.184 267.95 102.016C269.486 102.816 271.23 103.216 273.182 103.216C274.718 103.216 276.142 102.944 277.454 102.4C278.798 101.856 279.95 101.024 280.91 99.904L282.83 102.112C281.71 103.456 280.302 104.48 278.606 105.184C276.942 105.888 275.102 106.24 273.086 106.24ZM310.437 106L300.069 93.52L302.901 91.84L314.469 106H310.437ZM291.957 106V80.8H295.365V106H291.957ZM294.309 94.768V91.84H302.421V94.768H294.309ZM303.189 93.76L300.021 93.28L310.053 80.8H313.749L303.189 93.76Z" fill="white"/>
</g>
</g>
<g clip-path="url(#clip2_856_89300)">
<path d="M1236 88L927 0L618 88L927 176L1236 88Z" fill="#131312"/>
<g clip-path="url(#clip3_856_89300)">
<path d="M945.122 106V103.552L959.09 89.872C960.37 88.624 961.33 87.536 961.97 86.608C962.61 85.648 963.042 84.752 963.266 83.92C963.49 83.088 963.602 82.304 963.602 81.568C963.602 79.616 962.93 78.08 961.586 76.96C960.274 75.84 958.322 75.28 955.73 75.28C953.746 75.28 951.986 75.584 950.45 76.192C948.946 76.8 947.65 77.744 946.562 79.024L944.114 76.912C945.426 75.376 947.106 74.192 949.154 73.36C951.202 72.528 953.49 72.112 956.018 72.112C958.29 72.112 960.258 72.48 961.922 73.216C963.586 73.92 964.866 74.96 965.762 76.336C966.69 77.712 967.154 79.328 967.154 81.184C967.154 82.272 966.994 83.344 966.674 84.4C966.386 85.456 965.842 86.576 965.042 87.76C964.274 88.912 963.138 90.224 961.634 91.696L948.818 104.272L947.858 102.928H968.69V106H945.122ZM999.676 106.528L981.148 87.472C980.028 86.288 979.132 85.264 978.46 84.4C977.82 83.504 977.372 82.656 977.116 81.856C976.86 81.056 976.732 80.208 976.732 79.312C976.732 77.872 977.068 76.624 977.74 75.568C978.444 74.48 979.436 73.648 980.716 73.072C981.996 72.464 983.5 72.16 985.228 72.16C986.796 72.16 988.156 72.432 989.308 72.976C990.492 73.488 991.404 74.24 992.044 75.232C992.716 76.224 993.052 77.424 993.052 78.832C993.052 80.048 992.748 81.184 992.14 82.24C991.564 83.296 990.604 84.336 989.26 85.36C987.916 86.352 986.092 87.472 983.788 88.72C981.772 89.84 980.172 90.864 978.988 91.792C977.836 92.72 977.02 93.632 976.54 94.528C976.06 95.392 975.82 96.352 975.82 97.408C975.82 98.624 976.156 99.696 976.828 100.624C977.532 101.52 978.492 102.224 979.708 102.736C980.956 103.216 982.38 103.456 983.98 103.456C986.22 103.456 988.22 102.992 989.98 102.064C991.74 101.136 993.212 99.728 994.396 97.84C995.612 95.952 996.492 93.584 997.036 90.736L999.772 91.6C999.164 94.8 998.124 97.488 996.652 99.664C995.18 101.84 993.356 103.488 991.18 104.608C989.004 105.728 986.54 106.288 983.788 106.288C981.612 106.288 979.676 105.936 977.98 105.232C976.284 104.496 974.94 103.488 973.948 102.208C972.988 100.928 972.508 99.44 972.508 97.744C972.508 96.304 972.828 94.992 973.468 93.808C974.108 92.592 975.132 91.408 976.54 90.256C977.98 89.072 979.884 87.84 982.252 86.56C984.268 85.44 985.836 84.48 986.956 83.68C988.108 82.848 988.924 82.064 989.404 81.328C989.884 80.56 990.124 79.744 990.124 78.88C990.124 77.632 989.692 76.624 988.828 75.856C987.996 75.088 986.796 74.704 985.228 74.704C983.532 74.704 982.22 75.136 981.292 76C980.364 76.832 979.9 77.92 979.9 79.264C979.9 79.936 979.996 80.576 980.188 81.184C980.412 81.792 980.812 82.464 981.388 83.2C981.996 83.936 982.828 84.864 983.884 85.984L1001.64 104.272L999.676 106.528ZM1007.07 85.792C1006.37 85.792 1005.76 85.536 1005.25 85.024C1004.77 84.512 1004.53 83.888 1004.53 83.152C1004.53 82.384 1004.77 81.76 1005.25 81.28C1005.76 80.8 1006.37 80.56 1007.07 80.56C1007.78 80.56 1008.37 80.8 1008.85 81.28C1009.36 81.76 1009.62 82.384 1009.62 83.152C1009.62 83.888 1009.36 84.512 1008.85 85.024C1008.37 85.536 1007.78 85.792 1007.07 85.792ZM1007.07 106.24C1006.37 106.24 1005.76 105.984 1005.25 105.472C1004.77 104.96 1004.53 104.336 1004.53 103.6C1004.53 102.832 1004.77 102.208 1005.25 101.728C1005.76 101.248 1006.37 101.008 1007.07 101.008C1007.78 101.008 1008.37 101.248 1008.85 101.728C1009.36 102.208 1009.62 102.832 1009.62 103.6C1009.62 104.336 1009.36 104.96 1008.85 105.472C1008.37 105.984 1007.78 106.24 1007.07 106.24ZM1025.26 106.288C1022.86 106.288 1020.57 105.904 1018.4 105.136C1016.22 104.336 1014.49 103.28 1013.21 101.968L1014.89 99.232C1015.95 100.352 1017.39 101.28 1019.21 102.016C1021.07 102.752 1023.07 103.12 1025.21 103.12C1028.06 103.12 1030.22 102.496 1031.69 101.248C1033.2 99.968 1033.95 98.304 1033.95 96.256C1033.95 94.816 1033.6 93.584 1032.89 92.56C1032.22 91.504 1031.07 90.688 1029.44 90.112C1027.8 89.536 1025.56 89.248 1022.72 89.248H1015.56L1017.29 72.4H1035.68V75.472H1018.68L1020.46 73.792L1018.97 87.904L1017.2 86.176H1023.48C1026.88 86.176 1029.6 86.592 1031.64 87.424C1033.69 88.256 1035.16 89.424 1036.06 90.928C1036.99 92.4 1037.45 94.128 1037.45 96.112C1037.45 98 1037 99.728 1036.11 101.296C1035.21 102.832 1033.87 104.048 1032.08 104.944C1030.28 105.84 1028.01 106.288 1025.26 106.288ZM1043.33 99.136L1051.73 79.264H1054.66L1063.01 99.136H1060.18L1052.45 80.464H1053.89L1046.16 99.136H1043.33Z" fill="white"/>
<path d="M798.919 106.288C796.487 106.288 794.183 105.904 792.007 105.136C789.863 104.336 788.135 103.28 786.823 101.968L788.503 99.232C789.591 100.352 791.047 101.28 792.871 102.016C794.727 102.752 796.743 103.12 798.919 103.12C801.703 103.12 803.831 102.512 805.303 101.296C806.807 100.08 807.559 98.448 807.559 96.4C807.559 94.352 806.823 92.72 805.351 91.504C803.911 90.288 801.623 89.68 798.487 89.68H796.087V87.136L806.455 74.128L806.935 75.472H788.215V72.4H809.815V74.848L799.447 87.856L797.767 86.752H799.063C803.095 86.752 806.103 87.648 808.087 89.44C810.103 91.232 811.111 93.536 811.111 96.352C811.111 98.24 810.663 99.936 809.767 101.44C808.871 102.944 807.511 104.128 805.687 104.992C803.895 105.856 801.639 106.288 798.919 106.288ZM821.644 87.76L821.692 80.416L822.172 80.656L815.692 84.448L814.54 82.432L821.212 78.688V79.456L814.54 75.712L815.692 73.696L822.172 77.488L821.692 77.728L821.644 70.384H823.852V77.728L823.324 77.488L829.852 73.696L830.956 75.712L824.332 79.456V78.688L830.956 82.432L829.852 84.448L823.324 80.656L823.852 80.416V87.76H821.644Z" fill="white"/>
<path d="M845.318 103.648L841.91 103.024C842.902 103.056 843.718 102.704 844.358 101.968C844.998 101.2 845.494 100.16 845.846 98.848C846.198 97.536 846.454 96.048 846.614 94.384C846.774 92.688 846.902 90.96 846.998 89.2L847.334 80.8H865.958V104.368H862.55V83.776H850.406L850.118 89.392C850.054 91.088 849.942 92.752 849.782 94.384C849.654 96.016 849.414 97.52 849.062 98.896C848.742 100.24 848.278 101.344 847.67 102.208C847.062 103.04 846.278 103.52 845.318 103.648ZM840.854 112.096V103.024H869.894V112.096H866.678V106H844.07V112.096H840.854ZM878.792 106L882.92 72.4H885.56L881.384 106H878.792ZM873.08 96.88V94.24H902.12V96.88H873.08ZM891.272 106L895.4 72.4H897.992L893.864 106H891.272ZM874.616 84.16V81.52H903.656V84.16H874.616ZM928.437 106L918.069 93.52L920.901 91.84L932.469 106H928.437ZM909.957 106V80.8H913.365V106H909.957ZM912.309 94.768V91.84H920.421V94.768H912.309ZM921.189 93.76L918.021 93.28L928.053 80.8H931.749L921.189 93.76Z" fill="white"/>
</g>
</g>
<g clip-path="url(#clip4_856_89300)">
<path d="M1854 88L1545 0L1236 88L1545 176L1854 88Z" fill="#131312"/>
<path d="M1595.37 106.288C1592.78 106.288 1590.48 105.616 1588.46 104.272C1586.44 102.896 1584.86 100.944 1583.71 98.416C1582.56 95.856 1581.98 92.784 1581.98 89.2C1581.98 85.616 1582.56 82.56 1583.71 80.032C1584.86 77.472 1586.44 75.52 1588.46 74.176C1590.48 72.8 1592.78 72.112 1595.37 72.112C1597.96 72.112 1600.27 72.8 1602.28 74.176C1604.3 75.52 1605.88 77.472 1607.04 80.032C1608.22 82.56 1608.81 85.616 1608.81 89.2C1608.81 92.784 1608.22 95.856 1607.04 98.416C1605.88 100.944 1604.3 102.896 1602.28 104.272C1600.27 105.616 1597.96 106.288 1595.37 106.288ZM1595.37 103.12C1597.36 103.12 1599.08 102.592 1600.56 101.536C1602.03 100.448 1603.18 98.88 1604.01 96.832C1604.84 94.752 1605.26 92.208 1605.26 89.2C1605.26 86.192 1604.84 83.664 1604.01 81.616C1603.18 79.536 1602.03 77.968 1600.56 76.912C1599.08 75.824 1597.36 75.28 1595.37 75.28C1593.45 75.28 1591.74 75.824 1590.24 76.912C1588.73 77.968 1587.56 79.536 1586.73 81.616C1585.9 83.664 1585.48 86.192 1585.48 89.2C1585.48 92.208 1585.9 94.752 1586.73 96.832C1587.56 98.88 1588.73 100.448 1590.24 101.536C1591.74 102.592 1593.45 103.12 1595.37 103.12ZM1616.35 85.792C1615.65 85.792 1615.04 85.536 1614.53 85.024C1614.05 84.512 1613.81 83.888 1613.81 83.152C1613.81 82.384 1614.05 81.76 1614.53 81.28C1615.04 80.8 1615.65 80.56 1616.35 80.56C1617.06 80.56 1617.65 80.8 1618.13 81.28C1618.64 81.76 1618.9 82.384 1618.9 83.152C1618.9 83.888 1618.64 84.512 1618.13 85.024C1617.65 85.536 1617.06 85.792 1616.35 85.792ZM1616.35 106.24C1615.65 106.24 1615.04 105.984 1614.53 105.472C1614.05 104.96 1613.81 104.336 1613.81 103.6C1613.81 102.832 1614.05 102.208 1614.53 101.728C1615.04 101.248 1615.65 101.008 1616.35 101.008C1617.06 101.008 1617.65 101.248 1618.13 101.728C1618.64 102.208 1618.9 102.832 1618.9 103.6C1618.9 104.336 1618.64 104.96 1618.13 105.472C1617.65 105.984 1617.06 106.24 1616.35 106.24ZM1637.33 106.288C1634.73 106.288 1632.43 105.616 1630.41 104.272C1628.4 102.896 1626.81 100.944 1625.66 98.416C1624.51 95.856 1623.93 92.784 1623.93 89.2C1623.93 85.616 1624.51 82.56 1625.66 80.032C1626.81 77.472 1628.4 75.52 1630.41 74.176C1632.43 72.8 1634.73 72.112 1637.33 72.112C1639.92 72.112 1642.22 72.8 1644.24 74.176C1646.25 75.52 1647.84 77.472 1648.99 80.032C1650.17 82.56 1650.77 85.616 1650.77 89.2C1650.77 92.784 1650.17 95.856 1648.99 98.416C1647.84 100.944 1646.25 102.896 1644.24 104.272C1642.22 105.616 1639.92 106.288 1637.33 106.288ZM1637.33 103.12C1639.31 103.12 1641.04 102.592 1642.51 101.536C1643.98 100.448 1645.13 98.88 1645.97 96.832C1646.8 94.752 1647.21 92.208 1647.21 89.2C1647.21 86.192 1646.8 83.664 1645.97 81.616C1645.13 79.536 1643.98 77.968 1642.51 76.912C1641.04 75.824 1639.31 75.28 1637.33 75.28C1635.41 75.28 1633.69 75.824 1632.19 76.912C1630.69 77.968 1629.52 79.536 1628.69 81.616C1627.85 83.664 1627.44 86.192 1627.44 89.2C1627.44 92.208 1627.85 94.752 1628.69 96.832C1629.52 98.88 1630.69 100.448 1632.19 101.536C1633.69 102.592 1635.41 103.12 1637.33 103.12ZM1669.11 106.288C1666.51 106.288 1664.21 105.616 1662.19 104.272C1660.18 102.896 1658.59 100.944 1657.44 98.416C1656.29 95.856 1655.71 92.784 1655.71 89.2C1655.71 85.616 1656.29 82.56 1657.44 80.032C1658.59 77.472 1660.18 75.52 1662.19 74.176C1664.21 72.8 1666.51 72.112 1669.11 72.112C1671.7 72.112 1674 72.8 1676.02 74.176C1678.03 75.52 1679.62 77.472 1680.77 80.032C1681.95 82.56 1682.55 85.616 1682.55 89.2C1682.55 92.784 1681.95 95.856 1680.77 98.416C1679.62 100.944 1678.03 102.896 1676.02 104.272C1674 105.616 1671.7 106.288 1669.11 106.288ZM1669.11 103.12C1671.09 103.12 1672.82 102.592 1674.29 101.536C1675.76 100.448 1676.91 98.88 1677.75 96.832C1678.58 94.752 1678.99 92.208 1678.99 89.2C1678.99 86.192 1678.58 83.664 1677.75 81.616C1676.91 79.536 1675.76 77.968 1674.29 76.912C1672.82 75.824 1671.09 75.28 1669.11 75.28C1667.19 75.28 1665.47 75.824 1663.97 76.912C1662.47 77.968 1661.3 79.536 1660.47 81.616C1659.63 83.664 1659.22 86.192 1659.22 89.2C1659.22 92.208 1659.63 94.752 1660.47 96.832C1661.3 98.88 1662.47 100.448 1663.97 101.536C1665.47 102.592 1667.19 103.12 1669.11 103.12Z" fill="white"/>
<path d="M1441.01 106V73.84L1442.54 75.472H1433.09V72.4H1444.46V106H1441.01Z" fill="white"/>
<path d="M1481.42 106V96.928L1482.04 97.648H1473.5C1470.26 97.648 1467.74 96.944 1465.91 95.536C1464.09 94.128 1463.18 92.08 1463.18 89.392C1463.18 86.512 1464.15 84.368 1466.1 82.96C1468.06 81.52 1470.66 80.8 1473.93 80.8H1484.54V106H1481.42ZM1462.98 106L1469.9 96.304H1473.45L1466.68 106H1462.98ZM1481.42 95.92V82.768L1482.04 83.776H1474.02C1471.69 83.776 1469.86 84.224 1468.55 85.12C1467.27 86.016 1466.63 87.472 1466.63 89.488C1466.63 93.232 1469.02 95.104 1473.78 95.104H1482.04L1481.42 95.92ZM1494.25 106V80.8H1497.66V91.936H1513.55V80.8H1516.96V106H1513.55V94.864H1497.66V106H1494.25ZM1526.64 106V80.8H1537.78C1540.63 80.8 1542.87 81.344 1544.5 82.432C1546.16 83.52 1547 85.12 1547 87.232C1547 89.28 1546.21 90.864 1544.64 91.984C1543.08 93.072 1541.01 93.616 1538.45 93.616L1539.12 92.608C1542.13 92.608 1544.34 93.168 1545.75 94.288C1547.16 95.408 1547.86 97.024 1547.86 99.136C1547.86 101.312 1547.06 103.008 1545.46 104.224C1543.89 105.408 1541.44 106 1538.12 106H1526.64ZM1529.96 103.312H1537.97C1540.12 103.312 1541.73 102.976 1542.82 102.304C1543.94 101.6 1544.5 100.48 1544.5 98.944C1544.5 97.408 1544 96.288 1543.01 95.584C1542.02 94.88 1540.45 94.528 1538.31 94.528H1529.96V103.312ZM1529.96 91.984H1537.54C1539.49 91.984 1540.98 91.616 1542 90.88C1543.06 90.144 1543.59 89.072 1543.59 87.664C1543.59 86.256 1543.06 85.2 1542 84.496C1540.98 83.792 1539.49 83.44 1537.54 83.44H1529.96V91.984Z" fill="white"/>
</g>
<defs>
<clipPath id="clip0_856_89300">
<rect width="618" height="176" fill="white"/>
</clipPath>
<clipPath id="clip1_856_89300">
<rect width="280" height="59" fill="white" transform="translate(169 59)"/>
</clipPath>
<clipPath id="clip2_856_89300">
<rect width="618" height="176" fill="white" transform="translate(618)"/>
</clipPath>
<clipPath id="clip3_856_89300">
<rect width="280" height="59" fill="white" transform="translate(787 59)"/>
</clipPath>
<clipPath id="clip4_856_89300">
<rect width="618" height="176" fill="white" transform="translate(1236)"/>
</clipPath>
</defs>
</svg>
