<svg width="428" height="26" viewBox="0 0 428 26" fill="none" xmlns="http://www.w3.org/2000/svg">
<path d="M77.315 21L84.035 6.3H85.568L92.288 21H90.65L84.476 7.203H85.106L78.932 21H77.315ZM79.961 17.073L80.423 15.813H88.97L89.432 17.073H79.961ZM94.748 21V9.975H96.239V14.847H103.19V9.975H104.681V21H103.19V16.128H96.239V21H94.748ZM116.038 21V17.031L116.311 17.346H112.573C111.159 17.346 110.053 17.038 109.255 16.422C108.457 15.806 108.058 14.91 108.058 13.734C108.058 12.474 108.485 11.536 109.339 10.92C110.193 10.29 111.334 9.975 112.762 9.975H117.403V21H116.038ZM107.974 21L110.998 16.758H112.552L109.591 21H107.974ZM116.038 16.59V10.836L116.311 11.277H112.804C111.782 11.277 110.984 11.473 110.41 11.865C109.85 12.257 109.57 12.894 109.57 13.776C109.57 15.414 110.613 16.233 112.699 16.233H116.311L116.038 16.59ZM137.566 21L131.917 13.671L133.177 12.915L139.351 21H137.566ZM127.507 21V6.3H129.019V21H127.507ZM128.557 14.259V12.894H133.156V14.259H128.557ZM133.303 13.818L131.875 13.566L137.356 6.3H139.036L133.303 13.818ZM145.796 21.105C144.732 21.105 143.773 20.867 142.919 20.391C142.079 19.901 141.414 19.236 140.924 18.396C140.434 17.542 140.189 16.569 140.189 15.477C140.189 14.371 140.434 13.398 140.924 12.558C141.414 11.718 142.079 11.06 142.919 10.584C143.759 10.108 144.718 9.87 145.796 9.87C146.888 9.87 147.854 10.108 148.694 10.584C149.548 11.06 150.213 11.718 150.689 12.558C151.179 13.398 151.424 14.371 151.424 15.477C151.424 16.569 151.179 17.542 150.689 18.396C150.213 19.236 149.548 19.901 148.694 20.391C147.84 20.867 146.874 21.105 145.796 21.105ZM145.796 19.782C146.594 19.782 147.301 19.607 147.917 19.257C148.533 18.893 149.016 18.389 149.366 17.745C149.73 17.087 149.912 16.331 149.912 15.477C149.912 14.609 149.73 13.853 149.366 13.209C149.016 12.565 148.533 12.068 147.917 11.718C147.301 11.354 146.601 11.172 145.817 11.172C145.033 11.172 144.333 11.354 143.717 11.718C143.101 12.068 142.611 12.565 142.247 13.209C141.883 13.853 141.701 14.609 141.701 15.477C141.701 16.331 141.883 17.087 142.247 17.745C142.611 18.389 143.101 18.893 143.717 19.257C144.333 19.607 145.026 19.782 145.796 19.782ZM154.61 21V9.975H156.122L161.12 18.438H160.49L165.572 9.975H166.958V21H165.593V11.676L165.866 11.802L161.12 19.656H160.448L155.66 11.718L155.975 11.655V21H154.61ZM179.286 21L174.75 15.54L175.989 14.805L181.05 21H179.286ZM171.201 21V9.975H172.692V21H171.201ZM172.23 16.086V14.805H175.779V16.086H172.23ZM176.115 15.645L174.729 15.435L179.118 9.975H180.735L176.115 15.645ZM187.591 21.105C186.527 21.105 185.568 20.867 184.714 20.391C183.874 19.901 183.209 19.236 182.719 18.396C182.229 17.542 181.984 16.569 181.984 15.477C181.984 14.371 182.229 13.398 182.719 12.558C183.209 11.718 183.874 11.06 184.714 10.584C185.554 10.108 186.513 9.87 187.591 9.87C188.683 9.87 189.649 10.108 190.489 10.584C191.343 11.06 192.008 11.718 192.484 12.558C192.974 13.398 193.219 14.371 193.219 15.477C193.219 16.569 192.974 17.542 192.484 18.396C192.008 19.236 191.343 19.901 190.489 20.391C189.635 20.867 188.669 21.105 187.591 21.105ZM187.591 19.782C188.389 19.782 189.096 19.607 189.712 19.257C190.328 18.893 190.811 18.389 191.161 17.745C191.525 17.087 191.707 16.331 191.707 15.477C191.707 14.609 191.525 13.853 191.161 13.209C190.811 12.565 190.328 12.068 189.712 11.718C189.096 11.354 188.396 11.172 187.612 11.172C186.828 11.172 186.128 11.354 185.512 11.718C184.896 12.068 184.406 12.565 184.042 13.209C183.678 13.853 183.496 14.609 183.496 15.477C183.496 16.331 183.678 17.087 184.042 17.745C184.406 18.389 184.896 18.893 185.512 19.257C186.128 19.607 186.821 19.782 187.591 19.782ZM196.405 21V9.975H201.277C202.523 9.975 203.503 10.213 204.217 10.689C204.945 11.165 205.309 11.865 205.309 12.789C205.309 13.685 204.966 14.378 204.28 14.868C203.594 15.344 202.691 15.582 201.571 15.582L201.865 15.141C203.181 15.141 204.147 15.386 204.763 15.876C205.379 16.366 205.687 17.073 205.687 17.997C205.687 18.949 205.337 19.691 204.637 20.223C203.951 20.741 202.88 21 201.424 21H196.405ZM197.854 19.824H201.361C202.299 19.824 203.006 19.677 203.482 19.383C203.972 19.075 204.217 18.585 204.217 17.913C204.217 17.241 204 16.751 203.566 16.443C203.132 16.135 202.446 15.981 201.508 15.981H197.854V19.824ZM197.854 14.868H201.172C202.026 14.868 202.677 14.707 203.125 14.385C203.587 14.063 203.818 13.594 203.818 12.978C203.818 12.362 203.587 11.9 203.125 11.592C202.677 11.284 202.026 11.13 201.172 11.13H197.854V14.868ZM216.028 21V18.564L215.965 18.165V14.091C215.965 13.153 215.699 12.432 215.167 11.928C214.649 11.424 213.872 11.172 212.836 11.172C212.122 11.172 211.443 11.291 210.799 11.529C210.155 11.767 209.609 12.082 209.161 12.474L208.489 11.361C209.049 10.885 209.721 10.521 210.505 10.269C211.289 10.003 212.115 9.87 212.983 9.87C214.411 9.87 215.51 10.227 216.28 10.941C217.064 11.641 217.456 12.712 217.456 14.154V21H216.028ZM212.227 21.105C211.401 21.105 210.68 20.972 210.064 20.706C209.462 20.426 209 20.048 208.678 19.572C208.356 19.082 208.195 18.522 208.195 17.892C208.195 17.318 208.328 16.8 208.594 16.338C208.874 15.862 209.322 15.484 209.938 15.204C210.568 14.91 211.408 14.763 212.458 14.763H216.259V15.876H212.5C211.436 15.876 210.694 16.065 210.274 16.443C209.868 16.821 209.665 17.29 209.665 17.85C209.665 18.48 209.91 18.984 210.4 19.362C210.89 19.74 211.576 19.929 212.458 19.929C213.298 19.929 214.019 19.74 214.621 19.362C215.237 18.97 215.685 18.41 215.965 17.682L216.301 18.711C216.021 19.439 215.531 20.02 214.831 20.454C214.145 20.888 213.277 21.105 212.227 21.105ZM229.42 25.074C228.65 23.8 228.048 22.33 227.614 20.664C227.194 18.984 226.984 17.178 226.984 15.246C226.984 13.314 227.194 11.508 227.614 9.828C228.048 8.134 228.65 6.664 229.42 5.418H230.848C230.022 6.86 229.413 8.393 229.021 10.017C228.643 11.627 228.454 13.37 228.454 15.246C228.454 17.122 228.643 18.872 229.021 20.496C229.413 22.106 230.022 23.632 230.848 25.074H229.42ZM241.917 21L237.381 15.54L238.62 14.805L243.681 21H241.917ZM233.832 21V9.975H235.323V21H233.832ZM234.861 16.086V14.805H238.41V16.086H234.861ZM238.746 15.645L237.36 15.435L241.749 9.975H243.366L238.746 15.645ZM245.813 25.179C245.295 25.179 244.798 25.095 244.322 24.927C243.86 24.759 243.461 24.507 243.125 24.171L243.818 23.058C244.098 23.324 244.399 23.527 244.721 23.667C245.057 23.821 245.428 23.898 245.834 23.898C246.324 23.898 246.744 23.758 247.094 23.478C247.458 23.212 247.801 22.736 248.123 22.05L248.837 20.433L249.005 20.202L253.541 9.975H255.011L249.488 22.323C249.18 23.037 248.837 23.604 248.459 24.024C248.095 24.444 247.696 24.738 247.262 24.906C246.828 25.088 246.345 25.179 245.813 25.179ZM248.753 21.315L243.671 9.975H245.225L249.719 20.097L248.753 21.315ZM263.025 21.105C262.073 21.105 261.212 20.888 260.442 20.454C259.672 20.006 259.056 19.369 258.594 18.543C258.146 17.703 257.922 16.681 257.922 15.477C257.922 14.273 258.146 13.258 258.594 12.432C259.042 11.592 259.651 10.955 260.421 10.521C261.191 10.087 262.059 9.87 263.025 9.87C264.075 9.87 265.013 10.108 265.839 10.584C266.679 11.046 267.337 11.704 267.813 12.558C268.289 13.398 268.527 14.371 268.527 15.477C268.527 16.597 268.289 17.577 267.813 18.417C267.337 19.257 266.679 19.915 265.839 20.391C265.013 20.867 264.075 21.105 263.025 21.105ZM257.334 25.074V9.975H258.762V13.293L258.615 15.498L258.825 17.724V25.074H257.334ZM262.92 19.782C263.704 19.782 264.404 19.607 265.02 19.257C265.636 18.893 266.126 18.389 266.49 17.745C266.854 17.087 267.036 16.331 267.036 15.477C267.036 14.623 266.854 13.874 266.49 13.23C266.126 12.586 265.636 12.082 265.02 11.718C264.404 11.354 263.704 11.172 262.92 11.172C262.136 11.172 261.429 11.354 260.799 11.718C260.183 12.082 259.693 12.586 259.329 13.23C258.979 13.874 258.804 14.623 258.804 15.477C258.804 16.331 258.979 17.087 259.329 17.745C259.693 18.389 260.183 18.893 260.799 19.257C261.429 19.607 262.136 19.782 262.92 19.782ZM278.515 21V18.564L278.452 18.165V14.091C278.452 13.153 278.186 12.432 277.654 11.928C277.136 11.424 276.359 11.172 275.323 11.172C274.609 11.172 273.93 11.291 273.286 11.529C272.642 11.767 272.096 12.082 271.648 12.474L270.976 11.361C271.536 10.885 272.208 10.521 272.992 10.269C273.776 10.003 274.602 9.87 275.47 9.87C276.898 9.87 277.997 10.227 278.767 10.941C279.551 11.641 279.943 12.712 279.943 14.154V21H278.515ZM274.714 21.105C273.888 21.105 273.167 20.972 272.551 20.706C271.949 20.426 271.487 20.048 271.165 19.572C270.843 19.082 270.682 18.522 270.682 17.892C270.682 17.318 270.815 16.8 271.081 16.338C271.361 15.862 271.809 15.484 272.425 15.204C273.055 14.91 273.895 14.763 274.945 14.763H278.746V15.876H274.987C273.923 15.876 273.181 16.065 272.761 16.443C272.355 16.821 272.152 17.29 272.152 17.85C272.152 18.48 272.397 18.984 272.887 19.362C273.377 19.74 274.063 19.929 274.945 19.929C275.785 19.929 276.506 19.74 277.108 19.362C277.724 18.97 278.172 18.41 278.452 17.682L278.788 18.711C278.508 19.439 278.018 20.02 277.318 20.454C276.632 20.888 275.764 21.105 274.714 21.105ZM286.012 21V10.878L286.39 11.277H281.833V9.975H291.682V11.277H287.125L287.503 10.878V21H286.012ZM297.861 21.105C296.797 21.105 295.838 20.867 294.984 20.391C294.144 19.901 293.479 19.236 292.989 18.396C292.499 17.542 292.254 16.569 292.254 15.477C292.254 14.371 292.499 13.398 292.989 12.558C293.479 11.718 294.144 11.06 294.984 10.584C295.824 10.108 296.783 9.87 297.861 9.87C298.953 9.87 299.919 10.108 300.759 10.584C301.613 11.06 302.278 11.718 302.754 12.558C303.244 13.398 303.489 14.371 303.489 15.477C303.489 16.569 303.244 17.542 302.754 18.396C302.278 19.236 301.613 19.901 300.759 20.391C299.905 20.867 298.939 21.105 297.861 21.105ZM297.861 19.782C298.659 19.782 299.366 19.607 299.982 19.257C300.598 18.893 301.081 18.389 301.431 17.745C301.795 17.087 301.977 16.331 301.977 15.477C301.977 14.609 301.795 13.853 301.431 13.209C301.081 12.565 300.598 12.068 299.982 11.718C299.366 11.354 298.666 11.172 297.882 11.172C297.098 11.172 296.398 11.354 295.782 11.718C295.166 12.068 294.676 12.565 294.312 13.209C293.948 13.853 293.766 14.609 293.766 15.477C293.766 16.331 293.948 17.087 294.312 17.745C294.676 18.389 295.166 18.893 295.782 19.257C296.398 19.607 297.091 19.782 297.861 19.782ZM312.367 21.105C311.415 21.105 310.554 20.888 309.784 20.454C309.014 20.006 308.398 19.369 307.936 18.543C307.488 17.703 307.264 16.681 307.264 15.477C307.264 14.273 307.488 13.258 307.936 12.432C308.384 11.592 308.993 10.955 309.763 10.521C310.533 10.087 311.401 9.87 312.367 9.87C313.417 9.87 314.355 10.108 315.181 10.584C316.021 11.046 316.679 11.704 317.155 12.558C317.631 13.398 317.869 14.371 317.869 15.477C317.869 16.597 317.631 17.577 317.155 18.417C316.679 19.257 316.021 19.915 315.181 20.391C314.355 20.867 313.417 21.105 312.367 21.105ZM306.676 25.074V9.975H308.104V13.293L307.957 15.498L308.167 17.724V25.074H306.676ZM312.262 19.782C313.046 19.782 313.746 19.607 314.362 19.257C314.978 18.893 315.468 18.389 315.832 17.745C316.196 17.087 316.378 16.331 316.378 15.477C316.378 14.623 316.196 13.874 315.832 13.23C315.468 12.586 314.978 12.082 314.362 11.718C313.746 11.354 313.046 11.172 312.262 11.172C311.478 11.172 310.771 11.354 310.141 11.718C309.525 12.082 309.035 12.586 308.671 13.23C308.321 13.874 308.146 14.623 308.146 15.477C308.146 16.331 308.321 17.087 308.671 17.745C309.035 18.389 309.525 18.893 310.141 19.257C310.771 19.607 311.478 19.782 312.262 19.782ZM319.791 25.074C320.631 23.632 321.24 22.106 321.618 20.496C322.01 18.872 322.206 17.122 322.206 15.246C322.206 13.37 322.01 11.627 321.618 10.017C321.24 8.393 320.631 6.86 319.791 5.418H321.219C322.017 6.664 322.626 8.134 323.046 9.828C323.466 11.508 323.676 13.314 323.676 15.246C323.676 17.178 323.466 18.984 323.046 20.664C322.626 22.33 322.017 23.8 321.219 25.074H319.791Z" fill="white"/>
</svg>
