<svg width="426" height="26" viewBox="0 0 426 26" fill="none" xmlns="http://www.w3.org/2000/svg">
<path d="M41.478 19.971L39.777 19.656C40.337 19.684 40.799 19.481 41.163 19.047C41.541 18.613 41.828 18.004 42.024 17.22C42.234 16.436 42.388 15.519 42.486 14.469C42.584 13.419 42.654 12.285 42.696 11.067L42.864 6.3H52.776V20.265H51.243V7.644H44.208L44.082 11.214C44.04 12.32 43.97 13.384 43.872 14.406C43.788 15.414 43.648 16.324 43.452 17.136C43.27 17.934 43.018 18.585 42.696 19.089C42.388 19.593 41.982 19.887 41.478 19.971ZM39.231 24.297L39.252 19.656H54.981V24.297H53.532V21H40.701L40.68 24.297H39.231ZM64.6399 21V18.564L64.5769 18.165V14.091C64.5769 13.153 64.3109 12.432 63.7789 11.928C63.2609 11.424 62.4839 11.172 61.4479 11.172C60.7339 11.172 60.0549 11.291 59.4109 11.529C58.7669 11.767 58.2209 12.082 57.7729 12.474L57.1009 11.361C57.6609 10.885 58.3329 10.521 59.1169 10.269C59.9009 10.003 60.7269 9.87 61.5949 9.87C63.0229 9.87 64.1219 10.227 64.8919 10.941C65.6759 11.641 66.0679 12.712 66.0679 14.154V21H64.6399ZM60.8389 21.105C60.0129 21.105 59.2919 20.972 58.6759 20.706C58.0739 20.426 57.6119 20.048 57.2899 19.572C56.9679 19.082 56.8069 18.522 56.8069 17.892C56.8069 17.318 56.9399 16.8 57.2059 16.338C57.4859 15.862 57.9339 15.484 58.5499 15.204C59.1799 14.91 60.0199 14.763 61.0699 14.763H64.8709V15.876H61.1119C60.0479 15.876 59.3059 16.065 58.8859 16.443C58.4799 16.821 58.2769 17.29 58.2769 17.85C58.2769 18.48 58.5219 18.984 59.0119 19.362C59.5019 19.74 60.1879 19.929 61.0699 19.929C61.9099 19.929 62.6309 19.74 63.2329 19.362C63.8489 18.97 64.2969 18.41 64.5769 17.682L64.9129 18.711C64.6329 19.439 64.1429 20.02 63.4429 20.454C62.7569 20.888 61.8889 21.105 60.8389 21.105ZM70.037 21V9.975H71.528V20.097L71.15 19.698H77.282L76.946 20.097V9.975H78.437V20.097L78.038 19.698H84.191L83.792 20.097V9.975H85.283V21H70.037ZM96.3654 21V18.564L96.3024 18.165V14.091C96.3024 13.153 96.0364 12.432 95.5044 11.928C94.9864 11.424 94.2094 11.172 93.1734 11.172C92.4594 11.172 91.7804 11.291 91.1364 11.529C90.4924 11.767 89.9464 12.082 89.4984 12.474L88.8264 11.361C89.3864 10.885 90.0584 10.521 90.8424 10.269C91.6264 10.003 92.4524 9.87 93.3204 9.87C94.7484 9.87 95.8474 10.227 96.6174 10.941C97.4014 11.641 97.7934 12.712 97.7934 14.154V21H96.3654ZM92.5644 21.105C91.7384 21.105 91.0174 20.972 90.4014 20.706C89.7994 20.426 89.3374 20.048 89.0154 19.572C88.6934 19.082 88.5324 18.522 88.5324 17.892C88.5324 17.318 88.6654 16.8 88.9314 16.338C89.2114 15.862 89.6594 15.484 90.2754 15.204C90.9054 14.91 91.7454 14.763 92.7954 14.763H96.5964V15.876H92.8374C91.7734 15.876 91.0314 16.065 90.6114 16.443C90.2054 16.821 90.0024 17.29 90.0024 17.85C90.0024 18.48 90.2474 18.984 90.7374 19.362C91.2274 19.74 91.9134 19.929 92.7954 19.929C93.6354 19.929 94.3564 19.74 94.9584 19.362C95.5744 18.97 96.0224 18.41 96.3024 17.682L96.6384 18.711C96.3584 19.439 95.8684 20.02 95.1684 20.454C94.4824 20.888 93.6144 21.105 92.5644 21.105ZM110.934 21.126C109.73 21.126 108.631 20.972 107.637 20.664C106.643 20.342 105.838 19.894 105.222 19.32L105.81 18.144C106.384 18.662 107.112 19.068 107.994 19.362C108.876 19.656 109.863 19.803 110.955 19.803C112.467 19.803 113.587 19.537 114.315 19.005C115.043 18.459 115.407 17.731 115.407 16.821C115.407 16.191 115.239 15.666 114.903 15.246C114.581 14.826 114.126 14.518 113.538 14.322C112.964 14.112 112.285 14.007 111.501 14.007H108.162V12.747H111.438C112.488 12.747 113.307 12.537 113.895 12.117C114.483 11.697 114.777 11.081 114.777 10.269C114.777 9.639 114.595 9.121 114.231 8.715C113.881 8.309 113.412 8.015 112.824 7.833C112.25 7.637 111.62 7.539 110.934 7.539C110.416 7.539 109.884 7.588 109.338 7.686C108.806 7.784 108.288 7.924 107.784 8.106C107.294 8.288 106.839 8.505 106.419 8.757L105.936 7.518C106.664 7.084 107.462 6.755 108.33 6.531C109.198 6.307 110.066 6.195 110.934 6.195C111.648 6.195 112.327 6.272 112.971 6.426C113.615 6.58 114.189 6.818 114.693 7.14C115.197 7.462 115.596 7.868 115.89 8.358C116.184 8.848 116.331 9.422 116.331 10.08C116.331 10.766 116.17 11.375 115.848 11.907C115.54 12.439 115.092 12.859 114.504 13.167C113.916 13.475 113.223 13.629 112.425 13.629L112.53 13.146C113.342 13.146 114.084 13.293 114.756 13.587C115.428 13.881 115.96 14.308 116.352 14.868C116.758 15.428 116.961 16.114 116.961 16.926C116.961 17.738 116.73 18.466 116.268 19.11C115.806 19.74 115.127 20.237 114.231 20.601C113.349 20.951 112.25 21.126 110.934 21.126ZM127.148 21V18.564L127.085 18.165V14.091C127.085 13.153 126.819 12.432 126.287 11.928C125.769 11.424 124.992 11.172 123.956 11.172C123.242 11.172 122.563 11.291 121.919 11.529C121.275 11.767 120.729 12.082 120.281 12.474L119.609 11.361C120.169 10.885 120.841 10.521 121.625 10.269C122.409 10.003 123.235 9.87 124.103 9.87C125.531 9.87 126.63 10.227 127.4 10.941C128.184 11.641 128.576 12.712 128.576 14.154V21H127.148ZM123.347 21.105C122.521 21.105 121.8 20.972 121.184 20.706C120.582 20.426 120.12 20.048 119.798 19.572C119.476 19.082 119.315 18.522 119.315 17.892C119.315 17.318 119.448 16.8 119.714 16.338C119.994 15.862 120.442 15.484 121.058 15.204C121.688 14.91 122.528 14.763 123.578 14.763H127.379V15.876H123.62C122.556 15.876 121.814 16.065 121.394 16.443C120.988 16.821 120.785 17.29 120.785 17.85C120.785 18.48 121.03 18.984 121.52 19.362C122.01 19.74 122.696 19.929 123.578 19.929C124.418 19.929 125.139 19.74 125.741 19.362C126.357 18.97 126.805 18.41 127.085 17.682L127.421 18.711C127.141 19.439 126.651 20.02 125.951 20.454C125.265 20.888 124.397 21.105 123.347 21.105ZM138.236 21.105C137.284 21.105 136.423 20.888 135.653 20.454C134.883 20.006 134.267 19.369 133.805 18.543C133.357 17.703 133.133 16.681 133.133 15.477C133.133 14.273 133.357 13.258 133.805 12.432C134.253 11.592 134.862 10.955 135.632 10.521C136.402 10.087 137.27 9.87 138.236 9.87C139.286 9.87 140.224 10.108 141.05 10.584C141.89 11.046 142.548 11.704 143.024 12.558C143.5 13.398 143.738 14.371 143.738 15.477C143.738 16.597 143.5 17.577 143.024 18.417C142.548 19.257 141.89 19.915 141.05 20.391C140.224 20.867 139.286 21.105 138.236 21.105ZM132.545 25.074V9.975H133.973V13.293L133.826 15.498L134.036 17.724V25.074H132.545ZM138.131 19.782C138.915 19.782 139.615 19.607 140.231 19.257C140.847 18.893 141.337 18.389 141.701 17.745C142.065 17.087 142.247 16.331 142.247 15.477C142.247 14.623 142.065 13.874 141.701 13.23C141.337 12.586 140.847 12.082 140.231 11.718C139.615 11.354 138.915 11.172 138.131 11.172C137.347 11.172 136.64 11.354 136.01 11.718C135.394 12.082 134.904 12.586 134.54 13.23C134.19 13.874 134.015 14.623 134.015 15.477C134.015 16.331 134.19 17.087 134.54 17.745C134.904 18.389 135.394 18.893 136.01 19.257C136.64 19.607 137.347 19.782 138.131 19.782ZM151.477 21.105C150.413 21.105 149.454 20.867 148.6 20.391C147.76 19.901 147.095 19.236 146.605 18.396C146.115 17.542 145.87 16.569 145.87 15.477C145.87 14.371 146.115 13.398 146.605 12.558C147.095 11.718 147.76 11.06 148.6 10.584C149.44 10.108 150.399 9.87 151.477 9.87C152.569 9.87 153.535 10.108 154.375 10.584C155.229 11.06 155.894 11.718 156.37 12.558C156.86 13.398 157.105 14.371 157.105 15.477C157.105 16.569 156.86 17.542 156.37 18.396C155.894 19.236 155.229 19.901 154.375 20.391C153.521 20.867 152.555 21.105 151.477 21.105ZM151.477 19.782C152.275 19.782 152.982 19.607 153.598 19.257C154.214 18.893 154.697 18.389 155.047 17.745C155.411 17.087 155.593 16.331 155.593 15.477C155.593 14.609 155.411 13.853 155.047 13.209C154.697 12.565 154.214 12.068 153.598 11.718C152.982 11.354 152.282 11.172 151.498 11.172C150.714 11.172 150.014 11.354 149.398 11.718C148.782 12.068 148.292 12.565 147.928 13.209C147.564 13.853 147.382 14.609 147.382 15.477C147.382 16.331 147.564 17.087 147.928 17.745C148.292 18.389 148.782 18.893 149.398 19.257C150.014 19.607 150.707 19.782 151.477 19.782ZM160.251 19.971L158.76 19.698C159.194 19.712 159.551 19.558 159.831 19.236C160.111 18.9 160.328 18.445 160.482 17.871C160.636 17.297 160.748 16.646 160.818 15.918C160.888 15.176 160.944 14.42 160.986 13.65L161.133 9.975H169.281V20.286H167.79V11.277H162.477L162.351 13.734C162.323 14.476 162.274 15.204 162.204 15.918C162.148 16.632 162.043 17.29 161.889 17.892C161.749 18.48 161.546 18.963 161.28 19.341C161.014 19.705 160.671 19.915 160.251 19.971ZM158.298 23.667V19.698H171.003V23.667H169.596V21H159.705V23.667H158.298ZM173.909 21V9.975H175.4V18.732L182.771 9.975H184.094V21H182.603V12.222L175.253 21H173.909ZM188.367 21V9.975H189.858V14.847H196.809V9.975H198.3V21H196.809V16.128H189.858V21H188.367ZM209.384 21V18.564L209.321 18.165V14.091C209.321 13.153 209.055 12.432 208.523 11.928C208.005 11.424 207.228 11.172 206.192 11.172C205.478 11.172 204.799 11.291 204.155 11.529C203.511 11.767 202.965 12.082 202.517 12.474L201.845 11.361C202.405 10.885 203.077 10.521 203.861 10.269C204.645 10.003 205.471 9.87 206.339 9.87C207.767 9.87 208.866 10.227 209.636 10.941C210.42 11.641 210.812 12.712 210.812 14.154V21H209.384ZM205.583 21.105C204.757 21.105 204.036 20.972 203.42 20.706C202.818 20.426 202.356 20.048 202.034 19.572C201.712 19.082 201.551 18.522 201.551 17.892C201.551 17.318 201.684 16.8 201.95 16.338C202.23 15.862 202.678 15.484 203.294 15.204C203.924 14.91 204.764 14.763 205.814 14.763H209.615V15.876H205.856C204.792 15.876 204.05 16.065 203.63 16.443C203.224 16.821 203.021 17.29 203.021 17.85C203.021 18.48 203.266 18.984 203.756 19.362C204.246 19.74 204.932 19.929 205.814 19.929C206.654 19.929 207.375 19.74 207.977 19.362C208.593 18.97 209.041 18.41 209.321 17.682L209.657 18.711C209.377 19.439 208.887 20.02 208.187 20.454C207.501 20.888 206.633 21.105 205.583 21.105ZM222.776 25.074C222.006 23.8 221.404 22.33 220.97 20.664C220.55 18.984 220.34 17.178 220.34 15.246C220.34 13.314 220.55 11.508 220.97 9.828C221.404 8.134 222.006 6.664 222.776 5.418H224.204C223.378 6.86 222.769 8.393 222.377 10.017C221.999 11.627 221.81 13.37 221.81 15.246C221.81 17.122 221.999 18.872 222.377 20.496C222.769 22.106 223.378 23.632 224.204 25.074H222.776ZM235.273 21L230.737 15.54L231.976 14.805L237.037 21H235.273ZM227.188 21V9.975H228.679V21H227.188ZM228.217 16.086V14.805H231.766V16.086H228.217ZM232.102 15.645L230.716 15.435L235.105 9.975H236.722L232.102 15.645ZM239.169 25.179C238.651 25.179 238.154 25.095 237.678 24.927C237.216 24.759 236.817 24.507 236.481 24.171L237.174 23.058C237.454 23.324 237.755 23.527 238.077 23.667C238.413 23.821 238.784 23.898 239.19 23.898C239.68 23.898 240.1 23.758 240.45 23.478C240.814 23.212 241.157 22.736 241.479 22.05L242.193 20.433L242.361 20.202L246.897 9.975H248.367L242.844 22.323C242.536 23.037 242.193 23.604 241.815 24.024C241.451 24.444 241.052 24.738 240.618 24.906C240.184 25.088 239.701 25.179 239.169 25.179ZM242.109 21.315L237.027 9.975H238.581L243.075 20.097L242.109 21.315ZM256.381 21.105C255.429 21.105 254.568 20.888 253.798 20.454C253.028 20.006 252.412 19.369 251.95 18.543C251.502 17.703 251.278 16.681 251.278 15.477C251.278 14.273 251.502 13.258 251.95 12.432C252.398 11.592 253.007 10.955 253.777 10.521C254.547 10.087 255.415 9.87 256.381 9.87C257.431 9.87 258.369 10.108 259.195 10.584C260.035 11.046 260.693 11.704 261.169 12.558C261.645 13.398 261.883 14.371 261.883 15.477C261.883 16.597 261.645 17.577 261.169 18.417C260.693 19.257 260.035 19.915 259.195 20.391C258.369 20.867 257.431 21.105 256.381 21.105ZM250.69 25.074V9.975H252.118V13.293L251.971 15.498L252.181 17.724V25.074H250.69ZM256.276 19.782C257.06 19.782 257.76 19.607 258.376 19.257C258.992 18.893 259.482 18.389 259.846 17.745C260.21 17.087 260.392 16.331 260.392 15.477C260.392 14.623 260.21 13.874 259.846 13.23C259.482 12.586 258.992 12.082 258.376 11.718C257.76 11.354 257.06 11.172 256.276 11.172C255.492 11.172 254.785 11.354 254.155 11.718C253.539 12.082 253.049 12.586 252.685 13.23C252.335 13.874 252.16 14.623 252.16 15.477C252.16 16.331 252.335 17.087 252.685 17.745C253.049 18.389 253.539 18.893 254.155 19.257C254.785 19.607 255.492 19.782 256.276 19.782ZM271.871 21V18.564L271.808 18.165V14.091C271.808 13.153 271.542 12.432 271.01 11.928C270.492 11.424 269.715 11.172 268.679 11.172C267.965 11.172 267.286 11.291 266.642 11.529C265.998 11.767 265.452 12.082 265.004 12.474L264.332 11.361C264.892 10.885 265.564 10.521 266.348 10.269C267.132 10.003 267.958 9.87 268.826 9.87C270.254 9.87 271.353 10.227 272.123 10.941C272.907 11.641 273.299 12.712 273.299 14.154V21H271.871ZM268.07 21.105C267.244 21.105 266.523 20.972 265.907 20.706C265.305 20.426 264.843 20.048 264.521 19.572C264.199 19.082 264.038 18.522 264.038 17.892C264.038 17.318 264.171 16.8 264.437 16.338C264.717 15.862 265.165 15.484 265.781 15.204C266.411 14.91 267.251 14.763 268.301 14.763H272.102V15.876H268.343C267.279 15.876 266.537 16.065 266.117 16.443C265.711 16.821 265.508 17.29 265.508 17.85C265.508 18.48 265.753 18.984 266.243 19.362C266.733 19.74 267.419 19.929 268.301 19.929C269.141 19.929 269.862 19.74 270.464 19.362C271.08 18.97 271.528 18.41 271.808 17.682L272.144 18.711C271.864 19.439 271.374 20.02 270.674 20.454C269.988 20.888 269.12 21.105 268.07 21.105ZM279.368 21V10.878L279.746 11.277H275.189V9.975H285.038V11.277H280.481L280.859 10.878V21H279.368ZM291.218 21.105C290.154 21.105 289.195 20.867 288.341 20.391C287.501 19.901 286.836 19.236 286.346 18.396C285.856 17.542 285.611 16.569 285.611 15.477C285.611 14.371 285.856 13.398 286.346 12.558C286.836 11.718 287.501 11.06 288.341 10.584C289.181 10.108 290.14 9.87 291.218 9.87C292.31 9.87 293.276 10.108 294.116 10.584C294.97 11.06 295.635 11.718 296.111 12.558C296.601 13.398 296.846 14.371 296.846 15.477C296.846 16.569 296.601 17.542 296.111 18.396C295.635 19.236 294.97 19.901 294.116 20.391C293.262 20.867 292.296 21.105 291.218 21.105ZM291.218 19.782C292.016 19.782 292.723 19.607 293.339 19.257C293.955 18.893 294.438 18.389 294.788 17.745C295.152 17.087 295.334 16.331 295.334 15.477C295.334 14.609 295.152 13.853 294.788 13.209C294.438 12.565 293.955 12.068 293.339 11.718C292.723 11.354 292.023 11.172 291.239 11.172C290.455 11.172 289.755 11.354 289.139 11.718C288.523 12.068 288.033 12.565 287.669 13.209C287.305 13.853 287.123 14.609 287.123 15.477C287.123 16.331 287.305 17.087 287.669 17.745C288.033 18.389 288.523 18.893 289.139 19.257C289.755 19.607 290.448 19.782 291.218 19.782ZM305.723 21.105C304.771 21.105 303.91 20.888 303.14 20.454C302.37 20.006 301.754 19.369 301.292 18.543C300.844 17.703 300.62 16.681 300.62 15.477C300.62 14.273 300.844 13.258 301.292 12.432C301.74 11.592 302.349 10.955 303.119 10.521C303.889 10.087 304.757 9.87 305.723 9.87C306.773 9.87 307.711 10.108 308.537 10.584C309.377 11.046 310.035 11.704 310.511 12.558C310.987 13.398 311.225 14.371 311.225 15.477C311.225 16.597 310.987 17.577 310.511 18.417C310.035 19.257 309.377 19.915 308.537 20.391C307.711 20.867 306.773 21.105 305.723 21.105ZM300.032 25.074V9.975H301.46V13.293L301.313 15.498L301.523 17.724V25.074H300.032ZM305.618 19.782C306.402 19.782 307.102 19.607 307.718 19.257C308.334 18.893 308.824 18.389 309.188 17.745C309.552 17.087 309.734 16.331 309.734 15.477C309.734 14.623 309.552 13.874 309.188 13.23C308.824 12.586 308.334 12.082 307.718 11.718C307.102 11.354 306.402 11.172 305.618 11.172C304.834 11.172 304.127 11.354 303.497 11.718C302.881 12.082 302.391 12.586 302.027 13.23C301.677 13.874 301.502 14.623 301.502 15.477C301.502 16.331 301.677 17.087 302.027 17.745C302.391 18.389 302.881 18.893 303.497 19.257C304.127 19.607 304.834 19.782 305.618 19.782ZM313.148 25.074C313.988 23.632 314.597 22.106 314.975 20.496C315.367 18.872 315.563 17.122 315.563 15.246C315.563 13.37 315.367 11.627 314.975 10.017C314.597 8.393 313.988 6.86 313.148 5.418H314.576C315.374 6.664 315.983 8.134 316.403 9.828C316.823 11.508 317.033 13.314 317.033 15.246C317.033 17.178 316.823 18.984 316.403 20.664C315.983 22.33 315.374 23.8 314.576 25.074H313.148Z" fill="white"/>
</svg>
