<svg width="426" height="26" viewBox="0 0 426 26" fill="none" xmlns="http://www.w3.org/2000/svg">
<path d="M150.478 21V6.3H152.011V18.48L161.419 6.3H162.826V21H161.293V8.841L151.885 21H150.478ZM166.485 21.126C166.317 21.126 166.142 21.112 165.96 21.084C165.792 21.056 165.61 21.021 165.414 20.979L165.519 19.698C165.617 19.712 165.708 19.733 165.792 19.761C165.89 19.775 165.974 19.782 166.044 19.782C166.492 19.782 166.849 19.614 167.115 19.278C167.395 18.942 167.605 18.494 167.745 17.934C167.885 17.374 167.983 16.744 168.039 16.044C168.095 15.33 168.144 14.616 168.186 13.902L168.375 9.975H176.46V21H174.969V10.836L175.347 11.277H169.341L169.698 10.815L169.53 14.007C169.488 14.959 169.411 15.869 169.299 16.737C169.201 17.605 169.04 18.368 168.816 19.026C168.606 19.684 168.312 20.202 167.934 20.58C167.556 20.944 167.073 21.126 166.485 21.126ZM185.15 21.021L180.698 21V9.975H182.189V13.818L185.444 13.86C186.83 13.874 187.88 14.182 188.594 14.784C189.322 15.386 189.686 16.254 189.686 17.388C189.686 18.564 189.294 19.467 188.51 20.097C187.74 20.727 186.62 21.035 185.15 21.021ZM185.066 19.887C186.088 19.901 186.858 19.698 187.376 19.278C187.908 18.844 188.174 18.214 188.174 17.388C188.174 16.562 187.915 15.96 187.397 15.582C186.879 15.19 186.102 14.987 185.066 14.973L182.189 14.931V19.845L185.066 19.887ZM198.83 21V17.031L199.103 17.346H195.365C193.951 17.346 192.845 17.038 192.047 16.422C191.249 15.806 190.85 14.91 190.85 13.734C190.85 12.474 191.277 11.536 192.131 10.92C192.985 10.29 194.126 9.975 195.554 9.975H200.195V21H198.83ZM190.766 21L193.79 16.758H195.344L192.383 21H190.766ZM198.83 16.59V10.836L199.103 11.277H195.596C194.574 11.277 193.776 11.473 193.202 11.865C192.642 12.257 192.362 12.894 192.362 13.776C192.362 15.414 193.405 16.233 195.491 16.233H199.103L198.83 16.59ZM209.228 21.126C209.032 21.126 208.843 21.112 208.661 21.084C208.479 21.07 208.276 21.035 208.052 20.979L208.178 19.593C208.416 19.649 208.647 19.677 208.871 19.677C209.501 19.677 210.005 19.432 210.383 18.942C210.775 18.438 211.069 17.668 211.265 16.632C211.461 15.582 211.587 14.238 211.643 12.6L211.853 6.3H221.828V21H220.295V7.224L220.694 7.644H212.84L213.218 7.203L213.029 12.558C212.973 14.028 212.868 15.302 212.714 16.38C212.56 17.444 212.336 18.333 212.042 19.047C211.748 19.747 211.37 20.272 210.908 20.622C210.446 20.958 209.886 21.126 209.228 21.126ZM233.277 21V18.564L233.214 18.165V14.091C233.214 13.153 232.948 12.432 232.416 11.928C231.898 11.424 231.121 11.172 230.085 11.172C229.371 11.172 228.692 11.291 228.048 11.529C227.404 11.767 226.858 12.082 226.41 12.474L225.738 11.361C226.298 10.885 226.97 10.521 227.754 10.269C228.538 10.003 229.364 9.87 230.232 9.87C231.66 9.87 232.759 10.227 233.529 10.941C234.313 11.641 234.705 12.712 234.705 14.154V21H233.277ZM229.476 21.105C228.65 21.105 227.929 20.972 227.313 20.706C226.711 20.426 226.249 20.048 225.927 19.572C225.605 19.082 225.444 18.522 225.444 17.892C225.444 17.318 225.577 16.8 225.843 16.338C226.123 15.862 226.571 15.484 227.187 15.204C227.817 14.91 228.657 14.763 229.707 14.763H233.508V15.876H229.749C228.685 15.876 227.943 16.065 227.523 16.443C227.117 16.821 226.914 17.29 226.914 17.85C226.914 18.48 227.159 18.984 227.649 19.362C228.139 19.74 228.825 19.929 229.707 19.929C230.547 19.929 231.268 19.74 231.87 19.362C232.486 18.97 232.934 18.41 233.214 17.682L233.55 18.711C233.27 19.439 232.78 20.02 232.08 20.454C231.394 20.888 230.526 21.105 229.476 21.105ZM238.674 21V9.975H240.165V14.847H247.116V9.975H248.607V21H247.116V16.128H240.165V21H238.674ZM252.845 21V9.975H260.657V11.277H253.958L254.336 10.899V21H252.845ZM268.665 21V6.3H279.417V7.623H270.198V12.432H275.007C276.743 12.432 278.059 12.789 278.955 13.503C279.865 14.203 280.32 15.239 280.32 16.611C280.32 18.025 279.83 19.11 278.85 19.866C277.884 20.622 276.491 21 274.671 21H268.665ZM270.198 19.761H274.65C276.008 19.761 277.03 19.502 277.716 18.984C278.416 18.452 278.766 17.682 278.766 16.674C278.766 14.672 277.394 13.671 274.65 13.671H270.198V19.761ZM282.243 21V19.929L288.354 13.944C288.914 13.398 289.334 12.922 289.614 12.516C289.894 12.096 290.083 11.704 290.181 11.34C290.279 10.976 290.328 10.633 290.328 10.311C290.328 9.457 290.034 8.785 289.446 8.295C288.872 7.805 288.018 7.56 286.884 7.56C286.016 7.56 285.246 7.693 284.574 7.959C283.916 8.225 283.349 8.638 282.873 9.198L281.802 8.274C282.376 7.602 283.111 7.084 284.007 6.72C284.903 6.356 285.904 6.174 287.01 6.174C288.004 6.174 288.865 6.335 289.593 6.657C290.321 6.965 290.881 7.42 291.273 8.022C291.679 8.624 291.882 9.331 291.882 10.143C291.882 10.619 291.812 11.088 291.672 11.55C291.546 12.012 291.308 12.502 290.958 13.02C290.622 13.524 290.125 14.098 289.467 14.742L283.86 20.244L283.44 19.656H292.554V21H282.243ZM299.092 21.126C298.042 21.126 297.041 20.958 296.089 20.622C295.137 20.272 294.381 19.81 293.821 19.236L294.556 18.039C295.018 18.529 295.648 18.935 296.446 19.257C297.258 19.579 298.133 19.74 299.071 19.74C300.317 19.74 301.262 19.467 301.906 18.921C302.564 18.361 302.893 17.633 302.893 16.737C302.893 16.107 302.739 15.568 302.431 15.12C302.137 14.658 301.633 14.301 300.919 14.049C300.205 13.797 299.225 13.671 297.979 13.671H294.85L295.606 6.3H303.649V7.644H296.215L296.992 6.909L296.341 13.083L295.564 12.327H298.315C299.799 12.327 300.989 12.509 301.885 12.873C302.781 13.237 303.425 13.748 303.817 14.406C304.223 15.05 304.426 15.806 304.426 16.674C304.426 17.5 304.23 18.256 303.838 18.942C303.446 19.614 302.858 20.146 302.074 20.538C301.29 20.93 300.296 21.126 299.092 21.126ZM307.732 19.971L306.031 19.656C306.591 19.684 307.053 19.481 307.417 19.047C307.795 18.613 308.082 18.004 308.278 17.22C308.488 16.436 308.642 15.519 308.74 14.469C308.838 13.419 308.908 12.285 308.95 11.067L309.118 6.3H319.03V20.265H317.497V7.644H310.462L310.336 11.214C310.294 12.32 310.224 13.384 310.126 14.406C310.042 15.414 309.902 16.324 309.706 17.136C309.524 17.934 309.272 18.585 308.95 19.089C308.642 19.593 308.236 19.887 307.732 19.971ZM305.485 24.297L305.506 19.656H321.235V24.297H319.786V21H306.955L306.934 24.297H305.485ZM327.723 21.126C326.519 21.126 325.42 20.972 324.426 20.664C323.432 20.342 322.627 19.894 322.011 19.32L322.599 18.144C323.173 18.662 323.901 19.068 324.783 19.362C325.665 19.656 326.652 19.803 327.744 19.803C329.256 19.803 330.376 19.537 331.104 19.005C331.832 18.459 332.196 17.731 332.196 16.821C332.196 16.191 332.028 15.666 331.692 15.246C331.37 14.826 330.915 14.518 330.327 14.322C329.753 14.112 329.074 14.007 328.29 14.007H324.951V12.747H328.227C329.277 12.747 330.096 12.537 330.684 12.117C331.272 11.697 331.566 11.081 331.566 10.269C331.566 9.639 331.384 9.121 331.02 8.715C330.67 8.309 330.201 8.015 329.613 7.833C329.039 7.637 328.409 7.539 327.723 7.539C327.205 7.539 326.673 7.588 326.127 7.686C325.595 7.784 325.077 7.924 324.573 8.106C324.083 8.288 323.628 8.505 323.208 8.757L322.725 7.518C323.453 7.084 324.251 6.755 325.119 6.531C325.987 6.307 326.855 6.195 327.723 6.195C328.437 6.195 329.116 6.272 329.76 6.426C330.404 6.58 330.978 6.818 331.482 7.14C331.986 7.462 332.385 7.868 332.679 8.358C332.973 8.848 333.12 9.422 333.12 10.08C333.12 10.766 332.959 11.375 332.637 11.907C332.329 12.439 331.881 12.859 331.293 13.167C330.705 13.475 330.012 13.629 329.214 13.629L329.319 13.146C330.131 13.146 330.873 13.293 331.545 13.587C332.217 13.881 332.749 14.308 333.141 14.868C333.547 15.428 333.75 16.114 333.75 16.926C333.75 17.738 333.519 18.466 333.057 19.11C332.595 19.74 331.916 20.237 331.02 20.601C330.138 20.951 329.039 21.126 327.723 21.126ZM341.921 21.126C340.787 21.126 339.779 20.832 338.897 20.244C338.015 19.642 337.322 18.788 336.818 17.682C336.314 16.562 336.062 15.218 336.062 13.65C336.062 12.082 336.314 10.745 336.818 9.639C337.322 8.519 338.015 7.665 338.897 7.077C339.779 6.475 340.787 6.174 341.921 6.174C343.055 6.174 344.063 6.475 344.945 7.077C345.827 7.665 346.52 8.519 347.024 9.639C347.542 10.745 347.801 12.082 347.801 13.65C347.801 15.218 347.542 16.562 347.024 17.682C346.52 18.788 345.827 19.642 344.945 20.244C344.063 20.832 343.055 21.126 341.921 21.126ZM341.921 19.74C342.789 19.74 343.545 19.509 344.189 19.047C344.833 18.571 345.337 17.885 345.701 16.989C346.065 16.079 346.247 14.966 346.247 13.65C346.247 12.334 346.065 11.228 345.701 10.332C345.337 9.422 344.833 8.736 344.189 8.274C343.545 7.798 342.789 7.56 341.921 7.56C341.081 7.56 340.332 7.798 339.674 8.274C339.016 8.736 338.505 9.422 338.141 10.332C337.777 11.228 337.595 12.334 337.595 13.65C337.595 14.966 337.777 16.079 338.141 16.989C338.505 17.885 339.016 18.571 339.674 19.047C340.332 19.509 341.081 19.74 341.921 19.74ZM353.851 21.126C353.193 21.126 352.563 21.063 351.961 20.937C351.373 20.811 350.841 20.608 350.365 20.328L350.974 19.11C351.352 19.362 351.786 19.544 352.276 19.656C352.78 19.754 353.298 19.803 353.83 19.803C355.412 19.803 356.672 19.299 357.61 18.291C358.562 17.283 359.038 15.778 359.038 13.776C359.038 13.454 359.017 13.069 358.975 12.621C358.947 12.173 358.87 11.725 358.744 11.277L359.269 11.676C359.129 12.404 358.828 13.027 358.366 13.545C357.918 14.049 357.358 14.434 356.686 14.7C356.028 14.966 355.293 15.099 354.481 15.099C353.515 15.099 352.654 14.917 351.898 14.553C351.156 14.189 350.575 13.678 350.155 13.02C349.735 12.362 349.525 11.585 349.525 10.689C349.525 9.765 349.742 8.967 350.176 8.295C350.61 7.623 351.205 7.105 351.961 6.741C352.731 6.363 353.592 6.174 354.544 6.174C355.846 6.174 356.945 6.468 357.841 7.056C358.737 7.63 359.416 8.463 359.878 9.555C360.34 10.647 360.571 11.97 360.571 13.524C360.571 15.176 360.284 16.569 359.71 17.703C359.15 18.837 358.366 19.691 357.358 20.265C356.35 20.839 355.181 21.126 353.851 21.126ZM354.712 13.818C355.468 13.818 356.126 13.678 356.686 13.398C357.26 13.118 357.701 12.733 358.009 12.243C358.331 11.753 358.492 11.207 358.492 10.605C358.492 10.059 358.345 9.548 358.051 9.072C357.757 8.596 357.323 8.211 356.749 7.917C356.175 7.609 355.461 7.455 354.607 7.455C353.907 7.455 353.284 7.588 352.738 7.854C352.206 8.106 351.786 8.47 351.478 8.946C351.17 9.422 351.016 9.989 351.016 10.647C351.016 11.613 351.345 12.383 352.003 12.957C352.675 13.531 353.578 13.818 354.712 13.818Z" fill="white"/>
</svg>
