<svg width="1540" height="311" viewBox="0 0 1540 311" fill="none" xmlns="http://www.w3.org/2000/svg">
<g filter="url(#filter0_f_633_68492)">
<path d="M192.5 75L200.811 147.189L273 155.5L200.811 163.811L192.5 236L184.189 163.811L112 155.5L184.189 147.189L192.5 75Z" fill="white"/>
<path d="M313.5 115L317.681 151.319L354 155.5L317.681 159.681L313.5 196L309.319 159.681L273 155.5L309.319 151.319L313.5 115Z" fill="white"/>
<path d="M71.5 115L75.6811 151.319L112 155.5L75.6811 159.681L71.5 196L67.3189 159.681L31 155.5L67.3189 151.319L71.5 115Z" fill="white"/>
<path d="M111.5 34L115.681 70.3189L152 74.5L115.681 78.6811L111.5 115L107.319 78.6811L71 74.5L107.319 70.3189L111.5 34Z" fill="white"/>
<path d="M272.5 34L276.681 70.3189L313 74.5L276.681 78.6811L272.5 115L268.319 78.6811L232 74.5L268.319 70.3189L272.5 34Z" fill="white"/>
<path d="M111.5 196L115.681 232.319L152 236.5L115.681 240.681L111.5 277L107.319 240.681L71 236.5L107.319 232.319L111.5 196Z" fill="white"/>
<path d="M272.5 196L276.681 232.319L313 236.5L276.681 240.681L272.5 277L268.319 240.681L232 236.5L268.319 232.319L272.5 196Z" fill="white"/>
</g>
<path d="M192.5 75L200.811 147.189L273 155.5L200.811 163.811L192.5 236L184.189 163.811L112 155.5L184.189 147.189L192.5 75Z" fill="white"/>
<path d="M313.5 115L317.681 151.319L354 155.5L317.681 159.681L313.5 196L309.319 159.681L273 155.5L309.319 151.319L313.5 115Z" fill="white"/>
<path d="M71.5 115L75.6811 151.319L112 155.5L75.6811 159.681L71.5 196L67.3189 159.681L31 155.5L67.3189 151.319L71.5 115Z" fill="white"/>
<path d="M111.5 34L115.681 70.3189L152 74.5L115.681 78.6811L111.5 115L107.319 78.6811L71 74.5L107.319 70.3189L111.5 34Z" fill="white"/>
<path d="M272.5 34L276.681 70.3189L313 74.5L276.681 78.6811L272.5 115L268.319 78.6811L232 74.5L268.319 70.3189L272.5 34Z" fill="white"/>
<path d="M111.5 196L115.681 232.319L152 236.5L115.681 240.681L111.5 277L107.319 240.681L71 236.5L107.319 232.319L111.5 196Z" fill="white"/>
<path d="M272.5 196L276.681 232.319L313 236.5L276.681 240.681L272.5 277L268.319 240.681L232 236.5L268.319 232.319L272.5 196Z" fill="white"/>
<g filter="url(#filter1_f_633_68492)">
<path d="M577.5 75L585.811 147.189L658 155.5L585.811 163.811L577.5 236L569.189 163.811L497 155.5L569.189 147.189L577.5 75Z" fill="white"/>
<path d="M698.5 115L702.681 151.319L739 155.5L702.681 159.681L698.5 196L694.319 159.681L658 155.5L694.319 151.319L698.5 115Z" fill="white"/>
<path d="M456.5 115L460.681 151.319L497 155.5L460.681 159.681L456.5 196L452.319 159.681L416 155.5L452.319 151.319L456.5 115Z" fill="white"/>
<path d="M496.5 34L500.681 70.3189L537 74.5L500.681 78.6811L496.5 115L492.319 78.6811L456 74.5L492.319 70.3189L496.5 34Z" fill="white" fill-opacity="0.5"/>
<path d="M657.5 34L661.681 70.3189L698 74.5L661.681 78.6811L657.5 115L653.319 78.6811L617 74.5L653.319 70.3189L657.5 34Z" fill="white" fill-opacity="0.5"/>
<path d="M496.5 196L500.681 232.319L537 236.5L500.681 240.681L496.5 277L492.319 240.681L456 236.5L492.319 232.319L496.5 196Z" fill="white"/>
<path d="M657.5 196L661.681 232.319L698 236.5L661.681 240.681L657.5 277L653.319 240.681L617 236.5L653.319 232.319L657.5 196Z" fill="white"/>
</g>
<path d="M577.5 75L585.811 147.189L658 155.5L585.811 163.811L577.5 236L569.189 163.811L497 155.5L569.189 147.189L577.5 75Z" fill="white"/>
<path d="M698.5 115L702.681 151.319L739 155.5L702.681 159.681L698.5 196L694.319 159.681L658 155.5L694.319 151.319L698.5 115Z" fill="white"/>
<path d="M456.5 115L460.681 151.319L497 155.5L460.681 159.681L456.5 196L452.319 159.681L416 155.5L452.319 151.319L456.5 115Z" fill="white"/>
<path d="M496.5 34L500.681 70.3189L537 74.5L500.681 78.6811L496.5 115L492.319 78.6811L456 74.5L492.319 70.3189L496.5 34Z" fill="white" fill-opacity="0.5"/>
<path d="M657.5 34L661.681 70.3189L698 74.5L661.681 78.6811L657.5 115L653.319 78.6811L617 74.5L653.319 70.3189L657.5 34Z" fill="white" fill-opacity="0.5"/>
<path d="M496.5 196L500.681 232.319L537 236.5L500.681 240.681L496.5 277L492.319 240.681L456 236.5L492.319 232.319L496.5 196Z" fill="white"/>
<path d="M657.5 196L661.681 232.319L698 236.5L661.681 240.681L657.5 277L653.319 240.681L617 236.5L653.319 232.319L657.5 196Z" fill="white"/>
<g filter="url(#filter2_f_633_68492)">
<path d="M962.5 75L970.811 147.189L1043 155.5L970.811 163.811L962.5 236L954.189 163.811L882 155.5L954.189 147.189L962.5 75Z" fill="white"/>
<path d="M1083.5 115L1087.68 151.319L1124 155.5L1087.68 159.681L1083.5 196L1079.32 159.681L1043 155.5L1079.32 151.319L1083.5 115Z" fill="white" fill-opacity="0.5"/>
<path d="M841.5 115L845.681 151.319L882 155.5L845.681 159.681L841.5 196L837.319 159.681L801 155.5L837.319 151.319L841.5 115Z" fill="white" fill-opacity="0.5"/>
<path d="M881.5 34L885.681 70.3189L922 74.5L885.681 78.6811L881.5 115L877.319 78.6811L841 74.5L877.319 70.3189L881.5 34Z" fill="white"/>
<path d="M1042.5 34L1046.68 70.3189L1083 74.5L1046.68 78.6811L1042.5 115L1038.32 78.6811L1002 74.5L1038.32 70.3189L1042.5 34Z" fill="white"/>
<path d="M881.5 196L885.681 232.319L922 236.5L885.681 240.681L881.5 277L877.319 240.681L841 236.5L877.319 232.319L881.5 196Z" fill="white"/>
<path d="M1042.5 196L1046.68 232.319L1083 236.5L1046.68 240.681L1042.5 277L1038.32 240.681L1002 236.5L1038.32 232.319L1042.5 196Z" fill="white"/>
</g>
<path d="M962.5 75L970.811 147.189L1043 155.5L970.811 163.811L962.5 236L954.189 163.811L882 155.5L954.189 147.189L962.5 75Z" fill="white"/>
<path d="M1083.5 115L1087.68 151.319L1124 155.5L1087.68 159.681L1083.5 196L1079.32 159.681L1043 155.5L1079.32 151.319L1083.5 115Z" fill="white" fill-opacity="0.5"/>
<path d="M841.5 115L845.681 151.319L882 155.5L845.681 159.681L841.5 196L837.319 159.681L801 155.5L837.319 151.319L841.5 115Z" fill="white" fill-opacity="0.5"/>
<path d="M881.5 34L885.681 70.3189L922 74.5L885.681 78.6811L881.5 115L877.319 78.6811L841 74.5L877.319 70.3189L881.5 34Z" fill="white"/>
<path d="M1042.5 34L1046.68 70.3189L1083 74.5L1046.68 78.6811L1042.5 115L1038.32 78.6811L1002 74.5L1038.32 70.3189L1042.5 34Z" fill="white"/>
<path d="M881.5 196L885.681 232.319L922 236.5L885.681 240.681L881.5 277L877.319 240.681L841 236.5L877.319 232.319L881.5 196Z" fill="white"/>
<path d="M1042.5 196L1046.68 232.319L1083 236.5L1046.68 240.681L1042.5 277L1038.32 240.681L1002 236.5L1038.32 232.319L1042.5 196Z" fill="white"/>
<g filter="url(#filter3_f_633_68492)">
<path d="M1347.5 75L1355.81 147.189L1428 155.5L1355.81 163.811L1347.5 236L1339.19 163.811L1267 155.5L1339.19 147.189L1347.5 75Z" fill="white"/>
<path d="M1468.5 115L1472.68 151.319L1509 155.5L1472.68 159.681L1468.5 196L1464.32 159.681L1428 155.5L1464.32 151.319L1468.5 115Z" fill="white"/>
<path d="M1226.5 115L1230.68 151.319L1267 155.5L1230.68 159.681L1226.5 196L1222.32 159.681L1186 155.5L1222.32 151.319L1226.5 115Z" fill="white"/>
<path d="M1266.5 34L1270.68 70.3189L1307 74.5L1270.68 78.6811L1266.5 115L1262.32 78.6811L1226 74.5L1262.32 70.3189L1266.5 34Z" fill="white"/>
<path d="M1427.5 34L1431.68 70.3189L1468 74.5L1431.68 78.6811L1427.5 115L1423.32 78.6811L1387 74.5L1423.32 70.3189L1427.5 34Z" fill="white"/>
<path d="M1266.5 196L1270.68 232.319L1307 236.5L1270.68 240.681L1266.5 277L1262.32 240.681L1226 236.5L1262.32 232.319L1266.5 196Z" fill="white" fill-opacity="0.5"/>
<path d="M1427.5 196L1431.68 232.319L1468 236.5L1431.68 240.681L1427.5 277L1423.32 240.681L1387 236.5L1423.32 232.319L1427.5 196Z" fill="white" fill-opacity="0.5"/>
</g>
<path d="M1347.5 75L1355.81 147.189L1428 155.5L1355.81 163.811L1347.5 236L1339.19 163.811L1267 155.5L1339.19 147.189L1347.5 75Z" fill="white"/>
<path d="M1468.5 115L1472.68 151.319L1509 155.5L1472.68 159.681L1468.5 196L1464.32 159.681L1428 155.5L1464.32 151.319L1468.5 115Z" fill="white"/>
<path d="M1226.5 115L1230.68 151.319L1267 155.5L1230.68 159.681L1226.5 196L1222.32 159.681L1186 155.5L1222.32 151.319L1226.5 115Z" fill="white"/>
<path d="M1266.5 34L1270.68 70.3189L1307 74.5L1270.68 78.6811L1266.5 115L1262.32 78.6811L1226 74.5L1262.32 70.3189L1266.5 34Z" fill="white"/>
<path d="M1427.5 34L1431.68 70.3189L1468 74.5L1431.68 78.6811L1427.5 115L1423.32 78.6811L1387 74.5L1423.32 70.3189L1427.5 34Z" fill="white"/>
<path d="M1266.5 196L1270.68 232.319L1307 236.5L1270.68 240.681L1266.5 277L1262.32 240.681L1226 236.5L1262.32 232.319L1266.5 196Z" fill="white" fill-opacity="0.5"/>
<path d="M1427.5 196L1431.68 232.319L1468 236.5L1431.68 240.681L1427.5 277L1423.32 240.681L1387 236.5L1423.32 232.319L1427.5 196Z" fill="white" fill-opacity="0.5"/>
<defs>
<filter id="filter0_f_633_68492" x="11" y="14" width="363" height="283" filterUnits="userSpaceOnUse" color-interpolation-filters="sRGB">
<feFlood flood-opacity="0" result="BackgroundImageFix"/>
<feBlend mode="normal" in="SourceGraphic" in2="BackgroundImageFix" result="shape"/>
<feGaussianBlur stdDeviation="10" result="effect1_foregroundBlur_633_68492"/>
</filter>
<filter id="filter1_f_633_68492" x="396" y="14" width="363" height="283" filterUnits="userSpaceOnUse" color-interpolation-filters="sRGB">
<feFlood flood-opacity="0" result="BackgroundImageFix"/>
<feBlend mode="normal" in="SourceGraphic" in2="BackgroundImageFix" result="shape"/>
<feGaussianBlur stdDeviation="10" result="effect1_foregroundBlur_633_68492"/>
</filter>
<filter id="filter2_f_633_68492" x="781" y="14" width="363" height="283" filterUnits="userSpaceOnUse" color-interpolation-filters="sRGB">
<feFlood flood-opacity="0" result="BackgroundImageFix"/>
<feBlend mode="normal" in="SourceGraphic" in2="BackgroundImageFix" result="shape"/>
<feGaussianBlur stdDeviation="10" result="effect1_foregroundBlur_633_68492"/>
</filter>
<filter id="filter3_f_633_68492" x="1166" y="14" width="363" height="283" filterUnits="userSpaceOnUse" color-interpolation-filters="sRGB">
<feFlood flood-opacity="0" result="BackgroundImageFix"/>
<feBlend mode="normal" in="SourceGraphic" in2="BackgroundImageFix" result="shape"/>
<feGaussianBlur stdDeviation="10" result="effect1_foregroundBlur_633_68492"/>
</filter>
</defs>
</svg>
