<svg width="320" height="270" viewBox="0 0 320 270" fill="none" xmlns="http://www.w3.org/2000/svg">
<g clip-path="url(#clip0_926_90641)">
<g filter="url(#filter0_f_926_90641)">
<path d="M175.224 133.332C72.3271 123.883 43.1603 108.471 -33.0827 29L-33.0827 240.585C44.8133 177.312 74.3933 151.554 175.224 133.332Z" fill="#FF00FB"/>
<path d="M154.218 130.18C257.115 120.731 276.946 108.471 353.189 29L353.189 240.585C275.293 177.312 255.049 148.403 154.218 130.18Z" fill="#FF00FB"/>
</g>
<g filter="url(#filter1_f_926_90641)">
<path d="M-35.4834 47.1194C-5.69433 89.5759 71.8846 125.734 160.637 125.734C245.978 125.734 322.426 92.9748 354.711 47.1194H355.523V222.466H354.916C322.751 176.458 246.159 143.56 160.637 143.56C71.6811 143.56 -6.05003 179.883 -35.6875 222.466H-36V47.1194H-35.4834Z" fill="#90128E"/>
</g>
<g filter="url(#filter2_f_926_90641)">
<path d="M191.562 135.889C264.207 131.798 299.216 123.03 353.043 88.6181L353.043 180.237C298.049 152.839 262.748 143.78 191.562 135.889Z" fill="white"/>
</g>
<g filter="url(#filter3_f_926_90641)">
<path d="M128.399 136.401C55.7541 132.309 20.7446 123.542 -33.0827 89.1298L-33.0827 180.749C21.9116 153.351 57.2129 144.291 128.399 136.401Z" fill="white"/>
</g>
</g>
<defs>
<filter id="filter0_f_926_90641" x="-91.4109" y="-29.3282" width="502.928" height="328.242" filterUnits="userSpaceOnUse" color-interpolation-filters="sRGB">
<feFlood flood-opacity="0" result="BackgroundImageFix"/>
<feBlend mode="normal" in="SourceGraphic" in2="BackgroundImageFix" result="shape"/>
<feGaussianBlur stdDeviation="29.1641" result="effect1_foregroundBlur_926_90641"/>
</filter>
<filter id="filter1_f_926_90641" x="-56.4149" y="26.7045" width="432.353" height="216.176" filterUnits="userSpaceOnUse" color-interpolation-filters="sRGB">
<feFlood flood-opacity="0" result="BackgroundImageFix"/>
<feBlend mode="normal" in="SourceGraphic" in2="BackgroundImageFix" result="shape"/>
<feGaussianBlur stdDeviation="10.2074" result="effect1_foregroundBlur_926_90641"/>
</filter>
<filter id="filter2_f_926_90641" x="177.563" y="74.6194" width="189.479" height="119.617" filterUnits="userSpaceOnUse" color-interpolation-filters="sRGB">
<feFlood flood-opacity="0" result="BackgroundImageFix"/>
<feBlend mode="normal" in="SourceGraphic" in2="BackgroundImageFix" result="shape"/>
<feGaussianBlur stdDeviation="6.99938" result="effect1_foregroundBlur_926_90641"/>
</filter>
<filter id="filter3_f_926_90641" x="-47.0814" y="75.1311" width="189.479" height="119.617" filterUnits="userSpaceOnUse" color-interpolation-filters="sRGB">
<feFlood flood-opacity="0" result="BackgroundImageFix"/>
<feBlend mode="normal" in="SourceGraphic" in2="BackgroundImageFix" result="shape"/>
<feGaussianBlur stdDeviation="6.99938" result="effect1_foregroundBlur_926_90641"/>
</filter>
<clipPath id="clip0_926_90641">
<rect width="320" height="270" fill="white"/>
</clipPath>
</defs>
</svg>
