<svg width="1280" height="1000" viewBox="0 0 1280 1000" fill="none" xmlns="http://www.w3.org/2000/svg">
<g clip-path="url(#clip0_841_88416)">
<g filter="url(#filter0_f_841_88416)">
<path d="M692.526 514.041C342.986 481.978 243.907 429.68 -15.0893 160L-15.0893 878C249.522 663.286 350.005 575.879 692.526 514.041Z" fill="#FF00FB"/>
<path d="M621.17 503.347C970.71 471.283 1038.07 429.68 1297.07 160L1297.07 878C1032.46 663.286 963.691 565.184 621.17 503.347Z" fill="#FF00FB"/>
</g>
<g filter="url(#filter1_f_841_88416)">
<path d="M-23.248 221.486C77.9444 365.56 341.482 488.257 642.973 488.257C932.877 488.257 1192.57 377.094 1302.24 221.486H1305V816.514H1302.94C1193.67 660.387 933.492 548.752 642.973 548.752C340.791 548.752 76.7364 672.012 -23.9414 816.514H-25V221.486H-23.248Z" fill="#90128E"/>
</g>
<g filter="url(#filter2_f_841_88416)">
<path d="M748.025 522.719C994.799 508.835 1113.73 479.084 1296.58 362.309L1296.58 673.212C1109.76 580.239 989.844 549.496 748.025 522.719Z" fill="white"/>
</g>
<g filter="url(#filter3_f_841_88416)">
<path d="M533.461 524.456C286.688 510.572 167.761 480.82 -15.0898 364.046L-15.0899 674.949C171.725 581.975 291.643 551.232 533.461 524.456Z" fill="white"/>
</g>
<g filter="url(#filter4_f_841_88416)">
<path d="M620 519H950L1260.5 354L1280 342.742" stroke="#FF00FB"/>
<path d="M660 519H330L19.5 354L0 342.742" stroke="#FF00FB"/>
<path d="M620 519H950L1260.5 684L1280 695.258" stroke="#FF00FB"/>
<path d="M660 519H330L19.5 684L0 695.258" stroke="#FF00FB"/>
<path d="M640.5 0L329.5 519" stroke="#FF00FB"/>
<path d="M640.5 0L950.5 519" stroke="#FF00FB"/>
</g>
<g filter="url(#filter5_f_841_88416)">
<path d="M620 519H950L1260.5 354L1280 342.742" stroke="#FF00FB"/>
<path d="M660 519H330L19.5 354L0 342.742" stroke="#FF00FB"/>
<path d="M620 519H950L1260.5 684L1280 695.258" stroke="#FF00FB"/>
<path d="M660 519H330L19.5 684L0 695.258" stroke="#FF00FB"/>
<path d="M640.5 0L329.5 519" stroke="#FF00FB"/>
<path d="M640.5 0L950.5 519" stroke="#FF00FB"/>
</g>
<g filter="url(#filter6_f_841_88416)">
<path d="M620 519H950L1260.5 354L1280 342.742" stroke="#FF00FB"/>
<path d="M660 519H330L19.5 354L0 342.742" stroke="#FF00FB"/>
<path d="M620 519H950L1260.5 684L1280 695.258" stroke="#FF00FB"/>
<path d="M660 519H330L19.5 684L0 695.258" stroke="#FF00FB"/>
<path d="M640.5 0L329.5 519" stroke="#FF00FB"/>
<path d="M640.5 0L950.5 519" stroke="#FF00FB"/>
</g>
<path d="M620 519H950L1260.5 354L1280 342.742" stroke="white"/>
<path d="M660 519H330L19.5 354L0 342.742" stroke="white"/>
<path d="M620 519H950L1260.5 684L1280 695.258" stroke="white"/>
<path d="M660 519H330L19.5 684L0 695.258" stroke="white"/>
<path d="M640.5 0L329.5 519" stroke="white"/>
<path d="M640.5 0L950.5 519" stroke="white"/>
</g>
<defs>
<filter id="filter0_f_841_88416" x="-213.308" y="-38.2186" width="1708.6" height="1114.44" filterUnits="userSpaceOnUse" color-interpolation-filters="sRGB">
<feFlood flood-opacity="0" result="BackgroundImageFix"/>
<feBlend mode="normal" in="SourceGraphic" in2="BackgroundImageFix" result="shape"/>
<feGaussianBlur stdDeviation="99.1093" result="effect1_foregroundBlur_841_88416"/>
</filter>
<filter id="filter1_f_841_88416" x="-94.3765" y="152.11" width="1468.75" height="733.78" filterUnits="userSpaceOnUse" color-interpolation-filters="sRGB">
<feFlood flood-opacity="0" result="BackgroundImageFix"/>
<feBlend mode="normal" in="SourceGraphic" in2="BackgroundImageFix" result="shape"/>
<feGaussianBlur stdDeviation="34.6883" result="effect1_foregroundBlur_841_88416"/>
</filter>
<filter id="filter2_f_841_88416" x="700.453" y="314.737" width="643.696" height="406.048" filterUnits="userSpaceOnUse" color-interpolation-filters="sRGB">
<feFlood flood-opacity="0" result="BackgroundImageFix"/>
<feBlend mode="normal" in="SourceGraphic" in2="BackgroundImageFix" result="shape"/>
<feGaussianBlur stdDeviation="23.7862" result="effect1_foregroundBlur_841_88416"/>
</filter>
<filter id="filter3_f_841_88416" x="-62.6623" y="316.473" width="643.696" height="406.048" filterUnits="userSpaceOnUse" color-interpolation-filters="sRGB">
<feFlood flood-opacity="0" result="BackgroundImageFix"/>
<feBlend mode="normal" in="SourceGraphic" in2="BackgroundImageFix" result="shape"/>
<feGaussianBlur stdDeviation="23.7862" result="effect1_foregroundBlur_841_88416"/>
</filter>
<filter id="filter4_f_841_88416" x="-90.25" y="-90.2571" width="1460.5" height="875.948" filterUnits="userSpaceOnUse" color-interpolation-filters="sRGB">
<feFlood flood-opacity="0" result="BackgroundImageFix"/>
<feBlend mode="normal" in="SourceGraphic" in2="BackgroundImageFix" result="shape"/>
<feGaussianBlur stdDeviation="45" result="effect1_foregroundBlur_841_88416"/>
</filter>
<filter id="filter5_f_841_88416" x="-50.25" y="-50.2571" width="1380.5" height="795.948" filterUnits="userSpaceOnUse" color-interpolation-filters="sRGB">
<feFlood flood-opacity="0" result="BackgroundImageFix"/>
<feBlend mode="normal" in="SourceGraphic" in2="BackgroundImageFix" result="shape"/>
<feGaussianBlur stdDeviation="25" result="effect1_foregroundBlur_841_88416"/>
</filter>
<filter id="filter6_f_841_88416" x="-15.25" y="-15.2571" width="1310.5" height="725.948" filterUnits="userSpaceOnUse" color-interpolation-filters="sRGB">
<feFlood flood-opacity="0" result="BackgroundImageFix"/>
<feBlend mode="normal" in="SourceGraphic" in2="BackgroundImageFix" result="shape"/>
<feGaussianBlur stdDeviation="7.5" result="effect1_foregroundBlur_841_88416"/>
</filter>
<clipPath id="clip0_841_88416">
<rect width="1280" height="1000" fill="white"/>
</clipPath>
</defs>
</svg>
