<svg width="211" height="19" viewBox="0 0 211 19" fill="none" xmlns="http://www.w3.org/2000/svg">
<path d="M-2.71723e-05 14.8259V0.125927H1.53297V12.3059L10.941 0.125927H12.348V14.8259H10.815V2.66693L1.40697 14.8259H-2.71723e-05ZM16.0066 14.9519C15.8386 14.9519 15.6636 14.9379 15.4816 14.9099C15.3136 14.8819 15.1316 14.8469 14.9356 14.8049L15.0406 13.5239C15.1386 13.5379 15.2296 13.5589 15.3136 13.5869C15.4116 13.6009 15.4956 13.6079 15.5656 13.6079C16.0136 13.6079 16.3706 13.4399 16.6366 13.1039C16.9166 12.7679 17.1266 12.3199 17.2666 11.7599C17.4066 11.1999 17.5046 10.5699 17.5606 9.86993C17.6166 9.15593 17.6656 8.44193 17.7076 7.72793L17.8966 3.80093H25.9816V14.8259H24.4906V4.66193L24.8686 5.10293H18.8626L19.2196 4.64093L19.0516 7.83293C19.0096 8.78493 18.9326 9.69493 18.8206 10.5629C18.7226 11.4309 18.5616 12.1939 18.3376 12.8519C18.1276 13.5099 17.8336 14.0279 17.4556 14.4059C17.0776 14.7699 16.5946 14.9519 16.0066 14.9519ZM34.6721 14.8469L30.2201 14.8259V3.80093H31.7111V7.64393L34.9661 7.68593C36.3521 7.69993 37.4021 8.00793 38.1161 8.60993C38.8441 9.21193 39.2081 10.0799 39.2081 11.2139C39.2081 12.3899 38.8161 13.2929 38.0321 13.9229C37.2621 14.5529 36.1421 14.8609 34.6721 14.8469ZM34.5881 13.7129C35.6101 13.7269 36.3801 13.5239 36.8981 13.1039C37.4301 12.6699 37.6961 12.0399 37.6961 11.2139C37.6961 10.3879 37.4371 9.78593 36.9191 9.40793C36.4011 9.01593 35.6241 8.81293 34.5881 8.79893L31.7111 8.75693V13.6709L34.5881 13.7129ZM48.3518 14.8259V10.8569L48.6248 11.1719H44.8868C43.4728 11.1719 42.3668 10.8639 41.5688 10.2479C40.7708 9.63193 40.3718 8.73593 40.3718 7.55993C40.3718 6.29993 40.7988 5.36193 41.6528 4.74593C42.5068 4.11593 43.6478 3.80093 45.0758 3.80093H49.7168V14.8259H48.3518ZM40.2878 14.8259L43.3118 10.5839H44.8658L41.9048 14.8259H40.2878ZM48.3518 10.4159V4.66193L48.6248 5.10293H45.1178C44.0958 5.10293 43.2978 5.29893 42.7238 5.69093C42.1638 6.08293 41.8838 6.71993 41.8838 7.60193C41.8838 9.23993 42.9268 10.0589 45.0128 10.0589H48.6248L48.3518 10.4159ZM58.7503 14.9519C58.5543 14.9519 58.3653 14.9379 58.1833 14.9099C58.0013 14.8959 57.7983 14.8609 57.5743 14.8049L57.7003 13.4189C57.9383 13.4749 58.1693 13.5029 58.3933 13.5029C59.0233 13.5029 59.5273 13.2579 59.9053 12.7679C60.2973 12.2639 60.5913 11.4939 60.7873 10.4579C60.9833 9.40793 61.1093 8.06393 61.1653 6.42593L61.3753 0.125927H71.3503V14.8259H69.8173V1.04993L70.2163 1.46993H62.3623L62.7403 1.02893L62.5513 6.38393C62.4953 7.85393 62.3903 9.12793 62.2363 10.2059C62.0823 11.2699 61.8583 12.1589 61.5643 12.8729C61.2703 13.5729 60.8923 14.0979 60.4303 14.4479C59.9683 14.7839 59.4083 14.9519 58.7503 14.9519ZM82.7985 14.8259V12.3899L82.7355 11.9909V7.91693C82.7355 6.97893 82.4695 6.25793 81.9375 5.75393C81.4195 5.24993 80.6425 4.99793 79.6065 4.99793C78.8925 4.99793 78.2135 5.11693 77.5695 5.35493C76.9255 5.59293 76.3795 5.90793 75.9315 6.29993L75.2595 5.18693C75.8195 4.71093 76.4915 4.34693 77.2755 4.09493C78.0595 3.82893 78.8855 3.69593 79.7535 3.69593C81.1815 3.69593 82.2805 4.05293 83.0505 4.76693C83.8345 5.46693 84.2265 6.53793 84.2265 7.97993V14.8259H82.7985ZM78.9975 14.9309C78.1715 14.9309 77.4505 14.7979 76.8345 14.5319C76.2325 14.2519 75.7705 13.8739 75.4485 13.3979C75.1265 12.9079 74.9655 12.3479 74.9655 11.7179C74.9655 11.1439 75.0985 10.6259 75.3645 10.1639C75.6445 9.68793 76.0925 9.30993 76.7085 9.02993C77.3385 8.73593 78.1785 8.58893 79.2285 8.58893H83.0295V9.70193H79.2705C78.2065 9.70193 77.4645 9.89093 77.0445 10.2689C76.6385 10.6469 76.4355 11.1159 76.4355 11.6759C76.4355 12.3059 76.6805 12.8099 77.1705 13.1879C77.6605 13.5659 78.3465 13.7549 79.2285 13.7549C80.0685 13.7549 80.7895 13.5659 81.3915 13.1879C82.0075 12.7959 82.4555 12.2359 82.7355 11.5079L83.0715 12.5369C82.7915 13.2649 82.3015 13.8459 81.6015 14.2799C80.9155 14.7139 80.0475 14.9309 78.9975 14.9309ZM88.1957 14.8259V3.80093H89.6867V8.67293H96.6377V3.80093H98.1287V14.8259H96.6377V9.95393H89.6867V14.8259H88.1957ZM102.367 14.8259V3.80093H110.179V5.10293H103.48L103.858 4.72493V14.8259H102.367ZM118.186 14.8259V0.125927H128.938V1.44893H119.719V6.25793H124.528C126.264 6.25793 127.58 6.61493 128.476 7.32893C129.386 8.02893 129.841 9.06493 129.841 10.4369C129.841 11.8509 129.351 12.9359 128.371 13.6919C127.405 14.4479 126.012 14.8259 124.192 14.8259H118.186ZM119.719 13.5869H124.171C125.529 13.5869 126.551 13.3279 127.237 12.8099C127.937 12.2779 128.287 11.5079 128.287 10.4999C128.287 8.49793 126.915 7.49693 124.171 7.49693H119.719V13.5869ZM131.765 14.8259V13.7549L137.876 7.76993C138.436 7.22393 138.856 6.74793 139.136 6.34193C139.416 5.92193 139.605 5.52993 139.703 5.16593C139.801 4.80193 139.85 4.45893 139.85 4.13693C139.85 3.28293 139.556 2.61093 138.968 2.12093C138.394 1.63093 137.54 1.38593 136.406 1.38593C135.538 1.38593 134.768 1.51893 134.096 1.78493C133.438 2.05093 132.871 2.46393 132.395 3.02393L131.324 2.09993C131.898 1.42793 132.633 0.909927 133.529 0.545928C134.425 0.181927 135.426 -7.28965e-05 136.532 -7.28965e-05C137.526 -7.28965e-05 138.387 0.160927 139.115 0.482927C139.843 0.790927 140.403 1.24593 140.795 1.84793C141.201 2.44993 141.404 3.15693 141.404 3.96893C141.404 4.44493 141.334 4.91393 141.194 5.37593C141.068 5.83793 140.83 6.32793 140.48 6.84593C140.144 7.34993 139.647 7.92393 138.989 8.56793L133.382 14.0699L132.962 13.4819H142.076V14.8259H131.765ZM148.614 14.9519C147.564 14.9519 146.563 14.7839 145.611 14.4479C144.659 14.0979 143.903 13.6359 143.343 13.0619L144.078 11.8649C144.54 12.3549 145.17 12.7609 145.968 13.0829C146.78 13.4049 147.655 13.5659 148.593 13.5659C149.839 13.5659 150.784 13.2929 151.428 12.7469C152.086 12.1869 152.415 11.4589 152.415 10.5629C152.415 9.93293 152.261 9.39393 151.953 8.94593C151.659 8.48393 151.155 8.12693 150.441 7.87493C149.727 7.62293 148.747 7.49693 147.501 7.49693H144.372L145.128 0.125927H153.171V1.46993H145.737L146.514 0.734928L145.863 6.90893L145.086 6.15293H147.837C149.321 6.15293 150.511 6.33493 151.407 6.69893C152.303 7.06293 152.947 7.57393 153.339 8.23193C153.745 8.87593 153.948 9.63193 153.948 10.4999C153.948 11.3259 153.752 12.0819 153.36 12.7679C152.968 13.4399 152.38 13.9719 151.596 14.3639C150.812 14.7559 149.818 14.9519 148.614 14.9519ZM157.254 13.7969L155.553 13.4819C156.113 13.5099 156.575 13.3069 156.939 12.8729C157.317 12.4389 157.604 11.8299 157.8 11.0459C158.01 10.2619 158.164 9.34493 158.262 8.29493C158.36 7.24493 158.43 6.11093 158.472 4.89293L158.64 0.125927H168.552V14.0909H167.019V1.46993H159.984L159.858 5.03993C159.816 6.14593 159.746 7.20993 159.648 8.23193C159.564 9.23993 159.424 10.1499 159.228 10.9619C159.046 11.7599 158.794 12.4109 158.472 12.9149C158.164 13.4189 157.758 13.7129 157.254 13.7969ZM155.007 18.1229L155.028 13.4819H170.757V18.1229H169.308V14.8259H156.477L156.456 18.1229H155.007ZM177.245 14.9519C176.041 14.9519 174.942 14.7979 173.948 14.4899C172.954 14.1679 172.149 13.7199 171.533 13.1459L172.121 11.9699C172.695 12.4879 173.423 12.8939 174.305 13.1879C175.187 13.4819 176.174 13.6289 177.266 13.6289C178.778 13.6289 179.898 13.3629 180.626 12.8309C181.354 12.2849 181.718 11.5569 181.718 10.6469C181.718 10.0169 181.55 9.49193 181.214 9.07193C180.892 8.65193 180.437 8.34393 179.849 8.14793C179.275 7.93793 178.596 7.83293 177.812 7.83293H174.473V6.57293H177.749C178.799 6.57293 179.618 6.36293 180.206 5.94293C180.794 5.52293 181.088 4.90693 181.088 4.09493C181.088 3.46493 180.906 2.94693 180.542 2.54093C180.192 2.13493 179.723 1.84093 179.135 1.65893C178.561 1.46293 177.931 1.36493 177.245 1.36493C176.727 1.36493 176.195 1.41393 175.649 1.51193C175.117 1.60993 174.599 1.74993 174.095 1.93193C173.605 2.11393 173.15 2.33093 172.73 2.58293L172.247 1.34393C172.975 0.909927 173.773 0.580927 174.641 0.356928C175.509 0.132927 176.377 0.0209268 177.245 0.0209268C177.959 0.0209268 178.638 0.0979271 179.282 0.251928C179.926 0.405927 180.5 0.643927 181.004 0.965927C181.508 1.28793 181.907 1.69393 182.201 2.18393C182.495 2.67393 182.642 3.24793 182.642 3.90593C182.642 4.59193 182.481 5.20093 182.159 5.73293C181.851 6.26493 181.403 6.68493 180.815 6.99293C180.227 7.30093 179.534 7.45493 178.736 7.45493L178.841 6.97193C179.653 6.97193 180.395 7.11893 181.067 7.41293C181.739 7.70693 182.271 8.13393 182.663 8.69393C183.069 9.25393 183.272 9.93993 183.272 10.7519C183.272 11.5639 183.041 12.2919 182.579 12.9359C182.117 13.5659 181.438 14.0629 180.542 14.4269C179.66 14.7769 178.561 14.9519 177.245 14.9519ZM191.443 14.9519C190.309 14.9519 189.301 14.6579 188.419 14.0699C187.537 13.4679 186.844 12.6139 186.34 11.5079C185.836 10.3879 185.584 9.04393 185.584 7.47593C185.584 5.90793 185.836 4.57093 186.34 3.46493C186.844 2.34493 187.537 1.49093 188.419 0.902927C189.301 0.300927 190.309 -7.28965e-05 191.443 -7.28965e-05C192.577 -7.28965e-05 193.585 0.300927 194.467 0.902927C195.349 1.49093 196.042 2.34493 196.546 3.46493C197.064 4.57093 197.323 5.90793 197.323 7.47593C197.323 9.04393 197.064 10.3879 196.546 11.5079C196.042 12.6139 195.349 13.4679 194.467 14.0699C193.585 14.6579 192.577 14.9519 191.443 14.9519ZM191.443 13.5659C192.311 13.5659 193.067 13.3349 193.711 12.8729C194.355 12.3969 194.859 11.7109 195.223 10.8149C195.587 9.90493 195.769 8.79193 195.769 7.47593C195.769 6.15993 195.587 5.05393 195.223 4.15793C194.859 3.24793 194.355 2.56193 193.711 2.09993C193.067 1.62393 192.311 1.38593 191.443 1.38593C190.603 1.38593 189.854 1.62393 189.196 2.09993C188.538 2.56193 188.027 3.24793 187.663 4.15793C187.299 5.05393 187.117 6.15993 187.117 7.47593C187.117 8.79193 187.299 9.90493 187.663 10.8149C188.027 11.7109 188.538 12.3969 189.196 12.8729C189.854 13.3349 190.603 13.5659 191.443 13.5659ZM203.373 14.9519C202.715 14.9519 202.085 14.8889 201.483 14.7629C200.895 14.6369 200.363 14.4339 199.887 14.1539L200.496 12.9359C200.874 13.1879 201.308 13.3699 201.798 13.4819C202.302 13.5799 202.82 13.6289 203.352 13.6289C204.934 13.6289 206.194 13.1249 207.132 12.1169C208.084 11.1089 208.56 9.60393 208.56 7.60193C208.56 7.27993 208.539 6.89493 208.497 6.44693C208.469 5.99893 208.392 5.55093 208.266 5.10293L208.791 5.50193C208.651 6.22993 208.35 6.85293 207.888 7.37093C207.44 7.87493 206.88 8.25993 206.208 8.52593C205.55 8.79193 204.815 8.92493 204.003 8.92493C203.037 8.92493 202.176 8.74293 201.42 8.37893C200.678 8.01493 200.097 7.50393 199.677 6.84593C199.257 6.18793 199.047 5.41093 199.047 4.51493C199.047 3.59093 199.264 2.79293 199.698 2.12093C200.132 1.44893 200.727 0.930927 201.483 0.566927C202.253 0.188927 203.114 -7.28965e-05 204.066 -7.28965e-05C205.368 -7.28965e-05 206.467 0.293927 207.363 0.881927C208.259 1.45593 208.938 2.28893 209.4 3.38093C209.862 4.47293 210.093 5.79593 210.093 7.34993C210.093 9.00193 209.806 10.3949 209.232 11.5289C208.672 12.6629 207.888 13.5169 206.88 14.0909C205.872 14.6649 204.703 14.9519 203.373 14.9519ZM204.234 7.64393C204.99 7.64393 205.648 7.50393 206.208 7.22393C206.782 6.94393 207.223 6.55893 207.531 6.06893C207.853 5.57893 208.014 5.03293 208.014 4.43093C208.014 3.88493 207.867 3.37393 207.573 2.89793C207.279 2.42193 206.845 2.03693 206.271 1.74293C205.697 1.43493 204.983 1.28093 204.129 1.28093C203.429 1.28093 202.806 1.41393 202.26 1.67993C201.728 1.93193 201.308 2.29593 201 2.77193C200.692 3.24793 200.538 3.81493 200.538 4.47293C200.538 5.43893 200.867 6.20893 201.525 6.78293C202.197 7.35693 203.1 7.64393 204.234 7.64393Z" fill="white"/>
</svg>
