<svg width="1280" height="610" viewBox="0 0 1280 610" fill="none" xmlns="http://www.w3.org/2000/svg">
<path d="M216.366 263.246H228.538V299H216.366V285.913H189.428V299H177.256V263.246H189.428V276.333H216.366V263.246ZM262.305 276.364H252.268L250.376 285.852H260.413L262.305 276.364ZM270.389 276.364L268.498 285.852H275.118V293.173H267.033L265.874 299H257.79L258.949 293.173H248.912L247.753 299H239.669L240.828 293.173H234.635V285.852H242.292L244.184 276.364H237.564V269.042H245.617L246.777 263.246H254.891L253.732 269.042H263.738L264.898 263.246H272.982L271.823 269.042H278.046V276.364H270.389ZM332.289 289.085C332.289 290.448 332.024 291.729 331.496 292.929C330.987 294.129 330.286 295.176 329.391 296.071C328.496 296.966 327.448 297.678 326.248 298.207C325.049 298.715 323.767 298.969 322.405 298.969H303.216C297.623 298.99 291.267 299 284.149 299V263.246H320.147C321.469 263.246 322.699 263.5 323.838 264.009C324.998 264.497 326.004 265.168 326.859 266.022C327.713 266.876 328.384 267.883 328.872 269.042C329.381 270.181 329.635 271.412 329.635 272.734C329.635 273.405 329.543 274.076 329.36 274.747C329.197 275.418 328.964 276.069 328.659 276.699C328.374 277.33 328.028 277.93 327.621 278.499C327.235 279.048 326.828 279.537 326.401 279.964L326.37 280.025C327.245 280.411 328.038 280.909 328.75 281.52C329.482 282.13 330.103 282.831 330.611 283.625C331.14 284.397 331.546 285.252 331.831 286.187C332.136 287.102 332.289 288.068 332.289 289.085ZM317.493 290.611C318.225 290.611 318.845 290.356 319.354 289.848C319.883 289.319 320.147 288.689 320.147 287.957C320.147 287.224 319.883 286.604 319.354 286.096C318.845 285.567 318.225 285.302 317.493 285.302H296.321V290.611H317.493ZM296.321 276.913H315.815C316.547 276.913 317.168 276.659 317.676 276.15C318.205 275.642 318.469 275.022 318.469 274.289C318.469 273.537 318.205 272.906 317.676 272.398C317.168 271.89 316.547 271.635 315.815 271.635H296.321V276.913ZM401.946 263.215V298.969H389.804V263.215H401.946ZM370.097 289.207C370.625 289.207 371.114 289.106 371.561 288.902C372.029 288.699 372.435 288.424 372.781 288.079C373.127 287.733 373.402 287.336 373.605 286.889C373.808 286.421 373.91 285.923 373.91 285.394C373.91 284.865 373.808 284.377 373.605 283.93C373.402 283.462 373.127 283.055 372.781 282.709C372.435 282.364 372.029 282.089 371.561 281.886C371.114 281.682 370.625 281.581 370.097 281.581H350.572V289.207H370.097ZM372.415 271.788C374.286 271.788 376.045 272.144 377.693 272.856C379.361 273.567 380.805 274.544 382.025 275.784C383.265 277.005 384.242 278.449 384.953 280.116C385.665 281.764 386.021 283.523 386.021 285.394C386.021 287.265 385.665 289.034 384.953 290.702C384.242 292.349 383.265 293.793 382.025 295.034C380.805 296.254 379.361 297.22 377.693 297.932C376.045 298.644 374.286 299 372.415 299H338.4V263.185H350.572V271.788H372.415ZM461.742 263.246V299H449.57V277.676L422.815 299H410.735V263.246H422.907V284.601L449.661 263.246H461.742ZM449.539 258.792H422.937V252.996H449.539V258.792ZM252.17 342H239.997V306.246H282.097V315.825H252.17V342ZM310.745 332.268C312.698 332.268 314.335 332.167 315.657 331.963C316.979 331.76 318.047 331.363 318.86 330.773C319.674 330.184 320.263 329.35 320.629 328.272C320.996 327.174 321.199 325.74 321.24 323.97C321.219 322.221 321.026 320.808 320.66 319.73C320.294 318.652 319.704 317.818 318.891 317.228C318.077 316.618 316.999 316.212 315.657 316.008C314.335 315.784 312.698 315.673 310.745 315.673C308.793 315.673 307.145 315.784 305.803 316.008C304.481 316.212 303.413 316.618 302.6 317.228C301.786 317.818 301.197 318.652 300.831 319.73C300.464 320.808 300.271 322.221 300.251 323.97C300.292 325.74 300.495 327.174 300.861 328.272C301.227 329.35 301.817 330.184 302.63 330.773C303.444 331.363 304.512 331.76 305.834 331.963C307.156 332.167 308.793 332.268 310.745 332.268ZM310.745 304.995C312.982 304.954 315.098 304.985 317.091 305.087C319.084 305.168 320.914 305.422 322.582 305.849C324.25 306.256 325.744 306.876 327.066 307.71C328.409 308.524 329.537 309.642 330.453 311.066C331.388 312.49 332.1 314.259 332.588 316.374C333.076 318.469 333.31 321.001 333.29 323.97C333.31 326.858 333.076 329.34 332.588 331.414C332.1 333.489 331.388 335.238 330.453 336.661C329.537 338.085 328.409 339.224 327.066 340.078C325.744 340.932 324.25 341.573 322.582 342C320.914 342.447 319.084 342.732 317.091 342.854C315.098 342.976 312.982 343.017 310.745 342.976C308.508 343.017 306.393 342.976 304.4 342.854C302.407 342.732 300.576 342.447 298.909 342C297.241 341.573 295.746 340.932 294.424 340.078C293.102 339.224 291.973 338.085 291.038 336.661C290.123 335.238 289.421 333.489 288.933 331.414C288.445 329.34 288.201 326.858 288.201 323.97C288.201 321.001 288.445 318.469 288.933 316.374C289.421 314.259 290.123 312.49 291.038 311.066C291.973 309.642 293.102 308.524 294.424 307.71C295.746 306.876 297.241 306.256 298.909 305.849C300.576 305.422 302.407 305.168 304.4 305.087C306.393 304.985 308.508 304.954 310.745 304.995ZM378.92 315.795H361.409C361.165 324.316 360.179 329.868 358.45 332.451H378.92V315.795ZM386.821 349.871V342H351.525V349.871H339.353V332.451H345.484C346.42 331.312 347.142 329.909 347.65 328.241C348.159 326.574 348.535 324.652 348.779 322.476C349.023 320.299 349.166 317.859 349.206 315.154C349.247 312.449 349.267 309.48 349.267 306.246H391.062V332.451H398.994V349.871H386.821Z" fill="white"/>
<path d="M851.473 263.246H863.645V299H851.473V285.913H824.536V299H812.363V263.246H824.536V276.333H851.473V263.246ZM896.338 289.665C898.148 289.665 899.958 289.563 901.769 289.36C903.599 289.136 905.246 288.719 906.711 288.109C908.175 287.499 909.365 286.635 910.28 285.516C911.216 284.377 911.704 282.882 911.744 281.031C911.744 279.832 911.521 278.784 911.073 277.889C910.646 276.994 910.066 276.232 909.334 275.601C908.602 274.95 907.738 274.422 906.741 274.015C905.745 273.608 904.677 273.283 903.538 273.039C902.399 272.795 901.209 272.632 899.969 272.551C898.748 272.449 897.538 272.388 896.338 272.367C895.138 272.367 893.918 272.418 892.678 272.52C891.457 272.622 890.278 272.795 889.139 273.039C888.02 273.283 886.963 273.608 885.966 274.015C884.969 274.422 884.095 274.95 883.342 275.601C882.61 276.232 882.031 276.994 881.604 277.889C881.176 278.784 880.953 279.832 880.932 281.031C880.973 282.252 881.207 283.319 881.634 284.235C882.081 285.13 882.671 285.902 883.403 286.553C884.136 287.184 884.99 287.702 885.966 288.109C886.963 288.516 888.03 288.831 889.169 289.055C890.308 289.278 891.488 289.441 892.708 289.543C893.928 289.624 895.138 289.665 896.338 289.665ZM896.338 289.695C896.379 289.695 896.389 289.695 896.369 289.695C896.369 289.675 896.359 289.665 896.338 289.665C896.318 289.665 896.308 289.675 896.308 289.695C896.308 289.695 896.318 289.695 896.338 289.695ZM896.338 262.666C898.514 262.626 900.701 262.656 902.897 262.758C905.114 262.86 907.239 263.114 909.273 263.52C911.327 263.927 913.249 264.527 915.039 265.32C916.829 266.114 918.385 267.202 919.707 268.585C921.029 269.947 922.066 271.645 922.818 273.679C923.591 275.713 923.967 278.164 923.947 281.031C923.967 283.818 923.591 286.218 922.818 288.231C922.066 290.245 921.029 291.933 919.707 293.295C918.385 294.658 916.829 295.756 915.039 296.59C913.249 297.403 911.327 298.024 909.273 298.451C907.239 298.878 905.114 299.142 902.897 299.244C900.701 299.366 898.514 299.407 896.338 299.366C894.183 299.407 891.996 299.366 889.779 299.244C887.563 299.142 885.427 298.878 883.373 298.451C881.339 298.024 879.427 297.403 877.638 296.59C875.868 295.756 874.312 294.658 872.97 293.295C871.648 291.933 870.611 290.245 869.858 288.231C869.106 286.218 868.73 283.818 868.73 281.031C868.73 278.164 869.106 275.713 869.858 273.679C870.611 271.645 871.648 269.947 872.97 268.585C874.312 267.202 875.868 266.114 877.638 265.32C879.427 264.527 881.339 263.927 883.373 263.52C885.427 263.114 887.563 262.86 889.779 262.758C891.996 262.656 894.183 262.626 896.338 262.666ZM978.181 289.085C978.181 290.448 977.917 291.729 977.388 292.929C976.88 294.129 976.178 295.176 975.283 296.071C974.388 296.966 973.341 297.678 972.141 298.207C970.941 298.715 969.66 298.969 968.297 298.969H949.108C943.515 298.99 937.16 299 930.041 299V263.246H966.039C967.361 263.246 968.592 263.5 969.731 264.009C970.89 264.497 971.897 265.168 972.751 266.022C973.605 266.876 974.276 267.883 974.764 269.042C975.273 270.181 975.527 271.412 975.527 272.734C975.527 273.405 975.436 274.076 975.252 274.747C975.09 275.418 974.856 276.069 974.551 276.699C974.266 277.33 973.92 277.93 973.514 278.499C973.127 279.048 972.72 279.537 972.293 279.964L972.263 280.025C973.137 280.411 973.931 280.909 974.642 281.52C975.375 282.13 975.995 282.831 976.503 283.625C977.032 284.397 977.439 285.252 977.724 286.187C978.029 287.102 978.181 288.068 978.181 289.085ZM963.385 290.611C964.117 290.611 964.738 290.356 965.246 289.848C965.775 289.319 966.039 288.689 966.039 287.957C966.039 287.224 965.775 286.604 965.246 286.096C964.738 285.567 964.117 285.302 963.385 285.302H942.214V290.611H963.385ZM942.214 276.913H961.707C962.44 276.913 963.06 276.659 963.568 276.15C964.097 275.642 964.362 275.022 964.362 274.289C964.362 273.537 964.097 272.906 963.568 272.398C963.06 271.89 962.44 271.635 961.707 271.635H942.214V276.913ZM1047.84 263.215V298.969H1035.7V263.215H1047.84ZM1015.99 289.207C1016.52 289.207 1017.01 289.106 1017.45 288.902C1017.92 288.699 1018.33 288.424 1018.67 288.079C1019.02 287.733 1019.29 287.336 1019.5 286.889C1019.7 286.421 1019.8 285.923 1019.8 285.394C1019.8 284.865 1019.7 284.377 1019.5 283.93C1019.29 283.462 1019.02 283.055 1018.67 282.709C1018.33 282.364 1017.92 282.089 1017.45 281.886C1017.01 281.682 1016.52 281.581 1015.99 281.581H996.465V289.207H1015.99ZM1018.31 271.788C1020.18 271.788 1021.94 272.144 1023.59 272.856C1025.25 273.567 1026.7 274.544 1027.92 275.784C1029.16 277.005 1030.13 278.449 1030.85 280.116C1031.56 281.764 1031.91 283.523 1031.91 285.394C1031.91 287.265 1031.56 289.034 1030.85 290.702C1030.13 292.349 1029.16 293.793 1027.92 295.034C1026.7 296.254 1025.25 297.22 1023.59 297.932C1021.94 298.644 1020.18 299 1018.31 299H984.292V263.185H996.465V271.788H1018.31ZM1107.63 263.246V299H1095.46V277.676L1068.71 299H1056.63V263.246H1068.8V284.601L1095.55 263.246H1107.63ZM1095.43 258.792H1068.83V252.996H1095.43V258.792ZM890.614 342H878.442V306.246H920.541V315.825H890.614V342ZM951.751 332.665C953.561 332.665 955.371 332.563 957.181 332.36C959.012 332.136 960.659 331.719 962.124 331.109C963.588 330.499 964.778 329.635 965.693 328.516C966.628 327.377 967.117 325.882 967.157 324.031C967.157 322.832 966.933 321.784 966.486 320.889C966.059 319.994 965.479 319.232 964.747 318.601C964.015 317.95 963.151 317.422 962.154 317.015C961.158 316.608 960.09 316.283 958.951 316.039C957.812 315.795 956.622 315.632 955.382 315.551C954.161 315.449 952.951 315.388 951.751 315.367C950.551 315.367 949.331 315.418 948.09 315.52C946.87 315.622 945.691 315.795 944.552 316.039C943.433 316.283 942.375 316.608 941.379 317.015C940.382 317.422 939.508 317.95 938.755 318.601C938.023 319.232 937.444 319.994 937.016 320.889C936.589 321.784 936.366 322.832 936.345 324.031C936.386 325.252 936.62 326.319 937.047 327.235C937.494 328.13 938.084 328.902 938.816 329.553C939.548 330.184 940.403 330.702 941.379 331.109C942.375 331.516 943.443 331.831 944.582 332.055C945.721 332.278 946.901 332.441 948.121 332.543C949.341 332.624 950.551 332.665 951.751 332.665ZM951.751 332.695C951.792 332.695 951.802 332.695 951.782 332.695C951.782 332.675 951.772 332.665 951.751 332.665C951.731 332.665 951.721 332.675 951.721 332.695C951.721 332.695 951.731 332.695 951.751 332.695ZM951.751 305.666C953.927 305.626 956.114 305.656 958.31 305.758C960.527 305.86 962.652 306.114 964.686 306.52C966.74 306.927 968.662 307.527 970.452 308.32C972.242 309.114 973.798 310.202 975.119 311.585C976.441 312.947 977.479 314.645 978.231 316.679C979.004 318.713 979.38 321.164 979.36 324.031C979.38 326.818 979.004 329.218 978.231 331.231C977.479 333.245 976.441 334.933 975.119 336.295C973.798 337.658 972.242 338.756 970.452 339.59C968.662 340.403 966.74 341.024 964.686 341.451C962.652 341.878 960.527 342.142 958.31 342.244C956.114 342.366 953.927 342.407 951.751 342.366C949.595 342.407 947.409 342.366 945.192 342.244C942.975 342.142 940.84 341.878 938.786 341.451C936.752 341.024 934.84 340.403 933.051 339.59C931.281 338.756 929.725 337.658 928.383 336.295C927.061 334.933 926.024 333.245 925.271 331.231C924.519 329.218 924.143 326.818 924.143 324.031C924.143 321.164 924.519 318.713 925.271 316.679C926.024 314.645 927.061 312.947 928.383 311.585C929.725 310.202 931.281 309.114 933.051 308.32C934.84 307.527 936.752 306.927 938.786 306.52C940.84 306.114 942.975 305.86 945.192 305.758C947.409 305.656 949.595 305.626 951.751 305.666ZM1021.48 315.795H1003.96C1003.72 324.316 1002.73 329.868 1001.01 332.451H1021.48V315.795ZM1029.38 349.871V342H994.08V349.871H981.908V332.451H988.04C988.976 331.312 989.698 329.909 990.206 328.241C990.715 326.574 991.091 324.652 991.335 322.476C991.579 320.299 991.721 317.859 991.762 315.154C991.803 312.449 991.823 309.48 991.823 306.246H1033.62V332.451H1041.55V349.871H1029.38Z" fill="white"/>
</svg>
