<svg width="17" height="570" viewBox="0 0 17 570" fill="none" xmlns="http://www.w3.org/2000/svg">
<path d="M16.8 569.722L4.75599e-05 569.722L4.72546e-05 562.738C4.7177e-05 560.962 0.368047 559.57 1.10405 558.562C1.82405 557.538 2.88805 557.026 4.29605 557.026C5.68805 557.026 6.74405 557.514 7.46405 558.49C8.16805 559.466 8.52005 560.746 8.52005 562.33L7.92005 561.922C7.92005 560.05 8.28805 558.626 9.02405 557.65C9.76005 556.674 10.84 556.186 12.264 556.186C13.704 556.186 14.824 556.698 15.624 557.722C16.408 558.73 16.8 560.25 16.8 562.282L16.8 569.722ZM15.384 567.97L15.384 562.282C15.384 560.858 15.12 559.778 14.592 559.042C14.064 558.306 13.248 557.938 12.144 557.938C11.056 557.938 10.256 558.306 9.74405 559.042C9.23205 559.778 8.97605 560.858 8.97605 562.282L8.97605 567.97L15.384 567.97ZM7.60805 567.97L7.60805 562.834C7.60805 561.538 7.35205 560.546 6.84005 559.858C6.31205 559.154 5.53605 558.802 4.51205 558.802C3.48805 558.802 2.72005 559.154 2.20805 559.858C1.68005 560.546 1.41605 561.538 1.41605 562.834L1.41605 567.97L7.60805 567.97ZM16.8 551.746L4.67741e-05 551.746L4.62706e-05 540.226L1.53605 540.226L1.53605 549.97L15.264 549.97L15.264 539.866L16.8 539.866L16.8 551.746ZM9.02405 550.162L7.51205 550.162L7.51205 541.282L9.02405 541.282L9.02405 550.162ZM11.016 531.461C11.016 533.429 10.544 534.965 9.60005 536.069C8.64005 537.157 7.28805 537.701 5.54405 537.701L4.61602e-05 537.701L4.60847e-05 535.973L5.35205 535.973C6.64805 535.973 7.65605 535.565 8.37605 534.749C9.09605 533.917 9.45605 532.765 9.45605 531.293C9.45605 530.429 9.34405 529.541 9.12005 528.629C8.88005 527.701 8.54405 526.773 8.11205 525.845L9.69605 525.845C10.128 526.821 10.456 527.789 10.68 528.749C10.904 529.693 11.016 530.597 11.016 531.461ZM16.8 526.181L4.56567e-05 526.181L4.55801e-05 524.429L16.8 524.429L16.8 526.181ZM16.8 518.769L4.53327e-05 518.769L4.48291e-05 507.249L1.53605 507.249L1.53605 516.993L15.264 516.993L15.264 506.889L16.8 506.889L16.8 518.769ZM9.02405 517.185L7.51205 517.185L7.51205 508.305L9.02405 508.305L9.02405 517.185ZM16.8 502.949L4.46412e-05 502.949L4.43663e-05 496.661C4.43041e-05 495.237 0.232045 494.013 0.696045 492.989C1.14405 491.965 1.80004 491.181 2.66404 490.637C3.51204 490.077 4.54404 489.797 5.76005 489.797C6.94405 489.797 7.96804 490.077 8.83204 490.637C9.68004 491.181 10.336 491.965 10.8 492.989C11.264 494.013 11.496 495.237 11.496 496.661L11.496 501.965L10.656 501.173L16.8 501.173L16.8 502.949ZM10.8 501.173L9.93605 501.965L9.93605 496.709C9.93605 495.029 9.57604 493.757 8.85604 492.893C8.12005 492.013 7.08805 491.573 5.76005 491.573C4.41604 491.573 3.37604 492.013 2.64004 492.893C1.90404 493.757 1.53604 495.029 1.53604 496.709L1.53604 501.965L0.696046 501.173L10.8 501.173ZM16.8 486.168L4.39076e-05 486.168L4.38311e-05 484.416L13.92 484.416L4.33611e-05 473.664L4.32908e-05 472.056L16.8 472.056L16.8 473.808L2.90404 473.808L16.8 484.56L16.8 486.168ZM16.8 454.098L4.25058e-05 454.098L4.24293e-05 452.346L16.8 452.346L16.8 454.098ZM16.8 466.386L4.3043e-05 466.386L4.29653e-05 464.61L16.8 464.61L16.8 466.386ZM9.04804 464.802L7.48804 464.802L7.48804 453.93L9.04804 453.93L9.04804 464.802ZM16.8 435.179L8.42404 441.635L7.56004 440.195L16.8 433.139L16.8 435.179ZM16.8 446.675L4.21814e-05 446.675L4.21058e-05 444.947L16.8 444.947L16.8 446.675ZM9.09604 445.475L7.53604 445.475L7.53604 440.219L9.09604 440.219L9.09604 445.475ZM8.59204 440.051L8.30404 441.683L4.16894e-05 435.419L4.16054e-05 433.499L8.59204 440.051ZM16.8 433.069L4.12509e-05 425.389L4.11743e-05 423.637L16.8 415.957L16.8 417.829L1.03204 424.885L1.03204 424.165L16.8 431.221L16.8 433.069ZM12.312 430.045L10.872 429.517L10.872 419.749L12.312 419.221L12.312 430.045ZM16.8 406.457L4.04234e-05 406.457L4.01181e-05 399.473C4.00404e-05 397.697 0.36804 396.305 1.10404 395.297C1.82404 394.273 2.88804 393.761 4.29604 393.761C5.68804 393.761 6.74404 394.249 7.46404 395.225C8.16804 396.201 8.52004 397.481 8.52004 399.065L7.92004 398.657C7.92004 396.785 8.28804 395.361 9.02404 394.385C9.76004 393.409 10.84 392.921 12.264 392.921C13.704 392.921 14.824 393.433 15.624 394.457C16.408 395.465 16.8 396.985 16.8 399.017L16.8 406.457ZM15.384 404.705L15.384 399.017C15.384 397.593 15.12 396.513 14.592 395.777C14.064 395.041 13.248 394.673 12.144 394.673C11.056 394.673 10.256 395.041 9.74404 395.777C9.23204 396.513 8.97604 397.593 8.97604 399.017L8.97604 404.705L15.384 404.705ZM7.60804 404.705L7.60804 399.569C7.60804 398.273 7.35204 397.281 6.84004 396.593C6.31204 395.889 5.53604 395.537 4.51204 395.537C3.48804 395.537 2.72004 395.889 2.20804 396.593C1.68004 397.281 1.41604 398.273 1.41604 399.569L1.41604 404.705L7.60804 404.705ZM16.8 388.48L3.96376e-05 388.48L3.9134e-05 376.96L1.53604 376.96L1.53604 386.704L15.264 386.704L15.264 376.6L16.8 376.6L16.8 388.48ZM9.02404 386.896L7.51204 386.896L7.51204 378.016L9.02404 378.016L9.02404 386.896ZM11.016 368.196C11.016 370.164 10.544 371.7 9.60004 372.804C8.64004 373.892 7.28804 374.436 5.54404 374.436L3.90237e-05 374.436L3.89481e-05 372.708L5.35204 372.708C6.64804 372.708 7.65604 372.3 8.37604 371.484C9.09604 370.652 9.45604 369.5 9.45604 368.028C9.45604 367.164 9.34404 366.276 9.12004 365.364C8.88004 364.436 8.54404 363.508 8.11204 362.58L9.69604 362.58C10.128 363.556 10.456 364.524 10.68 365.484C10.904 366.428 11.016 367.332 11.016 368.196ZM16.8 362.916L3.85201e-05 362.916L3.84435e-05 361.164L16.8 361.164L16.8 362.916ZM16.8 355.504L3.81961e-05 355.504L3.76926e-05 343.984L1.53604 343.984L1.53604 353.728L15.264 353.728L15.264 343.624L16.8 343.624L16.8 355.504ZM9.02404 353.92L7.51204 353.92L7.51204 345.04L9.02404 345.04L9.02404 353.92ZM16.8 339.683L3.75046e-05 339.683L3.72297e-05 333.395C3.71675e-05 331.971 0.232037 330.747 0.696038 329.723C1.14404 328.699 1.80004 327.915 2.66404 327.371C3.51204 326.811 4.54404 326.531 5.76004 326.531C6.94404 326.531 7.96804 326.811 8.83204 327.371C9.68004 327.915 10.336 328.699 10.8 329.723C11.264 330.747 11.496 331.971 11.496 333.395L11.496 338.699L10.656 337.907L16.8 337.907L16.8 339.683ZM10.8 337.907L9.93604 338.699L9.93604 333.443C9.93604 331.763 9.57604 330.491 8.85604 329.627C8.12004 328.747 7.08804 328.307 5.76004 328.307C4.41604 328.307 3.37604 328.747 2.64004 329.627C1.90404 330.491 1.53604 331.763 1.53604 333.443L1.53604 338.699L0.696038 337.907L10.8 337.907ZM16.8 322.902L3.67711e-05 322.902L3.66945e-05 321.15L13.92 321.15L3.62245e-05 310.398L3.61542e-05 308.79L16.8 308.79L16.8 310.542L2.90404 310.542L16.8 321.294L16.8 322.902ZM16.8 290.833L3.53693e-05 290.833L3.52927e-05 289.081L16.8 289.081L16.8 290.833ZM16.8 303.121L3.59064e-05 303.121L3.58288e-05 301.345L16.8 301.345L16.8 303.121ZM9.04804 301.537L7.48804 301.537L7.48804 290.665L9.04804 290.665L9.04804 301.537ZM16.8 271.914L8.42404 278.37L7.56004 276.93L16.8 269.874L16.8 271.914ZM16.8 283.41L3.50448e-05 283.41L3.49693e-05 281.682L16.8 281.682L16.8 283.41ZM9.09604 282.21L7.53604 282.21L7.53604 276.954L9.09604 276.954L9.09604 282.21ZM8.59204 276.786L8.30404 278.418L3.45528e-05 272.154L3.44689e-05 270.234L8.59204 276.786ZM16.8 269.804L3.41144e-05 262.124L3.40378e-05 260.372L16.8 252.692L16.8 254.564L1.03204 261.62L1.03204 260.9L16.8 267.956L16.8 269.804ZM12.312 266.78L10.872 266.252L10.872 256.484L12.312 255.956L12.312 266.78ZM16.8 243.191L3.32868e-05 243.191L3.29815e-05 236.207C3.29039e-05 234.431 0.368033 233.039 1.10403 232.031C1.82403 231.007 2.88803 230.495 4.29603 230.495C5.68803 230.495 6.74403 230.983 7.46403 231.959C8.16803 232.935 8.52003 234.215 8.52003 235.799L7.92003 235.391C7.92003 233.519 8.28803 232.095 9.02403 231.119C9.76003 230.143 10.84 229.655 12.264 229.655C13.704 229.655 14.824 230.167 15.624 231.191C16.408 232.199 16.8 233.719 16.8 235.751L16.8 243.191ZM15.384 241.439L15.384 235.751C15.384 234.327 15.12 233.247 14.592 232.511C14.064 231.775 13.248 231.407 12.144 231.407C11.056 231.407 10.256 231.775 9.74403 232.511C9.23203 233.247 8.97603 234.327 8.97603 235.751L8.97603 241.439L15.384 241.439ZM7.60803 241.439L7.60803 236.303C7.60803 235.007 7.35203 234.015 6.84003 233.327C6.31203 232.623 5.53603 232.271 4.51203 232.271C3.48803 232.271 2.72003 232.623 2.20803 233.327C1.68003 234.015 1.41603 235.007 1.41603 236.303L1.41603 241.439L7.60803 241.439ZM16.8 225.215L3.2501e-05 225.215L3.19975e-05 213.695L1.53603 213.695L1.53603 223.439L15.264 223.439L15.264 213.335L16.8 213.335L16.8 225.215ZM9.02403 223.631L7.51203 223.631L7.51203 214.751L9.02403 214.751L9.02403 223.631ZM11.016 204.93C11.016 206.898 10.544 208.434 9.60003 209.538C8.64003 210.626 7.28803 211.17 5.54403 211.17L3.18871e-05 211.17L3.18116e-05 209.442L5.35203 209.442C6.64803 209.442 7.65603 209.034 8.37603 208.218C9.09603 207.386 9.45603 206.234 9.45603 204.762C9.45603 203.898 9.34403 203.01 9.12003 202.098C8.88003 201.17 8.54403 200.242 8.11203 199.314L9.69603 199.314C10.128 200.29 10.456 201.258 10.68 202.218C10.904 203.162 11.016 204.066 11.016 204.93ZM16.8 199.65L3.13836e-05 199.65L3.1307e-05 197.898L16.8 197.898L16.8 199.65ZM16.8 192.238L3.10596e-05 192.238L3.0556e-05 180.718L1.53603 180.718L1.53603 190.462L15.264 190.462L15.264 180.358L16.8 180.358L16.8 192.238ZM9.02403 190.654L7.51203 190.654L7.51203 181.774L9.02403 181.774L9.02403 190.654ZM16.8 176.418L3.0368e-05 176.418L3.00932e-05 170.13C3.00309e-05 168.706 0.23203 167.482 0.696031 166.458C1.14403 165.434 1.80003 164.65 2.66403 164.106C3.51203 163.546 4.54403 163.266 5.76003 163.266C6.94403 163.266 7.96803 163.546 8.83203 164.106C9.68003 164.65 10.336 165.434 10.8 166.458C11.264 167.482 11.496 168.706 11.496 170.13L11.496 175.434L10.656 174.642L16.8 174.642L16.8 176.418ZM10.8 174.642L9.93603 175.434L9.93603 170.178C9.93603 168.498 9.57603 167.226 8.85603 166.362C8.12003 165.482 7.08803 165.042 5.76003 165.042C4.41603 165.042 3.37603 165.482 2.64003 166.362C1.90403 167.226 1.53603 168.498 1.53603 170.178L1.53603 175.434L0.696031 174.642L10.8 174.642ZM16.8 159.636L2.96345e-05 159.636L2.95579e-05 157.884L13.92 157.884L2.90879e-05 147.132L2.90176e-05 145.524L16.8 145.524L16.8 147.276L2.90403 147.276L16.8 158.028L16.8 159.636ZM16.8 127.567L2.82327e-05 127.567L2.81561e-05 125.815L16.8 125.815L16.8 127.567ZM16.8 139.855L2.87698e-05 139.855L2.86922e-05 138.079L16.8 138.079L16.8 139.855ZM9.04803 138.271L7.48803 138.271L7.48803 127.399L9.04803 127.399L9.04803 138.271ZM16.8 108.648L8.42403 115.104L7.56003 113.664L16.8 106.608L16.8 108.648ZM16.8 120.144L2.79082e-05 120.144L2.78327e-05 118.416L16.8 118.416L16.8 120.144ZM9.09603 118.944L7.53603 118.944L7.53603 113.688L9.09603 113.688L9.09603 118.944ZM8.59203 113.52L8.30403 115.152L2.74162e-05 108.888L2.73323e-05 106.968L8.59203 113.52ZM16.8 106.538L2.69778e-05 98.8581L2.69012e-05 97.1061L16.8 89.4261L16.8 91.2981L1.03203 98.3541L1.03203 97.6341L16.8 104.69L16.8 106.538ZM12.312 103.514L10.872 102.986L10.872 93.2181L12.312 92.6901L12.312 103.514ZM16.8 79.9255L2.61502e-05 79.9255L2.58449e-05 72.9415C2.57673e-05 71.1655 0.368026 69.7735 1.10403 68.7655C1.82403 67.7415 2.88803 67.2295 4.29603 67.2295C5.68803 67.2295 6.74403 67.7175 7.46403 68.6935C8.16803 69.6695 8.52003 70.9495 8.52003 72.5335L7.92003 72.1255C7.92003 70.2535 8.28803 68.8295 9.02403 67.8535C9.76003 66.8775 10.84 66.3895 12.264 66.3895C13.704 66.3895 14.824 66.9015 15.624 67.9255C16.408 68.9335 16.8 70.4535 16.8 72.4855L16.8 79.9255ZM15.384 78.1735L15.384 72.4855C15.384 71.0615 15.12 69.9815 14.592 69.2455C14.064 68.5095 13.248 68.1415 12.144 68.1415C11.056 68.1415 10.256 68.5095 9.74403 69.2455C9.23203 69.9815 8.97603 71.0615 8.97603 72.4855L8.97603 78.1735L15.384 78.1735ZM7.60803 78.1735L7.60803 73.0375C7.60803 71.7415 7.35203 70.7495 6.84003 70.0615C6.31203 69.3575 5.53603 69.0055 4.51203 69.0055C3.48803 69.0055 2.72003 69.3575 2.20803 70.0615C1.68003 70.7495 1.41603 71.7415 1.41603 73.0375L1.41603 78.1735L7.60803 78.1735ZM16.8 61.9489L2.53644e-05 61.9489L2.48609e-05 50.4289L1.53603 50.4289L1.53603 60.1729L15.264 60.1729L15.264 50.0689L16.8 50.0689L16.8 61.9489ZM9.02403 60.3649L7.51203 60.3649L7.51203 51.4849L9.02403 51.4849L9.02403 60.3649ZM11.016 41.6646C11.016 43.6326 10.544 45.1686 9.60003 46.2726C8.64003 47.3606 7.28803 47.9046 5.54403 47.9046L2.47505e-05 47.9046L2.4675e-05 46.1766L5.35203 46.1766C6.64803 46.1766 7.65603 45.7686 8.37603 44.9526C9.09603 44.1206 9.45603 42.9686 9.45603 41.4966C9.45602 40.6326 9.34402 39.7446 9.12002 38.8326C8.88003 37.9046 8.54403 36.9766 8.11202 36.0486L9.69603 36.0486C10.128 37.0246 10.456 37.9926 10.68 38.9526C10.904 39.8966 11.016 40.8006 11.016 41.6646ZM16.8 36.3846L2.4247e-05 36.3846L2.41704e-05 34.6326L16.8 34.6326L16.8 36.3846ZM16.8 28.9724L2.3923e-05 28.9724L2.34194e-05 17.4524L1.53602 17.4524L1.53602 27.1964L15.264 27.1964L15.264 17.0924L16.8 17.0923L16.8 28.9724ZM9.02402 27.3884L7.51202 27.3884L7.51202 18.5084L9.02402 18.5084L9.02402 27.3884ZM16.8 13.152L2.32315e-05 13.152L2.29566e-05 6.86404C2.28944e-05 5.44004 0.232023 4.21604 0.696024 3.19204C1.14402 2.16804 1.80002 1.38404 2.66402 0.840038C3.51202 0.280038 4.54402 3.8631e-05 5.76002 3.85779e-05C6.94402 3.85261e-05 7.96802 0.280038 8.83202 0.840038C9.68002 1.38404 10.336 2.16804 10.8 3.19204C11.264 4.21604 11.496 5.44004 11.496 6.86404L11.496 12.168L10.656 11.376L16.8 11.376L16.8 13.152ZM10.8 11.376L9.93602 12.168L9.93602 6.91204C9.93602 5.23204 9.57602 3.96004 8.85602 3.09604C8.12002 2.21604 7.08802 1.77604 5.76002 1.77604C4.41602 1.77604 3.37602 2.21604 2.64002 3.09604C1.90402 3.96004 1.53602 5.23204 1.53602 6.91204L1.53602 12.168L0.696024 11.376L10.8 11.376Z" fill="white"/>
</svg>
