<svg width="1974" height="610" viewBox="0 0 1974 610" fill="none" xmlns="http://www.w3.org/2000/svg">
<path d="M45 241.24C42.8933 241.24 40.9333 240.893 39.12 240.2C37.3333 239.48 35.7733 238.48 34.44 237.2C33.1333 235.893 32.1067 234.387 31.36 232.68C30.64 230.947 30.28 229.053 30.28 227C30.28 224.947 30.64 223.067 31.36 221.36C32.1067 219.627 33.1333 218.12 34.44 216.84C35.7733 215.533 37.3333 214.533 39.12 213.84C40.9067 213.12 42.8667 212.76 45 212.76C47.1067 212.76 49.0533 213.12 50.84 213.84C52.6267 214.533 54.1733 215.52 55.48 216.8C56.8133 218.08 57.84 219.587 58.56 221.32C59.3067 223.053 59.68 224.947 59.68 227C59.68 229.053 59.3067 230.947 58.56 232.68C57.84 234.413 56.8133 235.92 55.48 237.2C54.1733 238.48 52.6267 239.48 50.84 240.2C49.0533 240.893 47.1067 241.24 45 241.24ZM45 238.6C46.68 238.6 48.2267 238.32 49.64 237.76C51.08 237.173 52.32 236.36 53.36 235.32C54.4267 234.253 55.2533 233.027 55.84 231.64C56.4267 230.227 56.72 228.68 56.72 227C56.72 225.32 56.4267 223.787 55.84 222.4C55.2533 220.987 54.4267 219.76 53.36 218.72C52.32 217.653 51.08 216.84 49.64 216.28C48.2267 215.693 46.68 215.4 45 215.4C43.32 215.4 41.76 215.693 40.32 216.28C38.88 216.84 37.6267 217.653 36.56 218.72C35.52 219.76 34.6933 220.987 34.08 222.4C33.4933 223.787 33.2 225.32 33.2 227C33.2 228.653 33.4933 230.187 34.08 231.6C34.6933 233.013 35.52 234.253 36.56 235.32C37.6267 236.36 38.88 237.173 40.32 237.76C41.76 238.32 43.32 238.6 45 238.6ZM75.5034 241.24C73.7968 241.24 72.2768 240.96 70.9434 240.4C69.6368 239.84 68.5168 238.987 67.5834 237.84C66.6501 236.693 65.9434 235.28 65.4634 233.6C64.9834 231.893 64.7434 229.92 64.7434 227.68C64.7434 225.68 64.9301 223.933 65.3034 222.44C65.6768 220.92 66.1968 219.613 66.8634 218.52C67.5301 217.427 68.3034 216.507 69.1834 215.76C70.0901 214.987 71.0634 214.373 72.1034 213.92C73.1701 213.44 74.2634 213.08 75.3834 212.84L84.8234 210.64L85.3034 213.28L76.4234 215.28C75.8634 215.413 75.1834 215.6 74.3834 215.84C73.6101 216.08 72.8101 216.44 71.9834 216.92C71.1834 217.4 70.4368 218.067 69.7434 218.92C69.0501 219.773 68.4901 220.88 68.0634 222.24C67.6634 223.573 67.4634 225.24 67.4634 227.24C67.4634 227.667 67.4768 228.013 67.5034 228.28C67.5301 228.52 67.5568 228.787 67.5834 229.08C67.6368 229.347 67.6768 229.747 67.7034 230.28L66.4634 229.24C66.7568 227.613 67.3568 226.2 68.2634 225C69.1701 223.773 70.3034 222.827 71.6634 222.16C73.0501 221.467 74.5834 221.12 76.2634 221.12C78.2101 221.12 79.9434 221.547 81.4634 222.4C82.9834 223.227 84.1701 224.387 85.0234 225.88C85.9034 227.373 86.3434 229.107 86.3434 231.08C86.3434 233.027 85.8901 234.773 84.9834 236.32C84.1034 237.867 82.8501 239.08 81.2234 239.96C79.5968 240.813 77.6901 241.24 75.5034 241.24ZM75.8234 238.88C77.3168 238.88 78.6368 238.547 79.7834 237.88C80.9301 237.187 81.8234 236.253 82.4634 235.08C83.1301 233.907 83.4634 232.587 83.4634 231.12C83.4634 229.68 83.1301 228.4 82.4634 227.28C81.8234 226.16 80.9301 225.28 79.7834 224.64C78.6368 223.973 77.3034 223.64 75.7834 223.64C74.2901 223.64 72.9701 223.96 71.8234 224.6C70.6768 225.213 69.7701 226.08 69.1034 227.2C68.4634 228.32 68.1434 229.613 68.1434 231.08C68.1434 232.547 68.4634 233.867 69.1034 235.04C69.7701 236.213 70.6768 237.147 71.8234 237.84C72.9968 238.533 74.3301 238.88 75.8234 238.88ZM92.4306 241V220H95.2706V229.28H108.511V220H111.351V241H108.511V231.72H95.2706V241H92.4306ZM132.463 241V236.36L132.343 235.6V227.84C132.343 226.053 131.836 224.68 130.823 223.72C129.836 222.76 128.356 222.28 126.383 222.28C125.023 222.28 123.729 222.507 122.503 222.96C121.276 223.413 120.236 224.013 119.383 224.76L118.103 222.64C119.169 221.733 120.449 221.04 121.943 220.56C123.436 220.053 125.009 219.8 126.663 219.8C129.383 219.8 131.476 220.48 132.943 221.84C134.436 223.173 135.183 225.213 135.183 227.96V241H132.463ZM125.223 241.2C123.649 241.2 122.276 240.947 121.103 240.44C119.956 239.907 119.076 239.187 118.463 238.28C117.849 237.347 117.543 236.28 117.543 235.08C117.543 233.987 117.796 233 118.303 232.12C118.836 231.213 119.689 230.493 120.863 229.96C122.063 229.4 123.663 229.12 125.663 229.12H132.903V231.24H125.743C123.716 231.24 122.303 231.6 121.503 232.32C120.729 233.04 120.343 233.933 120.343 235C120.343 236.2 120.809 237.16 121.743 237.88C122.676 238.6 123.983 238.96 125.663 238.96C127.263 238.96 128.636 238.6 129.783 237.88C130.956 237.133 131.809 236.067 132.343 234.68L132.983 236.64C132.449 238.027 131.516 239.133 130.183 239.96C128.876 240.787 127.223 241.2 125.223 241.2ZM153.583 241.2C151.77 241.2 150.13 240.787 148.663 239.96C147.196 239.107 146.023 237.893 145.143 236.32C144.29 234.72 143.863 232.773 143.863 230.48C143.863 228.187 144.29 226.253 145.143 224.68C145.996 223.08 147.156 221.867 148.623 221.04C150.09 220.213 151.743 219.8 153.583 219.8C155.583 219.8 157.37 220.253 158.943 221.16C160.543 222.04 161.796 223.293 162.703 224.92C163.61 226.52 164.063 228.373 164.063 230.48C164.063 232.613 163.61 234.48 162.703 236.08C161.796 237.68 160.543 238.933 158.943 239.84C157.37 240.747 155.583 241.2 153.583 241.2ZM142.743 248.76V220H145.463V226.32L145.183 230.52L145.583 234.76V248.76H142.743ZM153.383 238.68C154.876 238.68 156.21 238.347 157.383 237.68C158.556 236.987 159.49 236.027 160.183 234.8C160.876 233.547 161.223 232.107 161.223 230.48C161.223 228.853 160.876 227.427 160.183 226.2C159.49 224.973 158.556 224.013 157.383 223.32C156.21 222.627 154.876 222.28 153.383 222.28C151.89 222.28 150.543 222.627 149.343 223.32C148.17 224.013 147.236 224.973 146.543 226.2C145.876 227.427 145.543 228.853 145.543 230.48C145.543 232.107 145.876 233.547 146.543 234.8C147.236 236.027 148.17 236.987 149.343 237.68C150.543 238.347 151.89 238.68 153.383 238.68ZM169.939 248.96C168.952 248.96 168.006 248.8 167.099 248.48C166.219 248.16 165.459 247.68 164.819 247.04L166.139 244.92C166.672 245.427 167.246 245.813 167.859 246.08C168.499 246.373 169.206 246.52 169.979 246.52C170.912 246.52 171.712 246.253 172.379 245.72C173.072 245.213 173.726 244.307 174.339 243L175.699 239.92L176.019 239.48L184.659 220H187.459L176.939 243.52C176.352 244.88 175.699 245.96 174.979 246.76C174.286 247.56 173.526 248.12 172.699 248.44C171.872 248.787 170.952 248.96 169.939 248.96ZM175.539 241.6L165.859 220H168.819L177.379 239.28L175.539 241.6ZM216.023 241L208.823 230.6L211.183 229.2L219.423 241H216.023ZM187.743 241L195.983 229.2L198.303 230.6L191.143 241H187.743ZM195.743 230.8L188.343 220H191.423L198.383 230.4L195.743 230.8ZM196.423 231.64V229.2H203.023V231.64H196.423ZM202.143 241V220H204.983V241H202.143ZM204.103 231.64V229.2H210.743V231.64H204.103ZM211.463 230.8L208.743 230.4L215.743 220H218.823L211.463 230.8ZM232.485 241.2C230.299 241.2 228.379 240.747 226.725 239.84C225.072 238.907 223.779 237.64 222.845 236.04C221.912 234.413 221.445 232.56 221.445 230.48C221.445 228.4 221.885 226.56 222.765 224.96C223.672 223.36 224.899 222.107 226.445 221.2C228.019 220.267 229.779 219.8 231.725 219.8C233.699 219.8 235.445 220.253 236.965 221.16C238.512 222.04 239.725 223.293 240.605 224.92C241.485 226.52 241.925 228.373 241.925 230.48C241.925 230.613 241.912 230.76 241.885 230.92C241.885 231.053 241.885 231.2 241.885 231.36H223.605V229.24H240.365L239.245 230.08C239.245 228.56 238.912 227.213 238.245 226.04C237.605 224.84 236.725 223.907 235.605 223.24C234.485 222.573 233.192 222.24 231.725 222.24C230.285 222.24 228.992 222.573 227.845 223.24C226.699 223.907 225.805 224.84 225.165 226.04C224.525 227.24 224.205 228.613 224.205 230.16V230.6C224.205 232.2 224.552 233.613 225.245 234.84C225.965 236.04 226.952 236.987 228.205 237.68C229.485 238.347 230.939 238.68 232.565 238.68C233.845 238.68 235.032 238.453 236.125 238C237.245 237.547 238.205 236.853 239.005 235.92L240.605 237.76C239.672 238.88 238.499 239.733 237.085 240.32C235.699 240.907 234.165 241.2 232.485 241.2ZM248.212 241V220H251.052V229.28H264.292V220H267.132V241H264.292V231.72H251.052V241H248.212ZM283.524 241.04L275.204 241V220H278.044V227.32L284.044 227.4C286.684 227.427 288.697 228.013 290.084 229.16C291.471 230.307 292.164 231.96 292.164 234.12C292.164 236.36 291.417 238.08 289.924 239.28C288.431 240.48 286.297 241.067 283.524 241.04ZM283.324 238.88C285.297 238.907 286.777 238.52 287.764 237.72C288.777 236.893 289.284 235.693 289.284 234.12C289.284 232.547 288.791 231.4 287.804 230.68C286.817 229.933 285.324 229.547 283.324 229.52L278.044 229.44V238.8L283.324 238.88ZM295.684 241V220H298.524V241H295.684Z" fill="white"/>
<path d="M93.72 398V370H117.28V398H114.36V371.76L115.12 372.56H95.88L96.64 371.76V398H93.72ZM124.248 398.24C123.928 398.24 123.594 398.213 123.248 398.16C122.928 398.107 122.581 398.04 122.208 397.96L122.408 395.52C122.594 395.547 122.768 395.587 122.928 395.64C123.114 395.667 123.274 395.68 123.408 395.68C124.261 395.68 124.941 395.36 125.448 394.72C125.981 394.08 126.381 393.227 126.648 392.16C126.914 391.093 127.101 389.893 127.208 388.56C127.314 387.2 127.408 385.84 127.488 384.48L127.848 377H143.248V398H140.408V378.64L141.128 379.48H129.688L130.368 378.6L130.048 384.68C129.968 386.493 129.821 388.227 129.608 389.88C129.421 391.533 129.114 392.987 128.688 394.24C128.288 395.493 127.728 396.48 127.008 397.2C126.288 397.893 125.368 398.24 124.248 398.24ZM164.361 398V393.36L164.241 392.6V384.84C164.241 383.053 163.735 381.68 162.721 380.72C161.735 379.76 160.255 379.28 158.281 379.28C156.921 379.28 155.628 379.507 154.401 379.96C153.175 380.413 152.135 381.013 151.281 381.76L150.001 379.64C151.068 378.733 152.348 378.04 153.841 377.56C155.335 377.053 156.908 376.8 158.561 376.8C161.281 376.8 163.375 377.48 164.841 378.84C166.335 380.173 167.081 382.213 167.081 384.96V398H164.361ZM157.121 398.2C155.548 398.2 154.175 397.947 153.001 397.44C151.855 396.907 150.975 396.187 150.361 395.28C149.748 394.347 149.441 393.28 149.441 392.08C149.441 390.987 149.695 390 150.201 389.12C150.735 388.213 151.588 387.493 152.761 386.96C153.961 386.4 155.561 386.12 157.561 386.12H164.801V388.24H157.641C155.615 388.24 154.201 388.6 153.401 389.32C152.628 390.04 152.241 390.933 152.241 392C152.241 393.2 152.708 394.16 153.641 394.88C154.575 395.6 155.881 395.96 157.561 395.96C159.161 395.96 160.535 395.6 161.681 394.88C162.855 394.133 163.708 393.067 164.241 391.68L164.881 393.64C164.348 395.027 163.415 396.133 162.081 396.96C160.775 397.787 159.121 398.2 157.121 398.2ZM174.642 398V377H177.482V386.28H190.722V377H193.562V398H190.722V388.72H177.482V398H174.642ZM210.634 398.2C208.447 398.2 206.527 397.747 204.874 396.84C203.22 395.907 201.927 394.64 200.994 393.04C200.06 391.413 199.594 389.56 199.594 387.48C199.594 385.4 200.034 383.56 200.914 381.96C201.82 380.36 203.047 379.107 204.594 378.2C206.167 377.267 207.927 376.8 209.874 376.8C211.847 376.8 213.594 377.253 215.114 378.16C216.66 379.04 217.874 380.293 218.754 381.92C219.634 383.52 220.074 385.373 220.074 387.48C220.074 387.613 220.06 387.76 220.034 387.92C220.034 388.053 220.034 388.2 220.034 388.36H201.754V386.24H218.514L217.394 387.08C217.394 385.56 217.06 384.213 216.394 383.04C215.754 381.84 214.874 380.907 213.754 380.24C212.634 379.573 211.34 379.24 209.874 379.24C208.434 379.24 207.14 379.573 205.994 380.24C204.847 380.907 203.954 381.84 203.314 383.04C202.674 384.24 202.354 385.613 202.354 387.16V387.6C202.354 389.2 202.7 390.613 203.394 391.84C204.114 393.04 205.1 393.987 206.354 394.68C207.634 395.347 209.087 395.68 210.714 395.68C211.994 395.68 213.18 395.453 214.274 395C215.394 394.547 216.354 393.853 217.154 392.92L218.754 394.76C217.82 395.88 216.647 396.733 215.234 397.32C213.847 397.907 212.314 398.2 210.634 398.2ZM229.423 398V378.72L230.143 379.48H221.463V377H240.223V379.48H231.543L232.263 378.72V398H229.423Z" fill="white"/>
<path d="M78.248 329H59.144V287.816H39.8V272.744H78.248V329ZM123.319 313.688C126.391 313.688 128.967 313.528 131.047 313.208C133.127 312.888 134.807 312.264 136.087 311.336C137.367 310.408 138.295 309.096 138.871 307.4C139.447 305.672 139.767 303.416 139.831 300.632C139.799 297.88 139.495 295.656 138.919 293.96C138.343 292.264 137.415 290.952 136.135 290.024C134.855 289.064 133.159 288.424 131.047 288.104C128.967 287.752 126.391 287.576 123.319 287.576C120.247 287.576 117.655 287.752 115.543 288.104C113.463 288.424 111.783 289.064 110.503 290.024C109.223 290.952 108.295 292.264 107.719 293.96C107.143 295.656 106.839 297.88 106.807 300.632C106.871 303.416 107.191 305.672 107.767 307.4C108.343 309.096 109.271 310.408 110.551 311.336C111.831 312.264 113.511 312.888 115.591 313.208C117.671 313.528 120.247 313.688 123.319 313.688ZM123.319 270.776C126.839 270.712 130.167 270.76 133.303 270.92C136.439 271.048 139.319 271.448 141.943 272.12C144.567 272.76 146.919 273.736 148.999 275.048C151.111 276.328 152.887 278.088 154.327 280.328C155.799 282.568 156.919 285.352 157.687 288.68C158.455 291.976 158.823 295.96 158.791 300.632C158.823 305.176 158.455 309.08 157.687 312.344C156.919 315.608 155.799 318.36 154.327 320.6C152.887 322.84 151.111 324.632 148.999 325.976C146.919 327.32 144.567 328.328 141.943 329C139.319 329.704 136.439 330.152 133.303 330.344C130.167 330.536 126.839 330.6 123.319 330.536C119.799 330.6 116.471 330.536 113.335 330.344C110.199 330.152 107.319 329.704 104.695 329C102.071 328.328 99.7189 327.32 97.6389 325.976C95.5589 324.632 93.7829 322.84 92.3109 320.6C90.8709 318.36 89.7669 315.608 88.9989 312.344C88.2309 309.08 87.8469 305.176 87.8469 300.632C87.8469 295.96 88.2309 291.976 88.9989 288.68C89.7669 285.352 90.8709 282.568 92.3109 280.328C93.7829 278.088 95.5589 276.328 97.6389 275.048C99.7189 273.736 102.071 272.76 104.695 272.12C107.319 271.448 110.199 271.048 113.335 270.92C116.471 270.76 119.799 270.712 123.319 270.776ZM206.826 329H187.722V287.816H168.378V272.744H206.826V329ZM247.879 307.88C247.303 307.912 246.471 307.96 245.383 308.024C244.295 308.088 243.175 308.216 242.023 308.408C240.903 308.6 239.863 308.888 238.903 309.272C237.943 309.656 237.303 310.216 236.983 310.952V313.784H288.103V328.808H217.831V310.712H217.975C218.231 308.888 218.759 307.192 219.559 305.624C220.391 304.024 221.575 302.552 223.111 301.208C225.095 299.544 227.399 298.248 230.023 297.32C232.647 296.392 235.383 295.688 238.231 295.208C241.079 294.728 243.943 294.408 246.823 294.248C249.735 294.056 252.455 293.896 254.983 293.768C255.367 293.736 255.879 293.72 256.519 293.72C257.159 293.688 257.831 293.672 258.535 293.672C259.239 293.64 259.911 293.608 260.551 293.576C261.191 293.544 261.703 293.512 262.087 293.48C262.503 293.448 263.063 293.432 263.767 293.432C264.471 293.4 265.239 293.352 266.071 293.288C266.903 293.192 267.735 293.064 268.567 292.904C269.399 292.744 270.151 292.52 270.823 292.232C271.527 291.944 272.087 291.592 272.503 291.176C272.951 290.728 273.175 290.184 273.175 289.544C273.175 288.872 272.903 288.328 272.359 287.912C271.847 287.464 270.759 287.16 269.095 287C267.879 286.872 266.583 286.792 265.207 286.76C263.863 286.696 262.455 286.664 260.983 286.664C258.423 286.664 255.767 286.744 253.015 286.904C250.263 287.032 247.543 287.224 244.855 287.48C242.199 287.704 239.623 287.976 237.127 288.296C234.663 288.584 232.439 288.888 230.455 289.208C228.503 289.528 226.855 289.848 225.511 290.168C224.167 290.456 223.271 290.712 222.823 290.936V275.912C224.295 275.432 226.279 274.936 228.775 274.424C231.271 273.912 234.087 273.448 237.223 273.032C240.359 272.584 243.719 272.232 247.303 271.976C250.887 271.688 254.487 271.544 258.103 271.544C262.135 271.544 266.055 271.768 269.863 272.216C273.671 272.632 277.111 273.352 280.183 274.376C283.287 275.4 285.863 276.776 287.911 278.504C289.991 280.2 291.287 282.344 291.799 284.936C292.375 287.848 292.279 290.616 291.511 293.24C290.743 295.864 289.191 298.168 286.855 300.152C284.839 301.816 282.519 303.112 279.895 304.04C277.303 304.968 274.567 305.688 271.687 306.2C268.839 306.68 265.975 307.016 263.095 307.208C260.215 307.368 257.511 307.512 254.983 307.64C254.599 307.64 254.071 307.656 253.399 307.688C252.759 307.688 252.087 307.704 251.383 307.736C250.679 307.768 250.007 307.8 249.367 307.832C248.727 307.832 248.231 307.848 247.879 307.88Z" fill="white"/>
<path d="M374 241.24C371.893 241.24 369.933 240.893 368.12 240.2C366.333 239.48 364.773 238.48 363.44 237.2C362.133 235.893 361.107 234.387 360.36 232.68C359.64 230.947 359.28 229.053 359.28 227C359.28 224.947 359.64 223.067 360.36 221.36C361.107 219.627 362.133 218.12 363.44 216.84C364.773 215.533 366.333 214.533 368.12 213.84C369.907 213.12 371.867 212.76 374 212.76C376.107 212.76 378.053 213.12 379.84 213.84C381.627 214.533 383.173 215.52 384.48 216.8C385.813 218.08 386.84 219.587 387.56 221.32C388.307 223.053 388.68 224.947 388.68 227C388.68 229.053 388.307 230.947 387.56 232.68C386.84 234.413 385.813 235.92 384.48 237.2C383.173 238.48 381.627 239.48 379.84 240.2C378.053 240.893 376.107 241.24 374 241.24ZM374 238.6C375.68 238.6 377.227 238.32 378.64 237.76C380.08 237.173 381.32 236.36 382.36 235.32C383.427 234.253 384.253 233.027 384.84 231.64C385.427 230.227 385.72 228.68 385.72 227C385.72 225.32 385.427 223.787 384.84 222.4C384.253 220.987 383.427 219.76 382.36 218.72C381.32 217.653 380.08 216.84 378.64 216.28C377.227 215.693 375.68 215.4 374 215.4C372.32 215.4 370.76 215.693 369.32 216.28C367.88 216.84 366.627 217.653 365.56 218.72C364.52 219.76 363.693 220.987 363.08 222.4C362.493 223.787 362.2 225.32 362.2 227C362.2 228.653 362.493 230.187 363.08 231.6C363.693 233.013 364.52 234.253 365.56 235.32C366.627 236.36 367.88 237.173 369.32 237.76C370.76 238.32 372.32 238.6 374 238.6ZM404.503 241.24C402.797 241.24 401.277 240.96 399.943 240.4C398.637 239.84 397.517 238.987 396.583 237.84C395.65 236.693 394.943 235.28 394.463 233.6C393.983 231.893 393.743 229.92 393.743 227.68C393.743 225.68 393.93 223.933 394.303 222.44C394.677 220.92 395.197 219.613 395.863 218.52C396.53 217.427 397.303 216.507 398.183 215.76C399.09 214.987 400.063 214.373 401.103 213.92C402.17 213.44 403.263 213.08 404.383 212.84L413.823 210.64L414.303 213.28L405.423 215.28C404.863 215.413 404.183 215.6 403.383 215.84C402.61 216.08 401.81 216.44 400.983 216.92C400.183 217.4 399.437 218.067 398.743 218.92C398.05 219.773 397.49 220.88 397.063 222.24C396.663 223.573 396.463 225.24 396.463 227.24C396.463 227.667 396.477 228.013 396.503 228.28C396.53 228.52 396.557 228.787 396.583 229.08C396.637 229.347 396.677 229.747 396.703 230.28L395.463 229.24C395.757 227.613 396.357 226.2 397.263 225C398.17 223.773 399.303 222.827 400.663 222.16C402.05 221.467 403.583 221.12 405.263 221.12C407.21 221.12 408.943 221.547 410.463 222.4C411.983 223.227 413.17 224.387 414.023 225.88C414.903 227.373 415.343 229.107 415.343 231.08C415.343 233.027 414.89 234.773 413.983 236.32C413.103 237.867 411.85 239.08 410.223 239.96C408.597 240.813 406.69 241.24 404.503 241.24ZM404.823 238.88C406.317 238.88 407.637 238.547 408.783 237.88C409.93 237.187 410.823 236.253 411.463 235.08C412.13 233.907 412.463 232.587 412.463 231.12C412.463 229.68 412.13 228.4 411.463 227.28C410.823 226.16 409.93 225.28 408.783 224.64C407.637 223.973 406.303 223.64 404.783 223.64C403.29 223.64 401.97 223.96 400.823 224.6C399.677 225.213 398.77 226.08 398.103 227.2C397.463 228.32 397.143 229.613 397.143 231.08C397.143 232.547 397.463 233.867 398.103 235.04C398.77 236.213 399.677 237.147 400.823 237.84C401.997 238.533 403.33 238.88 404.823 238.88ZM421.431 241V220H424.271V229.28H437.511V220H440.351V241H437.511V231.72H424.271V241H421.431ZM461.463 241V236.36L461.343 235.6V227.84C461.343 226.053 460.836 224.68 459.823 223.72C458.836 222.76 457.356 222.28 455.383 222.28C454.023 222.28 452.729 222.507 451.503 222.96C450.276 223.413 449.236 224.013 448.383 224.76L447.103 222.64C448.169 221.733 449.449 221.04 450.943 220.56C452.436 220.053 454.009 219.8 455.663 219.8C458.383 219.8 460.476 220.48 461.943 221.84C463.436 223.173 464.183 225.213 464.183 227.96V241H461.463ZM454.223 241.2C452.649 241.2 451.276 240.947 450.103 240.44C448.956 239.907 448.076 239.187 447.463 238.28C446.849 237.347 446.543 236.28 446.543 235.08C446.543 233.987 446.796 233 447.303 232.12C447.836 231.213 448.689 230.493 449.863 229.96C451.063 229.4 452.663 229.12 454.663 229.12H461.903V231.24H454.743C452.716 231.24 451.303 231.6 450.503 232.32C449.729 233.04 449.343 233.933 449.343 235C449.343 236.2 449.809 237.16 450.743 237.88C451.676 238.6 452.983 238.96 454.663 238.96C456.263 238.96 457.636 238.6 458.783 237.88C459.956 237.133 460.809 236.067 461.343 234.68L461.983 236.64C461.449 238.027 460.516 239.133 459.183 239.96C457.876 240.787 456.223 241.2 454.223 241.2ZM482.583 241.2C480.77 241.2 479.13 240.787 477.663 239.96C476.196 239.107 475.023 237.893 474.143 236.32C473.29 234.72 472.863 232.773 472.863 230.48C472.863 228.187 473.29 226.253 474.143 224.68C474.996 223.08 476.156 221.867 477.623 221.04C479.09 220.213 480.743 219.8 482.583 219.8C484.583 219.8 486.37 220.253 487.943 221.16C489.543 222.04 490.796 223.293 491.703 224.92C492.61 226.52 493.063 228.373 493.063 230.48C493.063 232.613 492.61 234.48 491.703 236.08C490.796 237.68 489.543 238.933 487.943 239.84C486.37 240.747 484.583 241.2 482.583 241.2ZM471.743 248.76V220H474.463V226.32L474.183 230.52L474.583 234.76V248.76H471.743ZM482.383 238.68C483.876 238.68 485.21 238.347 486.383 237.68C487.556 236.987 488.49 236.027 489.183 234.8C489.876 233.547 490.223 232.107 490.223 230.48C490.223 228.853 489.876 227.427 489.183 226.2C488.49 224.973 487.556 224.013 486.383 223.32C485.21 222.627 483.876 222.28 482.383 222.28C480.89 222.28 479.543 222.627 478.343 223.32C477.17 224.013 476.236 224.973 475.543 226.2C474.876 227.427 474.543 228.853 474.543 230.48C474.543 232.107 474.876 233.547 475.543 234.8C476.236 236.027 477.17 236.987 478.343 237.68C479.543 238.347 480.89 238.68 482.383 238.68ZM498.939 248.96C497.952 248.96 497.006 248.8 496.099 248.48C495.219 248.16 494.459 247.68 493.819 247.04L495.139 244.92C495.672 245.427 496.246 245.813 496.859 246.08C497.499 246.373 498.206 246.52 498.979 246.52C499.912 246.52 500.712 246.253 501.379 245.72C502.072 245.213 502.726 244.307 503.339 243L504.699 239.92L505.019 239.48L513.659 220H516.459L505.939 243.52C505.352 244.88 504.699 245.96 503.979 246.76C503.286 247.56 502.526 248.12 501.699 248.44C500.872 248.787 499.952 248.96 498.939 248.96ZM504.539 241.6L494.859 220H497.819L506.379 239.28L504.539 241.6ZM545.023 241L537.823 230.6L540.183 229.2L548.423 241H545.023ZM516.743 241L524.983 229.2L527.303 230.6L520.143 241H516.743ZM524.743 230.8L517.343 220H520.423L527.383 230.4L524.743 230.8ZM525.423 231.64V229.2H532.023V231.64H525.423ZM531.143 241V220H533.983V241H531.143ZM533.103 231.64V229.2H539.743V231.64H533.103ZM540.463 230.8L537.743 230.4L544.743 220H547.823L540.463 230.8ZM561.485 241.2C559.299 241.2 557.379 240.747 555.725 239.84C554.072 238.907 552.779 237.64 551.845 236.04C550.912 234.413 550.445 232.56 550.445 230.48C550.445 228.4 550.885 226.56 551.765 224.96C552.672 223.36 553.899 222.107 555.445 221.2C557.019 220.267 558.779 219.8 560.725 219.8C562.699 219.8 564.445 220.253 565.965 221.16C567.512 222.04 568.725 223.293 569.605 224.92C570.485 226.52 570.925 228.373 570.925 230.48C570.925 230.613 570.912 230.76 570.885 230.92C570.885 231.053 570.885 231.2 570.885 231.36H552.605V229.24H569.365L568.245 230.08C568.245 228.56 567.912 227.213 567.245 226.04C566.605 224.84 565.725 223.907 564.605 223.24C563.485 222.573 562.192 222.24 560.725 222.24C559.285 222.24 557.992 222.573 556.845 223.24C555.699 223.907 554.805 224.84 554.165 226.04C553.525 227.24 553.205 228.613 553.205 230.16V230.6C553.205 232.2 553.552 233.613 554.245 234.84C554.965 236.04 555.952 236.987 557.205 237.68C558.485 238.347 559.939 238.68 561.565 238.68C562.845 238.68 564.032 238.453 565.125 238C566.245 237.547 567.205 236.853 568.005 235.92L569.605 237.76C568.672 238.88 567.499 239.733 566.085 240.32C564.699 240.907 563.165 241.2 561.485 241.2ZM577.212 241V220H580.052V229.28H593.292V220H596.132V241H593.292V231.72H580.052V241H577.212ZM612.524 241.04L604.204 241V220H607.044V227.32L613.044 227.4C615.684 227.427 617.697 228.013 619.084 229.16C620.471 230.307 621.164 231.96 621.164 234.12C621.164 236.36 620.417 238.08 618.924 239.28C617.431 240.48 615.297 241.067 612.524 241.04ZM612.324 238.88C614.297 238.907 615.777 238.52 616.764 237.72C617.777 236.893 618.284 235.693 618.284 234.12C618.284 232.547 617.791 231.4 616.804 230.68C615.817 229.933 614.324 229.547 612.324 229.52L607.044 229.44V238.8L612.324 238.88ZM624.684 241V220H627.524V241H624.684Z" fill="white"/>
<path d="M422.72 398V370H446.28V398H443.36V371.76L444.12 372.56H424.88L425.64 371.76V398H422.72ZM453.248 398.24C452.928 398.24 452.594 398.213 452.248 398.16C451.928 398.107 451.581 398.04 451.208 397.96L451.408 395.52C451.594 395.547 451.768 395.587 451.928 395.64C452.114 395.667 452.274 395.68 452.408 395.68C453.261 395.68 453.941 395.36 454.448 394.72C454.981 394.08 455.381 393.227 455.648 392.16C455.914 391.093 456.101 389.893 456.208 388.56C456.314 387.2 456.408 385.84 456.488 384.48L456.848 377H472.248V398H469.408V378.64L470.128 379.48H458.688L459.368 378.6L459.048 384.68C458.968 386.493 458.821 388.227 458.608 389.88C458.421 391.533 458.114 392.987 457.688 394.24C457.288 395.493 456.728 396.48 456.008 397.2C455.288 397.893 454.368 398.24 453.248 398.24ZM493.361 398V393.36L493.241 392.6V384.84C493.241 383.053 492.735 381.68 491.721 380.72C490.735 379.76 489.255 379.28 487.281 379.28C485.921 379.28 484.628 379.507 483.401 379.96C482.175 380.413 481.135 381.013 480.281 381.76L479.001 379.64C480.068 378.733 481.348 378.04 482.841 377.56C484.335 377.053 485.908 376.8 487.561 376.8C490.281 376.8 492.375 377.48 493.841 378.84C495.335 380.173 496.081 382.213 496.081 384.96V398H493.361ZM486.121 398.2C484.548 398.2 483.175 397.947 482.001 397.44C480.855 396.907 479.975 396.187 479.361 395.28C478.748 394.347 478.441 393.28 478.441 392.08C478.441 390.987 478.695 390 479.201 389.12C479.735 388.213 480.588 387.493 481.761 386.96C482.961 386.4 484.561 386.12 486.561 386.12H493.801V388.24H486.641C484.615 388.24 483.201 388.6 482.401 389.32C481.628 390.04 481.241 390.933 481.241 392C481.241 393.2 481.708 394.16 482.641 394.88C483.575 395.6 484.881 395.96 486.561 395.96C488.161 395.96 489.535 395.6 490.681 394.88C491.855 394.133 492.708 393.067 493.241 391.68L493.881 393.64C493.348 395.027 492.415 396.133 491.081 396.96C489.775 397.787 488.121 398.2 486.121 398.2ZM503.642 398V377H506.482V386.28H519.722V377H522.562V398H519.722V388.72H506.482V398H503.642ZM539.634 398.2C537.447 398.2 535.527 397.747 533.874 396.84C532.22 395.907 530.927 394.64 529.994 393.04C529.06 391.413 528.594 389.56 528.594 387.48C528.594 385.4 529.034 383.56 529.914 381.96C530.82 380.36 532.047 379.107 533.594 378.2C535.167 377.267 536.927 376.8 538.874 376.8C540.847 376.8 542.594 377.253 544.114 378.16C545.66 379.04 546.874 380.293 547.754 381.92C548.634 383.52 549.074 385.373 549.074 387.48C549.074 387.613 549.06 387.76 549.034 387.92C549.034 388.053 549.034 388.2 549.034 388.36H530.754V386.24H547.514L546.394 387.08C546.394 385.56 546.06 384.213 545.394 383.04C544.754 381.84 543.874 380.907 542.754 380.24C541.634 379.573 540.34 379.24 538.874 379.24C537.434 379.24 536.14 379.573 534.994 380.24C533.847 380.907 532.954 381.84 532.314 383.04C531.674 384.24 531.354 385.613 531.354 387.16V387.6C531.354 389.2 531.7 390.613 532.394 391.84C533.114 393.04 534.1 393.987 535.354 394.68C536.634 395.347 538.087 395.68 539.714 395.68C540.994 395.68 542.18 395.453 543.274 395C544.394 394.547 545.354 393.853 546.154 392.92L547.754 394.76C546.82 395.88 545.647 396.733 544.234 397.32C542.847 397.907 541.314 398.2 539.634 398.2ZM558.423 398V378.72L559.143 379.48H550.463V377H569.223V379.48H560.543L561.263 378.72V398H558.423Z" fill="white"/>
<path d="M402.248 329H383.144V287.816H363.8V272.744H402.248V329ZM494.935 316.184H488.071V329H468.967V316.184H411.847L440.743 272.744H461.911L443.767 301.112H468.967V285.464H488.071V301.112H494.935V316.184ZM540.423 284.744C543.367 284.776 546.343 284.888 549.351 285.08C552.359 285.272 555.255 285.64 558.039 286.184C560.855 286.696 563.479 287.448 565.911 288.44C568.343 289.432 570.439 290.776 572.199 292.472C573.959 294.136 575.319 296.216 576.279 298.712C577.239 301.176 577.639 304.168 577.479 307.688C577.639 311.208 577.239 314.216 576.279 316.712C575.319 319.208 573.959 321.304 572.199 323C570.439 324.664 568.343 325.992 565.911 326.984C563.479 327.976 560.855 328.728 558.039 329.24C555.255 329.784 552.359 330.136 549.351 330.296C546.343 330.488 543.367 330.616 540.423 330.68C537.511 330.616 534.583 330.472 531.639 330.248C528.695 330.056 525.863 329.672 523.143 329.096C520.455 328.552 517.943 327.784 515.607 326.792C513.271 325.768 511.255 324.424 509.559 322.76C507.895 321.064 506.599 319 505.671 316.568C504.775 314.104 504.391 311.144 504.519 307.688C504.423 304.968 504.647 302.568 505.191 300.488C505.767 298.408 506.615 296.568 507.735 294.968L521.943 272.648L544.647 272.456L536.343 284.888C537.047 284.856 537.735 284.84 538.407 284.84C539.079 284.808 539.751 284.776 540.423 284.744ZM541.575 315.656C543.783 315.656 545.863 315.624 547.815 315.56C549.767 315.496 551.479 315.224 552.951 314.744C554.455 314.232 555.671 313.432 556.599 312.344C557.527 311.256 558.055 309.704 558.183 307.688C558.055 305.672 557.527 304.12 556.599 303.032C555.671 301.944 554.455 301.16 552.951 300.68C551.479 300.2 549.767 299.928 547.815 299.864C545.863 299.8 543.783 299.768 541.575 299.768H540.423C538.247 299.768 536.183 299.8 534.231 299.864C532.279 299.928 530.551 300.2 529.047 300.68C527.575 301.16 526.375 301.944 525.447 303.032C524.551 304.12 524.023 305.672 523.863 307.688C524.023 309.704 524.551 311.256 525.447 312.344C526.375 313.432 527.575 314.232 529.047 314.744C530.551 315.224 532.279 315.496 534.231 315.56C536.183 315.624 538.247 315.656 540.423 315.656H541.575ZM625.561 329H606.457V287.816H587.113V272.744H625.561V329Z" fill="white"/>
<path d="M703 241.24C700.893 241.24 698.933 240.893 697.12 240.2C695.333 239.48 693.773 238.48 692.44 237.2C691.133 235.893 690.107 234.387 689.36 232.68C688.64 230.947 688.28 229.053 688.28 227C688.28 224.947 688.64 223.067 689.36 221.36C690.107 219.627 691.133 218.12 692.44 216.84C693.773 215.533 695.333 214.533 697.12 213.84C698.907 213.12 700.867 212.76 703 212.76C705.107 212.76 707.053 213.12 708.84 213.84C710.627 214.533 712.173 215.52 713.48 216.8C714.813 218.08 715.84 219.587 716.56 221.32C717.307 223.053 717.68 224.947 717.68 227C717.68 229.053 717.307 230.947 716.56 232.68C715.84 234.413 714.813 235.92 713.48 237.2C712.173 238.48 710.627 239.48 708.84 240.2C707.053 240.893 705.107 241.24 703 241.24ZM703 238.6C704.68 238.6 706.227 238.32 707.64 237.76C709.08 237.173 710.32 236.36 711.36 235.32C712.427 234.253 713.253 233.027 713.84 231.64C714.427 230.227 714.72 228.68 714.72 227C714.72 225.32 714.427 223.787 713.84 222.4C713.253 220.987 712.427 219.76 711.36 218.72C710.32 217.653 709.08 216.84 707.64 216.28C706.227 215.693 704.68 215.4 703 215.4C701.32 215.4 699.76 215.693 698.32 216.28C696.88 216.84 695.627 217.653 694.56 218.72C693.52 219.76 692.693 220.987 692.08 222.4C691.493 223.787 691.2 225.32 691.2 227C691.2 228.653 691.493 230.187 692.08 231.6C692.693 233.013 693.52 234.253 694.56 235.32C695.627 236.36 696.88 237.173 698.32 237.76C699.76 238.32 701.32 238.6 703 238.6ZM733.503 241.24C731.797 241.24 730.277 240.96 728.943 240.4C727.637 239.84 726.517 238.987 725.583 237.84C724.65 236.693 723.943 235.28 723.463 233.6C722.983 231.893 722.743 229.92 722.743 227.68C722.743 225.68 722.93 223.933 723.303 222.44C723.677 220.92 724.197 219.613 724.863 218.52C725.53 217.427 726.303 216.507 727.183 215.76C728.09 214.987 729.063 214.373 730.103 213.92C731.17 213.44 732.263 213.08 733.383 212.84L742.823 210.64L743.303 213.28L734.423 215.28C733.863 215.413 733.183 215.6 732.383 215.84C731.61 216.08 730.81 216.44 729.983 216.92C729.183 217.4 728.437 218.067 727.743 218.92C727.05 219.773 726.49 220.88 726.063 222.24C725.663 223.573 725.463 225.24 725.463 227.24C725.463 227.667 725.477 228.013 725.503 228.28C725.53 228.52 725.557 228.787 725.583 229.08C725.637 229.347 725.677 229.747 725.703 230.28L724.463 229.24C724.757 227.613 725.357 226.2 726.263 225C727.17 223.773 728.303 222.827 729.663 222.16C731.05 221.467 732.583 221.12 734.263 221.12C736.21 221.12 737.943 221.547 739.463 222.4C740.983 223.227 742.17 224.387 743.023 225.88C743.903 227.373 744.343 229.107 744.343 231.08C744.343 233.027 743.89 234.773 742.983 236.32C742.103 237.867 740.85 239.08 739.223 239.96C737.597 240.813 735.69 241.24 733.503 241.24ZM733.823 238.88C735.317 238.88 736.637 238.547 737.783 237.88C738.93 237.187 739.823 236.253 740.463 235.08C741.13 233.907 741.463 232.587 741.463 231.12C741.463 229.68 741.13 228.4 740.463 227.28C739.823 226.16 738.93 225.28 737.783 224.64C736.637 223.973 735.303 223.64 733.783 223.64C732.29 223.64 730.97 223.96 729.823 224.6C728.677 225.213 727.77 226.08 727.103 227.2C726.463 228.32 726.143 229.613 726.143 231.08C726.143 232.547 726.463 233.867 727.103 235.04C727.77 236.213 728.677 237.147 729.823 237.84C730.997 238.533 732.33 238.88 733.823 238.88ZM750.431 241V220H753.271V229.28H766.511V220H769.351V241H766.511V231.72H753.271V241H750.431ZM790.463 241V236.36L790.343 235.6V227.84C790.343 226.053 789.836 224.68 788.823 223.72C787.836 222.76 786.356 222.28 784.383 222.28C783.023 222.28 781.729 222.507 780.503 222.96C779.276 223.413 778.236 224.013 777.383 224.76L776.103 222.64C777.169 221.733 778.449 221.04 779.943 220.56C781.436 220.053 783.009 219.8 784.663 219.8C787.383 219.8 789.476 220.48 790.943 221.84C792.436 223.173 793.183 225.213 793.183 227.96V241H790.463ZM783.223 241.2C781.649 241.2 780.276 240.947 779.103 240.44C777.956 239.907 777.076 239.187 776.463 238.28C775.849 237.347 775.543 236.28 775.543 235.08C775.543 233.987 775.796 233 776.303 232.12C776.836 231.213 777.689 230.493 778.863 229.96C780.063 229.4 781.663 229.12 783.663 229.12H790.903V231.24H783.743C781.716 231.24 780.303 231.6 779.503 232.32C778.729 233.04 778.343 233.933 778.343 235C778.343 236.2 778.809 237.16 779.743 237.88C780.676 238.6 781.983 238.96 783.663 238.96C785.263 238.96 786.636 238.6 787.783 237.88C788.956 237.133 789.809 236.067 790.343 234.68L790.983 236.64C790.449 238.027 789.516 239.133 788.183 239.96C786.876 240.787 785.223 241.2 783.223 241.2ZM811.583 241.2C809.77 241.2 808.13 240.787 806.663 239.96C805.196 239.107 804.023 237.893 803.143 236.32C802.29 234.72 801.863 232.773 801.863 230.48C801.863 228.187 802.29 226.253 803.143 224.68C803.996 223.08 805.156 221.867 806.623 221.04C808.09 220.213 809.743 219.8 811.583 219.8C813.583 219.8 815.37 220.253 816.943 221.16C818.543 222.04 819.796 223.293 820.703 224.92C821.61 226.52 822.063 228.373 822.063 230.48C822.063 232.613 821.61 234.48 820.703 236.08C819.796 237.68 818.543 238.933 816.943 239.84C815.37 240.747 813.583 241.2 811.583 241.2ZM800.743 248.76V220H803.463V226.32L803.183 230.52L803.583 234.76V248.76H800.743ZM811.383 238.68C812.876 238.68 814.21 238.347 815.383 237.68C816.556 236.987 817.49 236.027 818.183 234.8C818.876 233.547 819.223 232.107 819.223 230.48C819.223 228.853 818.876 227.427 818.183 226.2C817.49 224.973 816.556 224.013 815.383 223.32C814.21 222.627 812.876 222.28 811.383 222.28C809.89 222.28 808.543 222.627 807.343 223.32C806.17 224.013 805.236 224.973 804.543 226.2C803.876 227.427 803.543 228.853 803.543 230.48C803.543 232.107 803.876 233.547 804.543 234.8C805.236 236.027 806.17 236.987 807.343 237.68C808.543 238.347 809.89 238.68 811.383 238.68ZM827.939 248.96C826.952 248.96 826.006 248.8 825.099 248.48C824.219 248.16 823.459 247.68 822.819 247.04L824.139 244.92C824.672 245.427 825.246 245.813 825.859 246.08C826.499 246.373 827.206 246.52 827.979 246.52C828.912 246.52 829.712 246.253 830.379 245.72C831.072 245.213 831.726 244.307 832.339 243L833.699 239.92L834.019 239.48L842.659 220H845.459L834.939 243.52C834.352 244.88 833.699 245.96 832.979 246.76C832.286 247.56 831.526 248.12 830.699 248.44C829.872 248.787 828.952 248.96 827.939 248.96ZM833.539 241.6L823.859 220H826.819L835.379 239.28L833.539 241.6ZM874.023 241L866.823 230.6L869.183 229.2L877.423 241H874.023ZM845.743 241L853.983 229.2L856.303 230.6L849.143 241H845.743ZM853.743 230.8L846.343 220H849.423L856.383 230.4L853.743 230.8ZM854.423 231.64V229.2H861.023V231.64H854.423ZM860.143 241V220H862.983V241H860.143ZM862.103 231.64V229.2H868.743V231.64H862.103ZM869.463 230.8L866.743 230.4L873.743 220H876.823L869.463 230.8ZM890.485 241.2C888.299 241.2 886.379 240.747 884.725 239.84C883.072 238.907 881.779 237.64 880.845 236.04C879.912 234.413 879.445 232.56 879.445 230.48C879.445 228.4 879.885 226.56 880.765 224.96C881.672 223.36 882.899 222.107 884.445 221.2C886.019 220.267 887.779 219.8 889.725 219.8C891.699 219.8 893.445 220.253 894.965 221.16C896.512 222.04 897.725 223.293 898.605 224.92C899.485 226.52 899.925 228.373 899.925 230.48C899.925 230.613 899.912 230.76 899.885 230.92C899.885 231.053 899.885 231.2 899.885 231.36H881.605V229.24H898.365L897.245 230.08C897.245 228.56 896.912 227.213 896.245 226.04C895.605 224.84 894.725 223.907 893.605 223.24C892.485 222.573 891.192 222.24 889.725 222.24C888.285 222.24 886.992 222.573 885.845 223.24C884.699 223.907 883.805 224.84 883.165 226.04C882.525 227.24 882.205 228.613 882.205 230.16V230.6C882.205 232.2 882.552 233.613 883.245 234.84C883.965 236.04 884.952 236.987 886.205 237.68C887.485 238.347 888.939 238.68 890.565 238.68C891.845 238.68 893.032 238.453 894.125 238C895.245 237.547 896.205 236.853 897.005 235.92L898.605 237.76C897.672 238.88 896.499 239.733 895.085 240.32C893.699 240.907 892.165 241.2 890.485 241.2ZM906.212 241V220H909.052V229.28H922.292V220H925.132V241H922.292V231.72H909.052V241H906.212ZM941.524 241.04L933.204 241V220H936.044V227.32L942.044 227.4C944.684 227.427 946.697 228.013 948.084 229.16C949.471 230.307 950.164 231.96 950.164 234.12C950.164 236.36 949.417 238.08 947.924 239.28C946.431 240.48 944.297 241.067 941.524 241.04ZM941.324 238.88C943.297 238.907 944.777 238.52 945.764 237.72C946.777 236.893 947.284 235.693 947.284 234.12C947.284 232.547 946.791 231.4 945.804 230.68C944.817 229.933 943.324 229.547 941.324 229.52L936.044 229.44V238.8L941.324 238.88ZM953.684 241V220H956.524V241H953.684Z" fill="white"/>
<path d="M751.72 398V370H775.28V398H772.36V371.76L773.12 372.56H753.88L754.64 371.76V398H751.72ZM782.248 398.24C781.928 398.24 781.594 398.213 781.248 398.16C780.928 398.107 780.581 398.04 780.208 397.96L780.408 395.52C780.594 395.547 780.768 395.587 780.928 395.64C781.114 395.667 781.274 395.68 781.408 395.68C782.261 395.68 782.941 395.36 783.448 394.72C783.981 394.08 784.381 393.227 784.648 392.16C784.914 391.093 785.101 389.893 785.208 388.56C785.314 387.2 785.408 385.84 785.488 384.48L785.848 377H801.248V398H798.408V378.64L799.128 379.48H787.688L788.368 378.6L788.048 384.68C787.968 386.493 787.821 388.227 787.608 389.88C787.421 391.533 787.114 392.987 786.688 394.24C786.288 395.493 785.728 396.48 785.008 397.2C784.288 397.893 783.368 398.24 782.248 398.24ZM822.361 398V393.36L822.241 392.6V384.84C822.241 383.053 821.735 381.68 820.721 380.72C819.735 379.76 818.255 379.28 816.281 379.28C814.921 379.28 813.628 379.507 812.401 379.96C811.175 380.413 810.135 381.013 809.281 381.76L808.001 379.64C809.068 378.733 810.348 378.04 811.841 377.56C813.335 377.053 814.908 376.8 816.561 376.8C819.281 376.8 821.375 377.48 822.841 378.84C824.335 380.173 825.081 382.213 825.081 384.96V398H822.361ZM815.121 398.2C813.548 398.2 812.175 397.947 811.001 397.44C809.855 396.907 808.975 396.187 808.361 395.28C807.748 394.347 807.441 393.28 807.441 392.08C807.441 390.987 807.695 390 808.201 389.12C808.735 388.213 809.588 387.493 810.761 386.96C811.961 386.4 813.561 386.12 815.561 386.12H822.801V388.24H815.641C813.615 388.24 812.201 388.6 811.401 389.32C810.628 390.04 810.241 390.933 810.241 392C810.241 393.2 810.708 394.16 811.641 394.88C812.575 395.6 813.881 395.96 815.561 395.96C817.161 395.96 818.535 395.6 819.681 394.88C820.855 394.133 821.708 393.067 822.241 391.68L822.881 393.64C822.348 395.027 821.415 396.133 820.081 396.96C818.775 397.787 817.121 398.2 815.121 398.2ZM832.642 398V377H835.482V386.28H848.722V377H851.562V398H848.722V388.72H835.482V398H832.642ZM868.634 398.2C866.447 398.2 864.527 397.747 862.874 396.84C861.22 395.907 859.927 394.64 858.994 393.04C858.06 391.413 857.594 389.56 857.594 387.48C857.594 385.4 858.034 383.56 858.914 381.96C859.82 380.36 861.047 379.107 862.594 378.2C864.167 377.267 865.927 376.8 867.874 376.8C869.847 376.8 871.594 377.253 873.114 378.16C874.66 379.04 875.874 380.293 876.754 381.92C877.634 383.52 878.074 385.373 878.074 387.48C878.074 387.613 878.06 387.76 878.034 387.92C878.034 388.053 878.034 388.2 878.034 388.36H859.754V386.24H876.514L875.394 387.08C875.394 385.56 875.06 384.213 874.394 383.04C873.754 381.84 872.874 380.907 871.754 380.24C870.634 379.573 869.34 379.24 867.874 379.24C866.434 379.24 865.14 379.573 863.994 380.24C862.847 380.907 861.954 381.84 861.314 383.04C860.674 384.24 860.354 385.613 860.354 387.16V387.6C860.354 389.2 860.7 390.613 861.394 391.84C862.114 393.04 863.1 393.987 864.354 394.68C865.634 395.347 867.087 395.68 868.714 395.68C869.994 395.68 871.18 395.453 872.274 395C873.394 394.547 874.354 393.853 875.154 392.92L876.754 394.76C875.82 395.88 874.647 396.733 873.234 397.32C871.847 397.907 870.314 398.2 868.634 398.2ZM887.423 398V378.72L888.143 379.48H879.463V377H898.223V379.48H889.543L890.263 378.72V398H887.423Z" fill="white"/>
<path d="M712.848 307.88C712.272 307.912 711.44 307.96 710.352 308.024C709.264 308.088 708.144 308.216 706.992 308.408C705.872 308.6 704.832 308.888 703.872 309.272C702.912 309.656 702.272 310.216 701.952 310.952V313.784H753.072V328.808H682.8V310.712H682.944C683.2 308.888 683.728 307.192 684.528 305.624C685.36 304.024 686.544 302.552 688.08 301.208C690.064 299.544 692.368 298.248 694.992 297.32C697.616 296.392 700.352 295.688 703.2 295.208C706.048 294.728 708.912 294.408 711.792 294.248C714.704 294.056 717.424 293.896 719.952 293.768C720.336 293.736 720.848 293.72 721.488 293.72C722.128 293.688 722.8 293.672 723.504 293.672C724.208 293.64 724.88 293.608 725.52 293.576C726.16 293.544 726.672 293.512 727.056 293.48C727.472 293.448 728.032 293.432 728.736 293.432C729.44 293.4 730.208 293.352 731.04 293.288C731.872 293.192 732.704 293.064 733.536 292.904C734.368 292.744 735.12 292.52 735.792 292.232C736.496 291.944 737.056 291.592 737.472 291.176C737.92 290.728 738.144 290.184 738.144 289.544C738.144 288.872 737.872 288.328 737.328 287.912C736.816 287.464 735.728 287.16 734.064 287C732.848 286.872 731.552 286.792 730.176 286.76C728.832 286.696 727.424 286.664 725.952 286.664C723.392 286.664 720.736 286.744 717.984 286.904C715.232 287.032 712.512 287.224 709.824 287.48C707.168 287.704 704.592 287.976 702.096 288.296C699.632 288.584 697.408 288.888 695.424 289.208C693.472 289.528 691.824 289.848 690.48 290.168C689.136 290.456 688.24 290.712 687.792 290.936V275.912C689.264 275.432 691.248 274.936 693.744 274.424C696.24 273.912 699.056 273.448 702.192 273.032C705.328 272.584 708.688 272.232 712.272 271.976C715.856 271.688 719.456 271.544 723.072 271.544C727.104 271.544 731.024 271.768 734.832 272.216C738.64 272.632 742.08 273.352 745.152 274.376C748.256 275.4 750.832 276.776 752.88 278.504C754.96 280.2 756.256 282.344 756.768 284.936C757.344 287.848 757.248 290.616 756.48 293.24C755.712 295.864 754.16 298.168 751.824 300.152C749.808 301.816 747.488 303.112 744.864 304.04C742.272 304.968 739.536 305.688 736.656 306.2C733.808 306.68 730.944 307.016 728.064 307.208C725.184 307.368 722.48 307.512 719.952 307.64C719.568 307.64 719.04 307.656 718.368 307.688C717.728 307.688 717.056 307.704 716.352 307.736C715.648 307.768 714.976 307.8 714.336 307.832C713.696 307.832 713.2 307.848 712.848 307.88ZM805.201 329H786.097V287.816H766.753V272.744H805.201V329ZM876.816 297.416C879.12 298.856 880.88 300.584 882.096 302.6C883.312 304.584 884.048 306.68 884.304 308.888C884.592 311.064 884.416 313.256 883.776 315.464C883.168 317.672 882.176 319.704 880.8 321.56C879.456 323.416 877.776 325 875.76 326.312C873.744 327.592 871.456 328.408 868.896 328.76C865.824 329.24 862.272 329.592 858.24 329.816C854.24 330.072 850.032 330.2 845.616 330.2C842.864 330.2 840.08 330.152 837.264 330.056C834.48 329.96 831.76 329.816 829.104 329.624C826.48 329.432 823.952 329.208 821.52 328.952C819.12 328.664 816.912 328.328 814.896 327.944V313.64C815.376 313.672 816.256 313.768 817.536 313.928C818.816 314.088 820.368 314.28 822.192 314.504C824.048 314.696 826.112 314.92 828.384 315.176C830.688 315.432 833.072 315.672 835.536 315.896C838 316.088 840.496 316.264 843.024 316.424C845.552 316.552 847.968 316.616 850.272 316.616C852.384 316.616 854.368 316.552 856.224 316.424C858.08 316.264 859.68 316.008 861.024 315.656C862.4 315.304 863.472 314.856 864.24 314.312C865.04 313.736 865.44 313.016 865.44 312.152C865.44 312.024 865.424 311.896 865.392 311.768C865.36 311.64 865.312 311.496 865.248 311.336C865.056 310.824 864.48 310.392 863.52 310.04C862.56 309.688 861.296 309.384 859.728 309.128C858.192 308.84 856.4 308.616 854.352 308.456C852.304 308.296 850.096 308.168 847.728 308.072C845.36 307.976 842.88 307.912 840.288 307.88C837.728 307.848 835.136 307.832 832.512 307.832C829.376 307.832 826.288 307.848 823.248 307.88C820.24 307.912 817.424 307.944 814.8 307.976V272.936H881.376V286.136H833.952V294.728H863.52C866.336 294.792 868.816 295.064 870.96 295.544C873.136 295.992 875.088 296.616 876.816 297.416ZM953.922 299.48C956.61 300.824 958.674 302.456 960.114 304.376C961.586 306.264 962.53 308.248 962.946 310.328C963.362 312.408 963.298 314.504 962.754 316.616C962.21 318.696 961.266 320.616 959.922 322.376C958.578 324.136 956.866 325.64 954.786 326.888C952.706 328.136 950.338 328.952 947.682 329.336C944.61 329.816 941.058 330.184 937.026 330.44C932.994 330.696 928.786 330.824 924.402 330.824C921.65 330.824 918.882 330.776 916.098 330.68C913.346 330.584 910.658 330.424 908.034 330.2C905.41 330.008 902.914 329.768 900.546 329.48C898.178 329.192 896.018 328.856 894.066 328.472V314.12C894.482 314.152 895.314 314.264 896.562 314.456C897.842 314.616 899.394 314.808 901.218 315.032C903.042 315.256 905.09 315.496 907.362 315.752C909.634 316.008 911.986 316.248 914.418 316.472C916.882 316.664 919.362 316.84 921.858 317C924.354 317.128 926.754 317.192 929.058 317.192C931.17 317.192 933.154 317.128 935.01 317C936.866 316.84 938.466 316.584 939.81 316.232C941.186 315.88 942.258 315.432 943.026 314.888C943.826 314.312 944.226 313.592 944.226 312.728C944.226 311.992 943.826 311.352 943.026 310.808C942.258 310.264 941.202 309.8 939.858 309.416C938.546 309.032 936.994 308.728 935.202 308.504C933.41 308.248 931.522 308.056 929.538 307.928C927.554 307.768 925.522 307.656 923.442 307.592C921.362 307.528 919.346 307.496 917.394 307.496C915.57 307.496 913.858 307.512 912.258 307.544C910.69 307.576 909.314 307.608 908.13 307.64C906.722 307.704 905.442 307.768 904.29 307.832V294.632C904.834 294.568 905.618 294.552 906.642 294.584C907.666 294.584 908.866 294.6 910.242 294.632C911.65 294.664 913.17 294.696 914.802 294.728C916.434 294.76 918.114 294.776 919.842 294.776C922.114 294.776 924.37 294.728 926.61 294.632C928.85 294.504 930.898 294.296 932.754 294.008C934.61 293.688 936.178 293.256 937.458 292.712C938.738 292.136 939.538 291.4 939.858 290.504C940.018 289.48 939.762 288.632 939.09 287.96C938.45 287.256 937.506 286.696 936.258 286.28C935.01 285.864 933.506 285.576 931.746 285.416C929.986 285.224 928.098 285.128 926.082 285.128C923.874 285.128 921.57 285.208 919.17 285.368C916.77 285.528 914.402 285.736 912.066 285.992C909.73 286.248 907.49 286.52 905.346 286.808C903.234 287.096 901.362 287.368 899.73 287.624C898.098 287.848 896.77 288.04 895.746 288.2C894.754 288.328 894.194 288.392 894.066 288.392V274.136C900.402 272.92 906.162 272.088 911.346 271.64C916.53 271.192 921.202 270.968 925.362 270.968C928.786 270.968 931.826 271.08 934.482 271.304C937.138 271.528 939.426 271.8 941.346 272.12C943.266 272.44 944.802 272.744 945.954 273.032C947.138 273.32 947.938 273.544 948.354 273.704C950.274 274.248 951.938 275.08 953.346 276.2C954.754 277.32 955.89 278.616 956.754 280.088C957.65 281.56 958.258 283.16 958.578 284.888C958.93 286.584 958.994 288.296 958.77 290.024C958.578 291.752 958.066 293.432 957.234 295.064C956.434 296.696 955.33 298.168 953.922 299.48Z" fill="white"/>
<path d="M1032 241.24C1029.89 241.24 1027.93 240.893 1026.12 240.2C1024.33 239.48 1022.77 238.48 1021.44 237.2C1020.13 235.893 1019.11 234.387 1018.36 232.68C1017.64 230.947 1017.28 229.053 1017.28 227C1017.28 224.947 1017.64 223.067 1018.36 221.36C1019.11 219.627 1020.13 218.12 1021.44 216.84C1022.77 215.533 1024.33 214.533 1026.12 213.84C1027.91 213.12 1029.87 212.76 1032 212.76C1034.11 212.76 1036.05 213.12 1037.84 213.84C1039.63 214.533 1041.17 215.52 1042.48 216.8C1043.81 218.08 1044.84 219.587 1045.56 221.32C1046.31 223.053 1046.68 224.947 1046.68 227C1046.68 229.053 1046.31 230.947 1045.56 232.68C1044.84 234.413 1043.81 235.92 1042.48 237.2C1041.17 238.48 1039.63 239.48 1037.84 240.2C1036.05 240.893 1034.11 241.24 1032 241.24ZM1032 238.6C1033.68 238.6 1035.23 238.32 1036.64 237.76C1038.08 237.173 1039.32 236.36 1040.36 235.32C1041.43 234.253 1042.25 233.027 1042.84 231.64C1043.43 230.227 1043.72 228.68 1043.72 227C1043.72 225.32 1043.43 223.787 1042.84 222.4C1042.25 220.987 1041.43 219.76 1040.36 218.72C1039.32 217.653 1038.08 216.84 1036.64 216.28C1035.23 215.693 1033.68 215.4 1032 215.4C1030.32 215.4 1028.76 215.693 1027.32 216.28C1025.88 216.84 1024.63 217.653 1023.56 218.72C1022.52 219.76 1021.69 220.987 1021.08 222.4C1020.49 223.787 1020.2 225.32 1020.2 227C1020.2 228.653 1020.49 230.187 1021.08 231.6C1021.69 233.013 1022.52 234.253 1023.56 235.32C1024.63 236.36 1025.88 237.173 1027.32 237.76C1028.76 238.32 1030.32 238.6 1032 238.6ZM1062.5 241.24C1060.8 241.24 1059.28 240.96 1057.94 240.4C1056.64 239.84 1055.52 238.987 1054.58 237.84C1053.65 236.693 1052.94 235.28 1052.46 233.6C1051.98 231.893 1051.74 229.92 1051.74 227.68C1051.74 225.68 1051.93 223.933 1052.3 222.44C1052.68 220.92 1053.2 219.613 1053.86 218.52C1054.53 217.427 1055.3 216.507 1056.18 215.76C1057.09 214.987 1058.06 214.373 1059.1 213.92C1060.17 213.44 1061.26 213.08 1062.38 212.84L1071.82 210.64L1072.3 213.28L1063.42 215.28C1062.86 215.413 1062.18 215.6 1061.38 215.84C1060.61 216.08 1059.81 216.44 1058.98 216.92C1058.18 217.4 1057.44 218.067 1056.74 218.92C1056.05 219.773 1055.49 220.88 1055.06 222.24C1054.66 223.573 1054.46 225.24 1054.46 227.24C1054.46 227.667 1054.48 228.013 1054.5 228.28C1054.53 228.52 1054.56 228.787 1054.58 229.08C1054.64 229.347 1054.68 229.747 1054.7 230.28L1053.46 229.24C1053.76 227.613 1054.36 226.2 1055.26 225C1056.17 223.773 1057.3 222.827 1058.66 222.16C1060.05 221.467 1061.58 221.12 1063.26 221.12C1065.21 221.12 1066.94 221.547 1068.46 222.4C1069.98 223.227 1071.17 224.387 1072.02 225.88C1072.9 227.373 1073.34 229.107 1073.34 231.08C1073.34 233.027 1072.89 234.773 1071.98 236.32C1071.1 237.867 1069.85 239.08 1068.22 239.96C1066.6 240.813 1064.69 241.24 1062.5 241.24ZM1062.82 238.88C1064.32 238.88 1065.64 238.547 1066.78 237.88C1067.93 237.187 1068.82 236.253 1069.46 235.08C1070.13 233.907 1070.46 232.587 1070.46 231.12C1070.46 229.68 1070.13 228.4 1069.46 227.28C1068.82 226.16 1067.93 225.28 1066.78 224.64C1065.64 223.973 1064.3 223.64 1062.78 223.64C1061.29 223.64 1059.97 223.96 1058.82 224.6C1057.68 225.213 1056.77 226.08 1056.1 227.2C1055.46 228.32 1055.14 229.613 1055.14 231.08C1055.14 232.547 1055.46 233.867 1056.1 235.04C1056.77 236.213 1057.68 237.147 1058.82 237.84C1060 238.533 1061.33 238.88 1062.82 238.88ZM1079.43 241V220H1082.27V229.28H1095.51V220H1098.35V241H1095.51V231.72H1082.27V241H1079.43ZM1119.46 241V236.36L1119.34 235.6V227.84C1119.34 226.053 1118.84 224.68 1117.82 223.72C1116.84 222.76 1115.36 222.28 1113.38 222.28C1112.02 222.28 1110.73 222.507 1109.5 222.96C1108.28 223.413 1107.24 224.013 1106.38 224.76L1105.1 222.64C1106.17 221.733 1107.45 221.04 1108.94 220.56C1110.44 220.053 1112.01 219.8 1113.66 219.8C1116.38 219.8 1118.48 220.48 1119.94 221.84C1121.44 223.173 1122.18 225.213 1122.18 227.96V241H1119.46ZM1112.22 241.2C1110.65 241.2 1109.28 240.947 1108.1 240.44C1106.96 239.907 1106.08 239.187 1105.46 238.28C1104.85 237.347 1104.54 236.28 1104.54 235.08C1104.54 233.987 1104.8 233 1105.3 232.12C1105.84 231.213 1106.69 230.493 1107.86 229.96C1109.06 229.4 1110.66 229.12 1112.66 229.12H1119.9V231.24H1112.74C1110.72 231.24 1109.3 231.6 1108.5 232.32C1107.73 233.04 1107.34 233.933 1107.34 235C1107.34 236.2 1107.81 237.16 1108.74 237.88C1109.68 238.6 1110.98 238.96 1112.66 238.96C1114.26 238.96 1115.64 238.6 1116.78 237.88C1117.96 237.133 1118.81 236.067 1119.34 234.68L1119.98 236.64C1119.45 238.027 1118.52 239.133 1117.18 239.96C1115.88 240.787 1114.22 241.2 1112.22 241.2ZM1140.58 241.2C1138.77 241.2 1137.13 240.787 1135.66 239.96C1134.2 239.107 1133.02 237.893 1132.14 236.32C1131.29 234.72 1130.86 232.773 1130.86 230.48C1130.86 228.187 1131.29 226.253 1132.14 224.68C1133 223.08 1134.16 221.867 1135.62 221.04C1137.09 220.213 1138.74 219.8 1140.58 219.8C1142.58 219.8 1144.37 220.253 1145.94 221.16C1147.54 222.04 1148.8 223.293 1149.7 224.92C1150.61 226.52 1151.06 228.373 1151.06 230.48C1151.06 232.613 1150.61 234.48 1149.7 236.08C1148.8 237.68 1147.54 238.933 1145.94 239.84C1144.37 240.747 1142.58 241.2 1140.58 241.2ZM1129.74 248.76V220H1132.46V226.32L1132.18 230.52L1132.58 234.76V248.76H1129.74ZM1140.38 238.68C1141.88 238.68 1143.21 238.347 1144.38 237.68C1145.56 236.987 1146.49 236.027 1147.18 234.8C1147.88 233.547 1148.22 232.107 1148.22 230.48C1148.22 228.853 1147.88 227.427 1147.18 226.2C1146.49 224.973 1145.56 224.013 1144.38 223.32C1143.21 222.627 1141.88 222.28 1140.38 222.28C1138.89 222.28 1137.54 222.627 1136.34 223.32C1135.17 224.013 1134.24 224.973 1133.54 226.2C1132.88 227.427 1132.54 228.853 1132.54 230.48C1132.54 232.107 1132.88 233.547 1133.54 234.8C1134.24 236.027 1135.17 236.987 1136.34 237.68C1137.54 238.347 1138.89 238.68 1140.38 238.68ZM1156.94 248.96C1155.95 248.96 1155.01 248.8 1154.1 248.48C1153.22 248.16 1152.46 247.68 1151.82 247.04L1153.14 244.92C1153.67 245.427 1154.25 245.813 1154.86 246.08C1155.5 246.373 1156.21 246.52 1156.98 246.52C1157.91 246.52 1158.71 246.253 1159.38 245.72C1160.07 245.213 1160.73 244.307 1161.34 243L1162.7 239.92L1163.02 239.48L1171.66 220H1174.46L1163.94 243.52C1163.35 244.88 1162.7 245.96 1161.98 246.76C1161.29 247.56 1160.53 248.12 1159.7 248.44C1158.87 248.787 1157.95 248.96 1156.94 248.96ZM1162.54 241.6L1152.86 220H1155.82L1164.38 239.28L1162.54 241.6ZM1203.02 241L1195.82 230.6L1198.18 229.2L1206.42 241H1203.02ZM1174.74 241L1182.98 229.2L1185.3 230.6L1178.14 241H1174.74ZM1182.74 230.8L1175.34 220H1178.42L1185.38 230.4L1182.74 230.8ZM1183.42 231.64V229.2H1190.02V231.64H1183.42ZM1189.14 241V220H1191.98V241H1189.14ZM1191.1 231.64V229.2H1197.74V231.64H1191.1ZM1198.46 230.8L1195.74 230.4L1202.74 220H1205.82L1198.46 230.8ZM1219.49 241.2C1217.3 241.2 1215.38 240.747 1213.73 239.84C1212.07 238.907 1210.78 237.64 1209.85 236.04C1208.91 234.413 1208.45 232.56 1208.45 230.48C1208.45 228.4 1208.89 226.56 1209.77 224.96C1210.67 223.36 1211.9 222.107 1213.45 221.2C1215.02 220.267 1216.78 219.8 1218.73 219.8C1220.7 219.8 1222.45 220.253 1223.97 221.16C1225.51 222.04 1226.73 223.293 1227.61 224.92C1228.49 226.52 1228.93 228.373 1228.93 230.48C1228.93 230.613 1228.91 230.76 1228.89 230.92C1228.89 231.053 1228.89 231.2 1228.89 231.36H1210.61V229.24H1227.37L1226.25 230.08C1226.25 228.56 1225.91 227.213 1225.25 226.04C1224.61 224.84 1223.73 223.907 1222.61 223.24C1221.49 222.573 1220.19 222.24 1218.73 222.24C1217.29 222.24 1215.99 222.573 1214.85 223.24C1213.7 223.907 1212.81 224.84 1212.17 226.04C1211.53 227.24 1211.21 228.613 1211.21 230.16V230.6C1211.21 232.2 1211.55 233.613 1212.25 234.84C1212.97 236.04 1213.95 236.987 1215.21 237.68C1216.49 238.347 1217.94 238.68 1219.57 238.68C1220.85 238.68 1222.03 238.453 1223.13 238C1224.25 237.547 1225.21 236.853 1226.01 235.92L1227.61 237.76C1226.67 238.88 1225.5 239.733 1224.09 240.32C1222.7 240.907 1221.17 241.2 1219.49 241.2ZM1235.21 241V220H1238.05V229.28H1251.29V220H1254.13V241H1251.29V231.72H1238.05V241H1235.21ZM1270.52 241.04L1262.2 241V220H1265.04V227.32L1271.04 227.4C1273.68 227.427 1275.7 228.013 1277.08 229.16C1278.47 230.307 1279.16 231.96 1279.16 234.12C1279.16 236.36 1278.42 238.08 1276.92 239.28C1275.43 240.48 1273.3 241.067 1270.52 241.04ZM1270.32 238.88C1272.3 238.907 1273.78 238.52 1274.76 237.72C1275.78 236.893 1276.28 235.693 1276.28 234.12C1276.28 232.547 1275.79 231.4 1274.8 230.68C1273.82 229.933 1272.32 229.547 1270.32 229.52L1265.04 229.44V238.8L1270.32 238.88ZM1282.68 241V220H1285.52V241H1282.68Z" fill="white"/>
<path d="M1080.72 398V370H1104.28V398H1101.36V371.76L1102.12 372.56H1082.88L1083.64 371.76V398H1080.72ZM1111.25 398.24C1110.93 398.24 1110.59 398.213 1110.25 398.16C1109.93 398.107 1109.58 398.04 1109.21 397.96L1109.41 395.52C1109.59 395.547 1109.77 395.587 1109.93 395.64C1110.11 395.667 1110.27 395.68 1110.41 395.68C1111.26 395.68 1111.94 395.36 1112.45 394.72C1112.98 394.08 1113.38 393.227 1113.65 392.16C1113.91 391.093 1114.1 389.893 1114.21 388.56C1114.31 387.2 1114.41 385.84 1114.49 384.48L1114.85 377H1130.25V398H1127.41V378.64L1128.13 379.48H1116.69L1117.37 378.6L1117.05 384.68C1116.97 386.493 1116.82 388.227 1116.61 389.88C1116.42 391.533 1116.11 392.987 1115.69 394.24C1115.29 395.493 1114.73 396.48 1114.01 397.2C1113.29 397.893 1112.37 398.24 1111.25 398.24ZM1151.36 398V393.36L1151.24 392.6V384.84C1151.24 383.053 1150.73 381.68 1149.72 380.72C1148.73 379.76 1147.25 379.28 1145.28 379.28C1143.92 379.28 1142.63 379.507 1141.4 379.96C1140.17 380.413 1139.13 381.013 1138.28 381.76L1137 379.64C1138.07 378.733 1139.35 378.04 1140.84 377.56C1142.33 377.053 1143.91 376.8 1145.56 376.8C1148.28 376.8 1150.37 377.48 1151.84 378.84C1153.33 380.173 1154.08 382.213 1154.08 384.96V398H1151.36ZM1144.12 398.2C1142.55 398.2 1141.17 397.947 1140 397.44C1138.85 396.907 1137.97 396.187 1137.36 395.28C1136.75 394.347 1136.44 393.28 1136.44 392.08C1136.44 390.987 1136.69 390 1137.2 389.12C1137.73 388.213 1138.59 387.493 1139.76 386.96C1140.96 386.4 1142.56 386.12 1144.56 386.12H1151.8V388.24H1144.64C1142.61 388.24 1141.2 388.6 1140.4 389.32C1139.63 390.04 1139.24 390.933 1139.24 392C1139.24 393.2 1139.71 394.16 1140.64 394.88C1141.57 395.6 1142.88 395.96 1144.56 395.96C1146.16 395.96 1147.53 395.6 1148.68 394.88C1149.85 394.133 1150.71 393.067 1151.24 391.68L1151.88 393.64C1151.35 395.027 1150.41 396.133 1149.08 396.96C1147.77 397.787 1146.12 398.2 1144.12 398.2ZM1161.64 398V377H1164.48V386.28H1177.72V377H1180.56V398H1177.72V388.72H1164.48V398H1161.64ZM1197.63 398.2C1195.45 398.2 1193.53 397.747 1191.87 396.84C1190.22 395.907 1188.93 394.64 1187.99 393.04C1187.06 391.413 1186.59 389.56 1186.59 387.48C1186.59 385.4 1187.03 383.56 1187.91 381.96C1188.82 380.36 1190.05 379.107 1191.59 378.2C1193.17 377.267 1194.93 376.8 1196.87 376.8C1198.85 376.8 1200.59 377.253 1202.11 378.16C1203.66 379.04 1204.87 380.293 1205.75 381.92C1206.63 383.52 1207.07 385.373 1207.07 387.48C1207.07 387.613 1207.06 387.76 1207.03 387.92C1207.03 388.053 1207.03 388.2 1207.03 388.36H1188.75V386.24H1205.51L1204.39 387.08C1204.39 385.56 1204.06 384.213 1203.39 383.04C1202.75 381.84 1201.87 380.907 1200.75 380.24C1199.63 379.573 1198.34 379.24 1196.87 379.24C1195.43 379.24 1194.14 379.573 1192.99 380.24C1191.85 380.907 1190.95 381.84 1190.31 383.04C1189.67 384.24 1189.35 385.613 1189.35 387.16V387.6C1189.35 389.2 1189.7 390.613 1190.39 391.84C1191.11 393.04 1192.1 393.987 1193.35 394.68C1194.63 395.347 1196.09 395.68 1197.71 395.68C1198.99 395.68 1200.18 395.453 1201.27 395C1202.39 394.547 1203.35 393.853 1204.15 392.92L1205.75 394.76C1204.82 395.88 1203.65 396.733 1202.23 397.32C1200.85 397.907 1199.31 398.2 1197.63 398.2ZM1216.42 398V378.72L1217.14 379.48H1208.46V377H1227.22V379.48H1218.54L1219.26 378.72V398H1216.42Z" fill="white"/>
<path d="M1034.85 307.88C1034.27 307.912 1033.44 307.96 1032.35 308.024C1031.26 308.088 1030.14 308.216 1028.99 308.408C1027.87 308.6 1026.83 308.888 1025.87 309.272C1024.91 309.656 1024.27 310.216 1023.95 310.952V313.784H1075.07V328.808H1004.8V310.712H1004.94C1005.2 308.888 1005.73 307.192 1006.53 305.624C1007.36 304.024 1008.54 302.552 1010.08 301.208C1012.06 299.544 1014.37 298.248 1016.99 297.32C1019.62 296.392 1022.35 295.688 1025.2 295.208C1028.05 294.728 1030.91 294.408 1033.79 294.248C1036.7 294.056 1039.42 293.896 1041.95 293.768C1042.34 293.736 1042.85 293.72 1043.49 293.72C1044.13 293.688 1044.8 293.672 1045.5 293.672C1046.21 293.64 1046.88 293.608 1047.52 293.576C1048.16 293.544 1048.67 293.512 1049.06 293.48C1049.47 293.448 1050.03 293.432 1050.74 293.432C1051.44 293.4 1052.21 293.352 1053.04 293.288C1053.87 293.192 1054.7 293.064 1055.54 292.904C1056.37 292.744 1057.12 292.52 1057.79 292.232C1058.5 291.944 1059.06 291.592 1059.47 291.176C1059.92 290.728 1060.14 290.184 1060.14 289.544C1060.14 288.872 1059.87 288.328 1059.33 287.912C1058.82 287.464 1057.73 287.16 1056.06 287C1054.85 286.872 1053.55 286.792 1052.18 286.76C1050.83 286.696 1049.42 286.664 1047.95 286.664C1045.39 286.664 1042.74 286.744 1039.98 286.904C1037.23 287.032 1034.51 287.224 1031.82 287.48C1029.17 287.704 1026.59 287.976 1024.1 288.296C1021.63 288.584 1019.41 288.888 1017.42 289.208C1015.47 289.528 1013.82 289.848 1012.48 290.168C1011.14 290.456 1010.24 290.712 1009.79 290.936V275.912C1011.26 275.432 1013.25 274.936 1015.74 274.424C1018.24 273.912 1021.06 273.448 1024.19 273.032C1027.33 272.584 1030.69 272.232 1034.27 271.976C1037.86 271.688 1041.46 271.544 1045.07 271.544C1049.1 271.544 1053.02 271.768 1056.83 272.216C1060.64 272.632 1064.08 273.352 1067.15 274.376C1070.26 275.4 1072.83 276.776 1074.88 278.504C1076.96 280.2 1078.26 282.344 1078.77 284.936C1079.34 287.848 1079.25 290.616 1078.48 293.24C1077.71 295.864 1076.16 298.168 1073.82 300.152C1071.81 301.816 1069.49 303.112 1066.86 304.04C1064.27 304.968 1061.54 305.688 1058.66 306.2C1055.81 306.68 1052.94 307.016 1050.06 307.208C1047.18 307.368 1044.48 307.512 1041.95 307.64C1041.57 307.64 1041.04 307.656 1040.37 307.688C1039.73 307.688 1039.06 307.704 1038.35 307.736C1037.65 307.768 1036.98 307.8 1036.34 307.832C1035.7 307.832 1035.2 307.848 1034.85 307.88ZM1148.61 299.48C1151.3 300.824 1153.36 302.456 1154.8 304.376C1156.27 306.264 1157.22 308.248 1157.63 310.328C1158.05 312.408 1157.99 314.504 1157.44 316.616C1156.9 318.696 1155.95 320.616 1154.61 322.376C1153.27 324.136 1151.55 325.64 1149.47 326.888C1147.39 328.136 1145.03 328.952 1142.37 329.336C1139.3 329.816 1135.75 330.184 1131.71 330.44C1127.68 330.696 1123.47 330.824 1119.09 330.824C1116.34 330.824 1113.57 330.776 1110.79 330.68C1108.03 330.584 1105.35 330.424 1102.72 330.2C1100.1 330.008 1097.6 329.768 1095.23 329.48C1092.87 329.192 1090.71 328.856 1088.75 328.472V314.12C1089.17 314.152 1090 314.264 1091.25 314.456C1092.53 314.616 1094.08 314.808 1095.91 315.032C1097.73 315.256 1099.78 315.496 1102.05 315.752C1104.32 316.008 1106.67 316.248 1109.11 316.472C1111.57 316.664 1114.05 316.84 1116.55 317C1119.04 317.128 1121.44 317.192 1123.75 317.192C1125.86 317.192 1127.84 317.128 1129.7 317C1131.55 316.84 1133.15 316.584 1134.5 316.232C1135.87 315.88 1136.95 315.432 1137.71 314.888C1138.51 314.312 1138.91 313.592 1138.91 312.728C1138.91 311.992 1138.51 311.352 1137.71 310.808C1136.95 310.264 1135.89 309.8 1134.55 309.416C1133.23 309.032 1131.68 308.728 1129.89 308.504C1128.1 308.248 1126.21 308.056 1124.23 307.928C1122.24 307.768 1120.21 307.656 1118.13 307.592C1116.05 307.528 1114.03 307.496 1112.08 307.496C1110.26 307.496 1108.55 307.512 1106.95 307.544C1105.38 307.576 1104 307.608 1102.82 307.64C1101.41 307.704 1100.13 307.768 1098.98 307.832V294.632C1099.52 294.568 1100.31 294.552 1101.33 294.584C1102.35 294.584 1103.55 294.6 1104.93 294.632C1106.34 294.664 1107.86 294.696 1109.49 294.728C1111.12 294.76 1112.8 294.776 1114.53 294.776C1116.8 294.776 1119.06 294.728 1121.3 294.632C1123.54 294.504 1125.59 294.296 1127.44 294.008C1129.3 293.688 1130.87 293.256 1132.15 292.712C1133.43 292.136 1134.23 291.4 1134.55 290.504C1134.71 289.48 1134.45 288.632 1133.78 287.96C1133.14 287.256 1132.19 286.696 1130.95 286.28C1129.7 285.864 1128.19 285.576 1126.43 285.416C1124.67 285.224 1122.79 285.128 1120.77 285.128C1118.56 285.128 1116.26 285.208 1113.86 285.368C1111.46 285.528 1109.09 285.736 1106.75 285.992C1104.42 286.248 1102.18 286.52 1100.03 286.808C1097.92 287.096 1096.05 287.368 1094.42 287.624C1092.79 287.848 1091.46 288.04 1090.43 288.2C1089.44 288.328 1088.88 288.392 1088.75 288.392V274.136C1095.09 272.92 1100.85 272.088 1106.03 271.64C1111.22 271.192 1115.89 270.968 1120.05 270.968C1123.47 270.968 1126.51 271.08 1129.17 271.304C1131.83 271.528 1134.11 271.8 1136.03 272.12C1137.95 272.44 1139.49 272.744 1140.64 273.032C1141.83 273.32 1142.63 273.544 1143.04 273.704C1144.96 274.248 1146.63 275.08 1148.03 276.2C1149.44 277.32 1150.58 278.616 1151.44 280.088C1152.34 281.56 1152.95 283.16 1153.27 284.888C1153.62 286.584 1153.68 288.296 1153.46 290.024C1153.27 291.752 1152.75 293.432 1151.92 295.064C1151.12 296.696 1150.02 298.168 1148.61 299.48ZM1205.95 329H1186.85V287.816H1167.5V272.744H1205.95V329ZM1298.64 316.184H1291.77V329H1272.67V316.184H1215.55L1244.45 272.744H1265.61L1247.47 301.112H1272.67V285.464H1291.77V301.112H1298.64V316.184Z" fill="white"/>
<path d="M1361 241.24C1358.89 241.24 1356.93 240.893 1355.12 240.2C1353.33 239.48 1351.77 238.48 1350.44 237.2C1349.13 235.893 1348.11 234.387 1347.36 232.68C1346.64 230.947 1346.28 229.053 1346.28 227C1346.28 224.947 1346.64 223.067 1347.36 221.36C1348.11 219.627 1349.13 218.12 1350.44 216.84C1351.77 215.533 1353.33 214.533 1355.12 213.84C1356.91 213.12 1358.87 212.76 1361 212.76C1363.11 212.76 1365.05 213.12 1366.84 213.84C1368.63 214.533 1370.17 215.52 1371.48 216.8C1372.81 218.08 1373.84 219.587 1374.56 221.32C1375.31 223.053 1375.68 224.947 1375.68 227C1375.68 229.053 1375.31 230.947 1374.56 232.68C1373.84 234.413 1372.81 235.92 1371.48 237.2C1370.17 238.48 1368.63 239.48 1366.84 240.2C1365.05 240.893 1363.11 241.24 1361 241.24ZM1361 238.6C1362.68 238.6 1364.23 238.32 1365.64 237.76C1367.08 237.173 1368.32 236.36 1369.36 235.32C1370.43 234.253 1371.25 233.027 1371.84 231.64C1372.43 230.227 1372.72 228.68 1372.72 227C1372.72 225.32 1372.43 223.787 1371.84 222.4C1371.25 220.987 1370.43 219.76 1369.36 218.72C1368.32 217.653 1367.08 216.84 1365.64 216.28C1364.23 215.693 1362.68 215.4 1361 215.4C1359.32 215.4 1357.76 215.693 1356.32 216.28C1354.88 216.84 1353.63 217.653 1352.56 218.72C1351.52 219.76 1350.69 220.987 1350.08 222.4C1349.49 223.787 1349.2 225.32 1349.2 227C1349.2 228.653 1349.49 230.187 1350.08 231.6C1350.69 233.013 1351.52 234.253 1352.56 235.32C1353.63 236.36 1354.88 237.173 1356.32 237.76C1357.76 238.32 1359.32 238.6 1361 238.6ZM1391.5 241.24C1389.8 241.24 1388.28 240.96 1386.94 240.4C1385.64 239.84 1384.52 238.987 1383.58 237.84C1382.65 236.693 1381.94 235.28 1381.46 233.6C1380.98 231.893 1380.74 229.92 1380.74 227.68C1380.74 225.68 1380.93 223.933 1381.3 222.44C1381.68 220.92 1382.2 219.613 1382.86 218.52C1383.53 217.427 1384.3 216.507 1385.18 215.76C1386.09 214.987 1387.06 214.373 1388.1 213.92C1389.17 213.44 1390.26 213.08 1391.38 212.84L1400.82 210.64L1401.3 213.28L1392.42 215.28C1391.86 215.413 1391.18 215.6 1390.38 215.84C1389.61 216.08 1388.81 216.44 1387.98 216.92C1387.18 217.4 1386.44 218.067 1385.74 218.92C1385.05 219.773 1384.49 220.88 1384.06 222.24C1383.66 223.573 1383.46 225.24 1383.46 227.24C1383.46 227.667 1383.48 228.013 1383.5 228.28C1383.53 228.52 1383.56 228.787 1383.58 229.08C1383.64 229.347 1383.68 229.747 1383.7 230.28L1382.46 229.24C1382.76 227.613 1383.36 226.2 1384.26 225C1385.17 223.773 1386.3 222.827 1387.66 222.16C1389.05 221.467 1390.58 221.12 1392.26 221.12C1394.21 221.12 1395.94 221.547 1397.46 222.4C1398.98 223.227 1400.17 224.387 1401.02 225.88C1401.9 227.373 1402.34 229.107 1402.34 231.08C1402.34 233.027 1401.89 234.773 1400.98 236.32C1400.1 237.867 1398.85 239.08 1397.22 239.96C1395.6 240.813 1393.69 241.24 1391.5 241.24ZM1391.82 238.88C1393.32 238.88 1394.64 238.547 1395.78 237.88C1396.93 237.187 1397.82 236.253 1398.46 235.08C1399.13 233.907 1399.46 232.587 1399.46 231.12C1399.46 229.68 1399.13 228.4 1398.46 227.28C1397.82 226.16 1396.93 225.28 1395.78 224.64C1394.64 223.973 1393.3 223.64 1391.78 223.64C1390.29 223.64 1388.97 223.96 1387.82 224.6C1386.68 225.213 1385.77 226.08 1385.1 227.2C1384.46 228.32 1384.14 229.613 1384.14 231.08C1384.14 232.547 1384.46 233.867 1385.1 235.04C1385.77 236.213 1386.68 237.147 1387.82 237.84C1389 238.533 1390.33 238.88 1391.82 238.88ZM1408.43 241V220H1411.27V229.28H1424.51V220H1427.35V241H1424.51V231.72H1411.27V241H1408.43ZM1448.46 241V236.36L1448.34 235.6V227.84C1448.34 226.053 1447.84 224.68 1446.82 223.72C1445.84 222.76 1444.36 222.28 1442.38 222.28C1441.02 222.28 1439.73 222.507 1438.5 222.96C1437.28 223.413 1436.24 224.013 1435.38 224.76L1434.1 222.64C1435.17 221.733 1436.45 221.04 1437.94 220.56C1439.44 220.053 1441.01 219.8 1442.66 219.8C1445.38 219.8 1447.48 220.48 1448.94 221.84C1450.44 223.173 1451.18 225.213 1451.18 227.96V241H1448.46ZM1441.22 241.2C1439.65 241.2 1438.28 240.947 1437.1 240.44C1435.96 239.907 1435.08 239.187 1434.46 238.28C1433.85 237.347 1433.54 236.28 1433.54 235.08C1433.54 233.987 1433.8 233 1434.3 232.12C1434.84 231.213 1435.69 230.493 1436.86 229.96C1438.06 229.4 1439.66 229.12 1441.66 229.12H1448.9V231.24H1441.74C1439.72 231.24 1438.3 231.6 1437.5 232.32C1436.73 233.04 1436.34 233.933 1436.34 235C1436.34 236.2 1436.81 237.16 1437.74 237.88C1438.68 238.6 1439.98 238.96 1441.66 238.96C1443.26 238.96 1444.64 238.6 1445.78 237.88C1446.96 237.133 1447.81 236.067 1448.34 234.68L1448.98 236.64C1448.45 238.027 1447.52 239.133 1446.18 239.96C1444.88 240.787 1443.22 241.2 1441.22 241.2ZM1469.58 241.2C1467.77 241.2 1466.13 240.787 1464.66 239.96C1463.2 239.107 1462.02 237.893 1461.14 236.32C1460.29 234.72 1459.86 232.773 1459.86 230.48C1459.86 228.187 1460.29 226.253 1461.14 224.68C1462 223.08 1463.16 221.867 1464.62 221.04C1466.09 220.213 1467.74 219.8 1469.58 219.8C1471.58 219.8 1473.37 220.253 1474.94 221.16C1476.54 222.04 1477.8 223.293 1478.7 224.92C1479.61 226.52 1480.06 228.373 1480.06 230.48C1480.06 232.613 1479.61 234.48 1478.7 236.08C1477.8 237.68 1476.54 238.933 1474.94 239.84C1473.37 240.747 1471.58 241.2 1469.58 241.2ZM1458.74 248.76V220H1461.46V226.32L1461.18 230.52L1461.58 234.76V248.76H1458.74ZM1469.38 238.68C1470.88 238.68 1472.21 238.347 1473.38 237.68C1474.56 236.987 1475.49 236.027 1476.18 234.8C1476.88 233.547 1477.22 232.107 1477.22 230.48C1477.22 228.853 1476.88 227.427 1476.18 226.2C1475.49 224.973 1474.56 224.013 1473.38 223.32C1472.21 222.627 1470.88 222.28 1469.38 222.28C1467.89 222.28 1466.54 222.627 1465.34 223.32C1464.17 224.013 1463.24 224.973 1462.54 226.2C1461.88 227.427 1461.54 228.853 1461.54 230.48C1461.54 232.107 1461.88 233.547 1462.54 234.8C1463.24 236.027 1464.17 236.987 1465.34 237.68C1466.54 238.347 1467.89 238.68 1469.38 238.68ZM1485.94 248.96C1484.95 248.96 1484.01 248.8 1483.1 248.48C1482.22 248.16 1481.46 247.68 1480.82 247.04L1482.14 244.92C1482.67 245.427 1483.25 245.813 1483.86 246.08C1484.5 246.373 1485.21 246.52 1485.98 246.52C1486.91 246.52 1487.71 246.253 1488.38 245.72C1489.07 245.213 1489.73 244.307 1490.34 243L1491.7 239.92L1492.02 239.48L1500.66 220H1503.46L1492.94 243.52C1492.35 244.88 1491.7 245.96 1490.98 246.76C1490.29 247.56 1489.53 248.12 1488.7 248.44C1487.87 248.787 1486.95 248.96 1485.94 248.96ZM1491.54 241.6L1481.86 220H1484.82L1493.38 239.28L1491.54 241.6ZM1532.02 241L1524.82 230.6L1527.18 229.2L1535.42 241H1532.02ZM1503.74 241L1511.98 229.2L1514.3 230.6L1507.14 241H1503.74ZM1511.74 230.8L1504.34 220H1507.42L1514.38 230.4L1511.74 230.8ZM1512.42 231.64V229.2H1519.02V231.64H1512.42ZM1518.14 241V220H1520.98V241H1518.14ZM1520.1 231.64V229.2H1526.74V231.64H1520.1ZM1527.46 230.8L1524.74 230.4L1531.74 220H1534.82L1527.46 230.8ZM1548.49 241.2C1546.3 241.2 1544.38 240.747 1542.73 239.84C1541.07 238.907 1539.78 237.64 1538.85 236.04C1537.91 234.413 1537.45 232.56 1537.45 230.48C1537.45 228.4 1537.89 226.56 1538.77 224.96C1539.67 223.36 1540.9 222.107 1542.45 221.2C1544.02 220.267 1545.78 219.8 1547.73 219.8C1549.7 219.8 1551.45 220.253 1552.97 221.16C1554.51 222.04 1555.73 223.293 1556.61 224.92C1557.49 226.52 1557.93 228.373 1557.93 230.48C1557.93 230.613 1557.91 230.76 1557.89 230.92C1557.89 231.053 1557.89 231.2 1557.89 231.36H1539.61V229.24H1556.37L1555.25 230.08C1555.25 228.56 1554.91 227.213 1554.25 226.04C1553.61 224.84 1552.73 223.907 1551.61 223.24C1550.49 222.573 1549.19 222.24 1547.73 222.24C1546.29 222.24 1544.99 222.573 1543.85 223.24C1542.7 223.907 1541.81 224.84 1541.17 226.04C1540.53 227.24 1540.21 228.613 1540.21 230.16V230.6C1540.21 232.2 1540.55 233.613 1541.25 234.84C1541.97 236.04 1542.95 236.987 1544.21 237.68C1545.49 238.347 1546.94 238.68 1548.57 238.68C1549.85 238.68 1551.03 238.453 1552.13 238C1553.25 237.547 1554.21 236.853 1555.01 235.92L1556.61 237.76C1555.67 238.88 1554.5 239.733 1553.09 240.32C1551.7 240.907 1550.17 241.2 1548.49 241.2ZM1564.21 241V220H1567.05V229.28H1580.29V220H1583.13V241H1580.29V231.72H1567.05V241H1564.21ZM1599.52 241.04L1591.2 241V220H1594.04V227.32L1600.04 227.4C1602.68 227.427 1604.7 228.013 1606.08 229.16C1607.47 230.307 1608.16 231.96 1608.16 234.12C1608.16 236.36 1607.42 238.08 1605.92 239.28C1604.43 240.48 1602.3 241.067 1599.52 241.04ZM1599.32 238.88C1601.3 238.907 1602.78 238.52 1603.76 237.72C1604.78 236.893 1605.28 235.693 1605.28 234.12C1605.28 232.547 1604.79 231.4 1603.8 230.68C1602.82 229.933 1601.32 229.547 1599.32 229.52L1594.04 229.44V238.8L1599.32 238.88ZM1611.68 241V220H1614.52V241H1611.68Z" fill="white"/>
<path d="M1409.72 398V370H1433.28V398H1430.36V371.76L1431.12 372.56H1411.88L1412.64 371.76V398H1409.72ZM1440.25 398.24C1439.93 398.24 1439.59 398.213 1439.25 398.16C1438.93 398.107 1438.58 398.04 1438.21 397.96L1438.41 395.52C1438.59 395.547 1438.77 395.587 1438.93 395.64C1439.11 395.667 1439.27 395.68 1439.41 395.68C1440.26 395.68 1440.94 395.36 1441.45 394.72C1441.98 394.08 1442.38 393.227 1442.65 392.16C1442.91 391.093 1443.1 389.893 1443.21 388.56C1443.31 387.2 1443.41 385.84 1443.49 384.48L1443.85 377H1459.25V398H1456.41V378.64L1457.13 379.48H1445.69L1446.37 378.6L1446.05 384.68C1445.97 386.493 1445.82 388.227 1445.61 389.88C1445.42 391.533 1445.11 392.987 1444.69 394.24C1444.29 395.493 1443.73 396.48 1443.01 397.2C1442.29 397.893 1441.37 398.24 1440.25 398.24ZM1480.36 398V393.36L1480.24 392.6V384.84C1480.24 383.053 1479.73 381.68 1478.72 380.72C1477.73 379.76 1476.25 379.28 1474.28 379.28C1472.92 379.28 1471.63 379.507 1470.4 379.96C1469.17 380.413 1468.13 381.013 1467.28 381.76L1466 379.64C1467.07 378.733 1468.35 378.04 1469.84 377.56C1471.33 377.053 1472.91 376.8 1474.56 376.8C1477.28 376.8 1479.37 377.48 1480.84 378.84C1482.33 380.173 1483.08 382.213 1483.08 384.96V398H1480.36ZM1473.12 398.2C1471.55 398.2 1470.17 397.947 1469 397.44C1467.85 396.907 1466.97 396.187 1466.36 395.28C1465.75 394.347 1465.44 393.28 1465.44 392.08C1465.44 390.987 1465.69 390 1466.2 389.12C1466.73 388.213 1467.59 387.493 1468.76 386.96C1469.96 386.4 1471.56 386.12 1473.56 386.12H1480.8V388.24H1473.64C1471.61 388.24 1470.2 388.6 1469.4 389.32C1468.63 390.04 1468.24 390.933 1468.24 392C1468.24 393.2 1468.71 394.16 1469.64 394.88C1470.57 395.6 1471.88 395.96 1473.56 395.96C1475.16 395.96 1476.53 395.6 1477.68 394.88C1478.85 394.133 1479.71 393.067 1480.24 391.68L1480.88 393.64C1480.35 395.027 1479.41 396.133 1478.08 396.96C1476.77 397.787 1475.12 398.2 1473.12 398.2ZM1490.64 398V377H1493.48V386.28H1506.72V377H1509.56V398H1506.72V388.72H1493.48V398H1490.64ZM1526.63 398.2C1524.45 398.2 1522.53 397.747 1520.87 396.84C1519.22 395.907 1517.93 394.64 1516.99 393.04C1516.06 391.413 1515.59 389.56 1515.59 387.48C1515.59 385.4 1516.03 383.56 1516.91 381.96C1517.82 380.36 1519.05 379.107 1520.59 378.2C1522.17 377.267 1523.93 376.8 1525.87 376.8C1527.85 376.8 1529.59 377.253 1531.11 378.16C1532.66 379.04 1533.87 380.293 1534.75 381.92C1535.63 383.52 1536.07 385.373 1536.07 387.48C1536.07 387.613 1536.06 387.76 1536.03 387.92C1536.03 388.053 1536.03 388.2 1536.03 388.36H1517.75V386.24H1534.51L1533.39 387.08C1533.39 385.56 1533.06 384.213 1532.39 383.04C1531.75 381.84 1530.87 380.907 1529.75 380.24C1528.63 379.573 1527.34 379.24 1525.87 379.24C1524.43 379.24 1523.14 379.573 1521.99 380.24C1520.85 380.907 1519.95 381.84 1519.31 383.04C1518.67 384.24 1518.35 385.613 1518.35 387.16V387.6C1518.35 389.2 1518.7 390.613 1519.39 391.84C1520.11 393.04 1521.1 393.987 1522.35 394.68C1523.63 395.347 1525.09 395.68 1526.71 395.68C1527.99 395.68 1529.18 395.453 1530.27 395C1531.39 394.547 1532.35 393.853 1533.15 392.92L1534.75 394.76C1533.82 395.88 1532.65 396.733 1531.23 397.32C1529.85 397.907 1528.31 398.2 1526.63 398.2ZM1545.42 398V378.72L1546.14 379.48H1537.46V377H1556.22V379.48H1547.54L1548.26 378.72V398H1545.42Z" fill="white"/>
<path d="M1398.66 299.48C1401.34 300.824 1403.41 302.456 1404.85 304.376C1406.32 306.264 1407.26 308.248 1407.68 310.328C1408.1 312.408 1408.03 314.504 1407.49 316.616C1406.94 318.696 1406 320.616 1404.66 322.376C1403.31 324.136 1401.6 325.64 1399.52 326.888C1397.44 328.136 1395.07 328.952 1392.42 329.336C1389.34 329.816 1385.79 330.184 1381.76 330.44C1377.73 330.696 1373.52 330.824 1369.14 330.824C1366.38 330.824 1363.62 330.776 1360.83 330.68C1358.08 330.584 1355.39 330.424 1352.77 330.2C1350.14 330.008 1347.65 329.768 1345.28 329.48C1342.91 329.192 1340.75 328.856 1338.8 328.472V314.12C1339.22 314.152 1340.05 314.264 1341.3 314.456C1342.58 314.616 1344.13 314.808 1345.95 315.032C1347.78 315.256 1349.82 315.496 1352.1 315.752C1354.37 316.008 1356.72 316.248 1359.15 316.472C1361.62 316.664 1364.1 316.84 1366.59 317C1369.09 317.128 1371.49 317.192 1373.79 317.192C1375.9 317.192 1377.89 317.128 1379.74 317C1381.6 316.84 1383.2 316.584 1384.54 316.232C1385.92 315.88 1386.99 315.432 1387.76 314.888C1388.56 314.312 1388.96 313.592 1388.96 312.728C1388.96 311.992 1388.56 311.352 1387.76 310.808C1386.99 310.264 1385.94 309.8 1384.59 309.416C1383.28 309.032 1381.73 308.728 1379.94 308.504C1378.14 308.248 1376.26 308.056 1374.27 307.928C1372.29 307.768 1370.26 307.656 1368.18 307.592C1366.1 307.528 1364.08 307.496 1362.13 307.496C1360.3 307.496 1358.59 307.512 1356.99 307.544C1355.42 307.576 1354.05 307.608 1352.86 307.64C1351.46 307.704 1350.18 307.768 1349.02 307.832V294.632C1349.57 294.568 1350.35 294.552 1351.38 294.584C1352.4 294.584 1353.6 294.6 1354.98 294.632C1356.38 294.664 1357.9 294.696 1359.54 294.728C1361.17 294.76 1362.85 294.776 1364.58 294.776C1366.85 294.776 1369.1 294.728 1371.34 294.632C1373.58 294.504 1375.63 294.296 1377.49 294.008C1379.34 293.688 1380.91 293.256 1382.19 292.712C1383.47 292.136 1384.27 291.4 1384.59 290.504C1384.75 289.48 1384.5 288.632 1383.82 287.96C1383.18 287.256 1382.24 286.696 1380.99 286.28C1379.74 285.864 1378.24 285.576 1376.48 285.416C1374.72 285.224 1372.83 285.128 1370.82 285.128C1368.61 285.128 1366.3 285.208 1363.9 285.368C1361.5 285.528 1359.14 285.736 1356.8 285.992C1354.46 286.248 1352.22 286.52 1350.08 286.808C1347.97 287.096 1346.1 287.368 1344.46 287.624C1342.83 287.848 1341.5 288.04 1340.48 288.2C1339.49 288.328 1338.93 288.392 1338.8 288.392V274.136C1345.14 272.92 1350.9 272.088 1356.08 271.64C1361.26 271.192 1365.94 270.968 1370.1 270.968C1373.52 270.968 1376.56 271.08 1379.22 271.304C1381.87 271.528 1384.16 271.8 1386.08 272.12C1388 272.44 1389.54 272.744 1390.69 273.032C1391.87 273.32 1392.67 273.544 1393.09 273.704C1395.01 274.248 1396.67 275.08 1398.08 276.2C1399.49 277.32 1400.62 278.616 1401.49 280.088C1402.38 281.56 1402.99 283.16 1403.31 284.888C1403.66 286.584 1403.73 288.296 1403.5 290.024C1403.31 291.752 1402.8 293.432 1401.97 295.064C1401.17 296.696 1400.06 298.168 1398.66 299.48ZM1453.45 284.744C1456.4 284.776 1459.37 284.888 1462.38 285.08C1465.39 285.272 1468.29 285.64 1471.07 286.184C1473.89 286.696 1476.51 287.448 1478.94 288.44C1481.37 289.432 1483.47 290.776 1485.23 292.472C1486.99 294.136 1488.35 296.216 1489.31 298.712C1490.27 301.176 1490.67 304.168 1490.51 307.688C1490.67 311.208 1490.27 314.216 1489.31 316.712C1488.35 319.208 1486.99 321.304 1485.23 323C1483.47 324.664 1481.37 325.992 1478.94 326.984C1476.51 327.976 1473.89 328.728 1471.07 329.24C1468.29 329.784 1465.39 330.136 1462.38 330.296C1459.37 330.488 1456.4 330.616 1453.45 330.68C1450.54 330.616 1447.61 330.472 1444.67 330.248C1441.73 330.056 1438.89 329.672 1436.17 329.096C1433.49 328.552 1430.97 327.784 1428.64 326.792C1426.3 325.768 1424.29 324.424 1422.59 322.76C1420.93 321.064 1419.63 319 1418.7 316.568C1417.81 314.104 1417.42 311.144 1417.55 307.688C1417.45 304.968 1417.68 302.568 1418.22 300.488C1418.8 298.408 1419.65 296.568 1420.77 294.968L1434.97 272.648L1457.68 272.456L1449.37 284.888C1450.08 284.856 1450.77 284.84 1451.44 284.84C1452.11 284.808 1452.78 284.776 1453.45 284.744ZM1454.61 315.656C1456.81 315.656 1458.89 315.624 1460.85 315.56C1462.8 315.496 1464.51 315.224 1465.98 314.744C1467.49 314.232 1468.7 313.432 1469.63 312.344C1470.56 311.256 1471.09 309.704 1471.21 307.688C1471.09 305.672 1470.56 304.12 1469.63 303.032C1468.7 301.944 1467.49 301.16 1465.98 300.68C1464.51 300.2 1462.8 299.928 1460.85 299.864C1458.89 299.8 1456.81 299.768 1454.61 299.768H1453.45C1451.28 299.768 1449.21 299.8 1447.26 299.864C1445.31 299.928 1443.58 300.2 1442.08 300.68C1440.61 301.16 1439.41 301.944 1438.48 303.032C1437.58 304.12 1437.05 305.672 1436.89 307.688C1437.05 309.704 1437.58 311.256 1438.48 312.344C1439.41 313.432 1440.61 314.232 1442.08 314.744C1443.58 315.224 1445.31 315.496 1447.26 315.56C1449.21 315.624 1451.28 315.656 1453.45 315.656H1454.61ZM1530.19 307.88C1529.62 307.912 1528.78 307.96 1527.7 308.024C1526.61 308.088 1525.49 308.216 1524.34 308.408C1523.22 308.6 1522.18 308.888 1521.22 309.272C1520.26 309.656 1519.62 310.216 1519.3 310.952V313.784H1570.42V328.808H1500.14V310.712H1500.29C1500.54 308.888 1501.07 307.192 1501.87 305.624C1502.7 304.024 1503.89 302.552 1505.42 301.208C1507.41 299.544 1509.71 298.248 1512.34 297.32C1514.96 296.392 1517.7 295.688 1520.54 295.208C1523.39 294.728 1526.26 294.408 1529.14 294.248C1532.05 294.056 1534.77 293.896 1537.3 293.768C1537.68 293.736 1538.19 293.72 1538.83 293.72C1539.47 293.688 1540.14 293.672 1540.85 293.672C1541.55 293.64 1542.22 293.608 1542.86 293.576C1543.5 293.544 1544.02 293.512 1544.4 293.48C1544.82 293.448 1545.38 293.432 1546.08 293.432C1546.78 293.4 1547.55 293.352 1548.38 293.288C1549.22 293.192 1550.05 293.064 1550.88 292.904C1551.71 292.744 1552.46 292.52 1553.14 292.232C1553.84 291.944 1554.4 291.592 1554.82 291.176C1555.26 290.728 1555.49 290.184 1555.49 289.544C1555.49 288.872 1555.22 288.328 1554.67 287.912C1554.16 287.464 1553.07 287.16 1551.41 287C1550.19 286.872 1548.9 286.792 1547.52 286.76C1546.18 286.696 1544.77 286.664 1543.3 286.664C1540.74 286.664 1538.08 286.744 1535.33 286.904C1532.58 287.032 1529.86 287.224 1527.17 287.48C1524.51 287.704 1521.94 287.976 1519.44 288.296C1516.98 288.584 1514.75 288.888 1512.77 289.208C1510.82 289.528 1509.17 289.848 1507.82 290.168C1506.48 290.456 1505.58 290.712 1505.14 290.936V275.912C1506.61 275.432 1508.59 274.936 1511.09 274.424C1513.58 273.912 1516.4 273.448 1519.54 273.032C1522.67 272.584 1526.03 272.232 1529.62 271.976C1533.2 271.688 1536.8 271.544 1540.42 271.544C1544.45 271.544 1548.37 271.768 1552.18 272.216C1555.98 272.632 1559.42 273.352 1562.5 274.376C1565.6 275.4 1568.18 276.776 1570.22 278.504C1572.3 280.2 1573.6 282.344 1574.11 284.936C1574.69 287.848 1574.59 290.616 1573.82 293.24C1573.06 295.864 1571.5 298.168 1569.17 300.152C1567.15 301.816 1564.83 303.112 1562.21 304.04C1559.62 304.968 1556.88 305.688 1554 306.2C1551.15 306.68 1548.29 307.016 1545.41 307.208C1542.53 307.368 1539.82 307.512 1537.3 307.64C1536.91 307.64 1536.38 307.656 1535.71 307.688C1535.07 307.688 1534.4 307.704 1533.7 307.736C1532.99 307.768 1532.32 307.8 1531.68 307.832C1531.04 307.832 1530.54 307.848 1530.19 307.88ZM1622.54 329H1603.44V287.816H1584.1V272.744H1622.54V329Z" fill="white"/>
<path d="M1690 241.24C1687.89 241.24 1685.93 240.893 1684.12 240.2C1682.33 239.48 1680.77 238.48 1679.44 237.2C1678.13 235.893 1677.11 234.387 1676.36 232.68C1675.64 230.947 1675.28 229.053 1675.28 227C1675.28 224.947 1675.64 223.067 1676.36 221.36C1677.11 219.627 1678.13 218.12 1679.44 216.84C1680.77 215.533 1682.33 214.533 1684.12 213.84C1685.91 213.12 1687.87 212.76 1690 212.76C1692.11 212.76 1694.05 213.12 1695.84 213.84C1697.63 214.533 1699.17 215.52 1700.48 216.8C1701.81 218.08 1702.84 219.587 1703.56 221.32C1704.31 223.053 1704.68 224.947 1704.68 227C1704.68 229.053 1704.31 230.947 1703.56 232.68C1702.84 234.413 1701.81 235.92 1700.48 237.2C1699.17 238.48 1697.63 239.48 1695.84 240.2C1694.05 240.893 1692.11 241.24 1690 241.24ZM1690 238.6C1691.68 238.6 1693.23 238.32 1694.64 237.76C1696.08 237.173 1697.32 236.36 1698.36 235.32C1699.43 234.253 1700.25 233.027 1700.84 231.64C1701.43 230.227 1701.72 228.68 1701.72 227C1701.72 225.32 1701.43 223.787 1700.84 222.4C1700.25 220.987 1699.43 219.76 1698.36 218.72C1697.32 217.653 1696.08 216.84 1694.64 216.28C1693.23 215.693 1691.68 215.4 1690 215.4C1688.32 215.4 1686.76 215.693 1685.32 216.28C1683.88 216.84 1682.63 217.653 1681.56 218.72C1680.52 219.76 1679.69 220.987 1679.08 222.4C1678.49 223.787 1678.2 225.32 1678.2 227C1678.2 228.653 1678.49 230.187 1679.08 231.6C1679.69 233.013 1680.52 234.253 1681.56 235.32C1682.63 236.36 1683.88 237.173 1685.32 237.76C1686.76 238.32 1688.32 238.6 1690 238.6ZM1720.5 241.24C1718.8 241.24 1717.28 240.96 1715.94 240.4C1714.64 239.84 1713.52 238.987 1712.58 237.84C1711.65 236.693 1710.94 235.28 1710.46 233.6C1709.98 231.893 1709.74 229.92 1709.74 227.68C1709.74 225.68 1709.93 223.933 1710.3 222.44C1710.68 220.92 1711.2 219.613 1711.86 218.52C1712.53 217.427 1713.3 216.507 1714.18 215.76C1715.09 214.987 1716.06 214.373 1717.1 213.92C1718.17 213.44 1719.26 213.08 1720.38 212.84L1729.82 210.64L1730.3 213.28L1721.42 215.28C1720.86 215.413 1720.18 215.6 1719.38 215.84C1718.61 216.08 1717.81 216.44 1716.98 216.92C1716.18 217.4 1715.44 218.067 1714.74 218.92C1714.05 219.773 1713.49 220.88 1713.06 222.24C1712.66 223.573 1712.46 225.24 1712.46 227.24C1712.46 227.667 1712.48 228.013 1712.5 228.28C1712.53 228.52 1712.56 228.787 1712.58 229.08C1712.64 229.347 1712.68 229.747 1712.7 230.28L1711.46 229.24C1711.76 227.613 1712.36 226.2 1713.26 225C1714.17 223.773 1715.3 222.827 1716.66 222.16C1718.05 221.467 1719.58 221.12 1721.26 221.12C1723.21 221.12 1724.94 221.547 1726.46 222.4C1727.98 223.227 1729.17 224.387 1730.02 225.88C1730.9 227.373 1731.34 229.107 1731.34 231.08C1731.34 233.027 1730.89 234.773 1729.98 236.32C1729.1 237.867 1727.85 239.08 1726.22 239.96C1724.6 240.813 1722.69 241.24 1720.5 241.24ZM1720.82 238.88C1722.32 238.88 1723.64 238.547 1724.78 237.88C1725.93 237.187 1726.82 236.253 1727.46 235.08C1728.13 233.907 1728.46 232.587 1728.46 231.12C1728.46 229.68 1728.13 228.4 1727.46 227.28C1726.82 226.16 1725.93 225.28 1724.78 224.64C1723.64 223.973 1722.3 223.64 1720.78 223.64C1719.29 223.64 1717.97 223.96 1716.82 224.6C1715.68 225.213 1714.77 226.08 1714.1 227.2C1713.46 228.32 1713.14 229.613 1713.14 231.08C1713.14 232.547 1713.46 233.867 1714.1 235.04C1714.77 236.213 1715.68 237.147 1716.82 237.84C1718 238.533 1719.33 238.88 1720.82 238.88ZM1737.43 241V220H1740.27V229.28H1753.51V220H1756.35V241H1753.51V231.72H1740.27V241H1737.43ZM1777.46 241V236.36L1777.34 235.6V227.84C1777.34 226.053 1776.84 224.68 1775.82 223.72C1774.84 222.76 1773.36 222.28 1771.38 222.28C1770.02 222.28 1768.73 222.507 1767.5 222.96C1766.28 223.413 1765.24 224.013 1764.38 224.76L1763.1 222.64C1764.17 221.733 1765.45 221.04 1766.94 220.56C1768.44 220.053 1770.01 219.8 1771.66 219.8C1774.38 219.8 1776.48 220.48 1777.94 221.84C1779.44 223.173 1780.18 225.213 1780.18 227.96V241H1777.46ZM1770.22 241.2C1768.65 241.2 1767.28 240.947 1766.1 240.44C1764.96 239.907 1764.08 239.187 1763.46 238.28C1762.85 237.347 1762.54 236.28 1762.54 235.08C1762.54 233.987 1762.8 233 1763.3 232.12C1763.84 231.213 1764.69 230.493 1765.86 229.96C1767.06 229.4 1768.66 229.12 1770.66 229.12H1777.9V231.24H1770.74C1768.72 231.24 1767.3 231.6 1766.5 232.32C1765.73 233.04 1765.34 233.933 1765.34 235C1765.34 236.2 1765.81 237.16 1766.74 237.88C1767.68 238.6 1768.98 238.96 1770.66 238.96C1772.26 238.96 1773.64 238.6 1774.78 237.88C1775.96 237.133 1776.81 236.067 1777.34 234.68L1777.98 236.64C1777.45 238.027 1776.52 239.133 1775.18 239.96C1773.88 240.787 1772.22 241.2 1770.22 241.2ZM1798.58 241.2C1796.77 241.2 1795.13 240.787 1793.66 239.96C1792.2 239.107 1791.02 237.893 1790.14 236.32C1789.29 234.72 1788.86 232.773 1788.86 230.48C1788.86 228.187 1789.29 226.253 1790.14 224.68C1791 223.08 1792.16 221.867 1793.62 221.04C1795.09 220.213 1796.74 219.8 1798.58 219.8C1800.58 219.8 1802.37 220.253 1803.94 221.16C1805.54 222.04 1806.8 223.293 1807.7 224.92C1808.61 226.52 1809.06 228.373 1809.06 230.48C1809.06 232.613 1808.61 234.48 1807.7 236.08C1806.8 237.68 1805.54 238.933 1803.94 239.84C1802.37 240.747 1800.58 241.2 1798.58 241.2ZM1787.74 248.76V220H1790.46V226.32L1790.18 230.52L1790.58 234.76V248.76H1787.74ZM1798.38 238.68C1799.88 238.68 1801.21 238.347 1802.38 237.68C1803.56 236.987 1804.49 236.027 1805.18 234.8C1805.88 233.547 1806.22 232.107 1806.22 230.48C1806.22 228.853 1805.88 227.427 1805.18 226.2C1804.49 224.973 1803.56 224.013 1802.38 223.32C1801.21 222.627 1799.88 222.28 1798.38 222.28C1796.89 222.28 1795.54 222.627 1794.34 223.32C1793.17 224.013 1792.24 224.973 1791.54 226.2C1790.88 227.427 1790.54 228.853 1790.54 230.48C1790.54 232.107 1790.88 233.547 1791.54 234.8C1792.24 236.027 1793.17 236.987 1794.34 237.68C1795.54 238.347 1796.89 238.68 1798.38 238.68ZM1814.94 248.96C1813.95 248.96 1813.01 248.8 1812.1 248.48C1811.22 248.16 1810.46 247.68 1809.82 247.04L1811.14 244.92C1811.67 245.427 1812.25 245.813 1812.86 246.08C1813.5 246.373 1814.21 246.52 1814.98 246.52C1815.91 246.52 1816.71 246.253 1817.38 245.72C1818.07 245.213 1818.73 244.307 1819.34 243L1820.7 239.92L1821.02 239.48L1829.66 220H1832.46L1821.94 243.52C1821.35 244.88 1820.7 245.96 1819.98 246.76C1819.29 247.56 1818.53 248.12 1817.7 248.44C1816.87 248.787 1815.95 248.96 1814.94 248.96ZM1820.54 241.6L1810.86 220H1813.82L1822.38 239.28L1820.54 241.6ZM1861.02 241L1853.82 230.6L1856.18 229.2L1864.42 241H1861.02ZM1832.74 241L1840.98 229.2L1843.3 230.6L1836.14 241H1832.74ZM1840.74 230.8L1833.34 220H1836.42L1843.38 230.4L1840.74 230.8ZM1841.42 231.64V229.2H1848.02V231.64H1841.42ZM1847.14 241V220H1849.98V241H1847.14ZM1849.1 231.64V229.2H1855.74V231.64H1849.1ZM1856.46 230.8L1853.74 230.4L1860.74 220H1863.82L1856.46 230.8ZM1877.49 241.2C1875.3 241.2 1873.38 240.747 1871.73 239.84C1870.07 238.907 1868.78 237.64 1867.85 236.04C1866.91 234.413 1866.45 232.56 1866.45 230.48C1866.45 228.4 1866.89 226.56 1867.77 224.96C1868.67 223.36 1869.9 222.107 1871.45 221.2C1873.02 220.267 1874.78 219.8 1876.73 219.8C1878.7 219.8 1880.45 220.253 1881.97 221.16C1883.51 222.04 1884.73 223.293 1885.61 224.92C1886.49 226.52 1886.93 228.373 1886.93 230.48C1886.93 230.613 1886.91 230.76 1886.89 230.92C1886.89 231.053 1886.89 231.2 1886.89 231.36H1868.61V229.24H1885.37L1884.25 230.08C1884.25 228.56 1883.91 227.213 1883.25 226.04C1882.61 224.84 1881.73 223.907 1880.61 223.24C1879.49 222.573 1878.19 222.24 1876.73 222.24C1875.29 222.24 1873.99 222.573 1872.85 223.24C1871.7 223.907 1870.81 224.84 1870.17 226.04C1869.53 227.24 1869.21 228.613 1869.21 230.16V230.6C1869.21 232.2 1869.55 233.613 1870.25 234.84C1870.97 236.04 1871.95 236.987 1873.21 237.68C1874.49 238.347 1875.94 238.68 1877.57 238.68C1878.85 238.68 1880.03 238.453 1881.13 238C1882.25 237.547 1883.21 236.853 1884.01 235.92L1885.61 237.76C1884.67 238.88 1883.5 239.733 1882.09 240.32C1880.7 240.907 1879.17 241.2 1877.49 241.2ZM1893.21 241V220H1896.05V229.28H1909.29V220H1912.13V241H1909.29V231.72H1896.05V241H1893.21ZM1928.52 241.04L1920.2 241V220H1923.04V227.32L1929.04 227.4C1931.68 227.427 1933.7 228.013 1935.08 229.16C1936.47 230.307 1937.16 231.96 1937.16 234.12C1937.16 236.36 1936.42 238.08 1934.92 239.28C1933.43 240.48 1931.3 241.067 1928.52 241.04ZM1928.32 238.88C1930.3 238.907 1931.78 238.52 1932.76 237.72C1933.78 236.893 1934.28 235.693 1934.28 234.12C1934.28 232.547 1933.79 231.4 1932.8 230.68C1931.82 229.933 1930.32 229.547 1928.32 229.52L1923.04 229.44V238.8L1928.32 238.88ZM1940.68 241V220H1943.52V241H1940.68Z" fill="white"/>
<path d="M1738.72 398V370H1762.28V398H1759.36V371.76L1760.12 372.56H1740.88L1741.64 371.76V398H1738.72ZM1769.25 398.24C1768.93 398.24 1768.59 398.213 1768.25 398.16C1767.93 398.107 1767.58 398.04 1767.21 397.96L1767.41 395.52C1767.59 395.547 1767.77 395.587 1767.93 395.64C1768.11 395.667 1768.27 395.68 1768.41 395.68C1769.26 395.68 1769.94 395.36 1770.45 394.72C1770.98 394.08 1771.38 393.227 1771.65 392.16C1771.91 391.093 1772.1 389.893 1772.21 388.56C1772.31 387.2 1772.41 385.84 1772.49 384.48L1772.85 377H1788.25V398H1785.41V378.64L1786.13 379.48H1774.69L1775.37 378.6L1775.05 384.68C1774.97 386.493 1774.82 388.227 1774.61 389.88C1774.42 391.533 1774.11 392.987 1773.69 394.24C1773.29 395.493 1772.73 396.48 1772.01 397.2C1771.29 397.893 1770.37 398.24 1769.25 398.24ZM1809.36 398V393.36L1809.24 392.6V384.84C1809.24 383.053 1808.73 381.68 1807.72 380.72C1806.73 379.76 1805.25 379.28 1803.28 379.28C1801.92 379.28 1800.63 379.507 1799.4 379.96C1798.17 380.413 1797.13 381.013 1796.28 381.76L1795 379.64C1796.07 378.733 1797.35 378.04 1798.84 377.56C1800.33 377.053 1801.91 376.8 1803.56 376.8C1806.28 376.8 1808.37 377.48 1809.84 378.84C1811.33 380.173 1812.08 382.213 1812.08 384.96V398H1809.36ZM1802.12 398.2C1800.55 398.2 1799.17 397.947 1798 397.44C1796.85 396.907 1795.97 396.187 1795.36 395.28C1794.75 394.347 1794.44 393.28 1794.44 392.08C1794.44 390.987 1794.69 390 1795.2 389.12C1795.73 388.213 1796.59 387.493 1797.76 386.96C1798.96 386.4 1800.56 386.12 1802.56 386.12H1809.8V388.24H1802.64C1800.61 388.24 1799.2 388.6 1798.4 389.32C1797.63 390.04 1797.24 390.933 1797.24 392C1797.24 393.2 1797.71 394.16 1798.64 394.88C1799.57 395.6 1800.88 395.96 1802.56 395.96C1804.16 395.96 1805.53 395.6 1806.68 394.88C1807.85 394.133 1808.71 393.067 1809.24 391.68L1809.88 393.64C1809.35 395.027 1808.41 396.133 1807.08 396.96C1805.77 397.787 1804.12 398.2 1802.12 398.2ZM1819.64 398V377H1822.48V386.28H1835.72V377H1838.56V398H1835.72V388.72H1822.48V398H1819.64ZM1855.63 398.2C1853.45 398.2 1851.53 397.747 1849.87 396.84C1848.22 395.907 1846.93 394.64 1845.99 393.04C1845.06 391.413 1844.59 389.56 1844.59 387.48C1844.59 385.4 1845.03 383.56 1845.91 381.96C1846.82 380.36 1848.05 379.107 1849.59 378.2C1851.17 377.267 1852.93 376.8 1854.87 376.8C1856.85 376.8 1858.59 377.253 1860.11 378.16C1861.66 379.04 1862.87 380.293 1863.75 381.92C1864.63 383.52 1865.07 385.373 1865.07 387.48C1865.07 387.613 1865.06 387.76 1865.03 387.92C1865.03 388.053 1865.03 388.2 1865.03 388.36H1846.75V386.24H1863.51L1862.39 387.08C1862.39 385.56 1862.06 384.213 1861.39 383.04C1860.75 381.84 1859.87 380.907 1858.75 380.24C1857.63 379.573 1856.34 379.24 1854.87 379.24C1853.43 379.24 1852.14 379.573 1850.99 380.24C1849.85 380.907 1848.95 381.84 1848.31 383.04C1847.67 384.24 1847.35 385.613 1847.35 387.16V387.6C1847.35 389.2 1847.7 390.613 1848.39 391.84C1849.11 393.04 1850.1 393.987 1851.35 394.68C1852.63 395.347 1854.09 395.68 1855.71 395.68C1856.99 395.68 1858.18 395.453 1859.27 395C1860.39 394.547 1861.35 393.853 1862.15 392.92L1863.75 394.76C1862.82 395.88 1861.65 396.733 1860.23 397.32C1858.85 397.907 1857.31 398.2 1855.63 398.2ZM1874.42 398V378.72L1875.14 379.48H1866.46V377H1885.22V379.48H1876.54L1877.26 378.72V398H1874.42Z" fill="white"/>
<path d="M1741.89 316.184H1735.02V329H1715.92V316.184H1658.8L1687.7 272.744H1708.86L1690.72 301.112H1715.92V285.464H1735.02V301.112H1741.89V316.184ZM1811.33 299.48C1814.02 300.824 1816.08 302.456 1817.52 304.376C1818.99 306.264 1819.94 308.248 1820.35 310.328C1820.77 312.408 1820.7 314.504 1820.16 316.616C1819.62 318.696 1818.67 320.616 1817.33 322.376C1815.98 324.136 1814.27 325.64 1812.19 326.888C1810.11 328.136 1807.74 328.952 1805.09 329.336C1802.02 329.816 1798.46 330.184 1794.43 330.44C1790.4 330.696 1786.19 330.824 1781.81 330.824C1779.06 330.824 1776.29 330.776 1773.5 330.68C1770.75 330.584 1768.06 330.424 1765.44 330.2C1762.82 330.008 1760.32 329.768 1757.95 329.48C1755.58 329.192 1753.42 328.856 1751.47 328.472V314.12C1751.89 314.152 1752.72 314.264 1753.97 314.456C1755.25 314.616 1756.8 314.808 1758.62 315.032C1760.45 315.256 1762.5 315.496 1764.77 315.752C1767.04 316.008 1769.39 316.248 1771.82 316.472C1774.29 316.664 1776.77 316.84 1779.26 317C1781.76 317.128 1784.16 317.192 1786.46 317.192C1788.58 317.192 1790.56 317.128 1792.42 317C1794.27 316.84 1795.87 316.584 1797.22 316.232C1798.59 315.88 1799.66 315.432 1800.43 314.888C1801.23 314.312 1801.63 313.592 1801.63 312.728C1801.63 311.992 1801.23 311.352 1800.43 310.808C1799.66 310.264 1798.61 309.8 1797.26 309.416C1795.95 309.032 1794.4 308.728 1792.61 308.504C1790.82 308.248 1788.93 308.056 1786.94 307.928C1784.96 307.768 1782.93 307.656 1780.85 307.592C1778.77 307.528 1776.75 307.496 1774.8 307.496C1772.98 307.496 1771.26 307.512 1769.66 307.544C1768.1 307.576 1766.72 307.608 1765.54 307.64C1764.13 307.704 1762.85 307.768 1761.7 307.832V294.632C1762.24 294.568 1763.02 294.552 1764.05 294.584C1765.07 294.584 1766.27 294.6 1767.65 294.632C1769.06 294.664 1770.58 294.696 1772.21 294.728C1773.84 294.76 1775.52 294.776 1777.25 294.776C1779.52 294.776 1781.78 294.728 1784.02 294.632C1786.26 294.504 1788.3 294.296 1790.16 294.008C1792.02 293.688 1793.58 293.256 1794.86 292.712C1796.14 292.136 1796.94 291.4 1797.26 290.504C1797.42 289.48 1797.17 288.632 1796.5 287.96C1795.86 287.256 1794.91 286.696 1793.66 286.28C1792.42 285.864 1790.91 285.576 1789.15 285.416C1787.39 285.224 1785.5 285.128 1783.49 285.128C1781.28 285.128 1778.98 285.208 1776.58 285.368C1774.18 285.528 1771.81 285.736 1769.47 285.992C1767.14 286.248 1764.9 286.52 1762.75 286.808C1760.64 287.096 1758.77 287.368 1757.14 287.624C1755.5 287.848 1754.18 288.04 1753.15 288.2C1752.16 288.328 1751.6 288.392 1751.47 288.392V274.136C1757.81 272.92 1763.57 272.088 1768.75 271.64C1773.94 271.192 1778.61 270.968 1782.77 270.968C1786.19 270.968 1789.23 271.08 1791.89 271.304C1794.54 271.528 1796.83 271.8 1798.75 272.12C1800.67 272.44 1802.21 272.744 1803.36 273.032C1804.54 273.32 1805.34 273.544 1805.76 273.704C1807.68 274.248 1809.34 275.08 1810.75 276.2C1812.16 277.32 1813.3 278.616 1814.16 280.088C1815.06 281.56 1815.66 283.16 1815.98 284.888C1816.34 286.584 1816.4 288.296 1816.18 290.024C1815.98 291.752 1815.47 293.432 1814.64 295.064C1813.84 296.696 1812.74 298.168 1811.33 299.48ZM1868.67 329H1849.57V287.816H1830.22V272.744H1868.67V329ZM1961.36 316.184H1954.49V329H1935.39V316.184H1878.27L1907.16 272.744H1928.33L1910.19 301.112H1935.39V285.464H1954.49V301.112H1961.36V316.184Z" fill="white"/>
</svg>
