<svg width="505" height="505" viewBox="0 0 505 505" fill="none" xmlns="http://www.w3.org/2000/svg">
<path d="M251.433 3.12929C251.433 8.84832 248.337 21.4733 245.561 26.9766C241.61 34.8537 234.671 41.7597 229.866 42.623C224.848 43.5941 224.635 44.889 229.332 45.7522C234.457 46.7234 240.863 52.7661 244.813 60.2117C248.123 66.4702 251.433 78.9873 251.433 85.3538C251.433 87.0803 251.967 88.4831 252.501 88.4831C253.141 88.4831 253.568 86.6487 253.568 84.3827C253.782 67.873 265.206 47.6945 275.669 45.7522C277.59 45.4285 279.192 44.6732 279.192 44.2416C279.192 43.8099 277.59 43.0546 275.669 42.7309C270.544 41.7597 264.138 35.717 260.294 28.3793C256.985 22.0129 253.568 9.38785 253.568 3.3451C253.568 1.5107 253.141 9.26852e-06 252.501 9.26852e-06C251.967 9.26852e-06 251.433 1.40279 251.433 3.12929Z" fill="white"/>
<path d="M74.9494 85.3532C83.7041 94.4173 90.2168 106.934 90.2168 114.488C90.2168 117.401 89.4695 121.502 88.7221 123.552C87.868 125.602 87.3342 127.329 87.6545 127.329C87.9748 127.329 90.0033 126.034 92.0318 124.307C95.6619 121.61 96.516 121.394 106.659 121.394C118.296 121.502 125.449 123.552 133.457 128.947C140.183 133.695 139.756 131.861 132.176 123.768C122.14 113.085 118.51 105.532 118.616 95.4964C118.616 91.2881 119.044 86.756 119.577 85.3532L120.431 82.7635L116.695 85.6769C108.58 91.9355 94.2739 91.1802 79.5403 83.8425C74.5223 81.3607 70.0381 79.0947 69.3975 78.8789C68.8637 78.663 71.3193 81.5765 74.9494 85.3532Z" fill="white"/>
<path d="M429.197 82.0087C413.289 91.5045 395.993 92.4756 386.598 84.2747C384.676 82.6561 384.569 82.6561 385.424 85.2459C385.957 86.7566 386.384 91.2886 386.384 95.497C386.491 105.424 382.754 113.086 372.718 123.768C368.661 128.085 365.672 131.646 365.992 131.646C366.419 131.646 369.729 130.027 373.359 127.977C383.182 122.581 391.082 120.531 400.798 120.963C407.844 121.287 409.659 121.826 412.969 124.308C417.774 128.085 418.414 128.085 416.386 124.092C415.531 122.366 414.784 118.481 414.784 115.568C414.784 106.072 419.909 96.1444 430.692 84.9222C433.895 81.5771 436.137 78.7715 435.603 78.8794C434.963 78.8794 432.187 80.2822 429.197 82.0087Z" fill="white"/>
<path d="M43.4536 229.624C40.1438 240.63 27.8658 248.292 8.54124 251.529L0 252.932L11.7442 255.198C18.2569 256.492 25.944 258.866 28.8267 260.377C35.4462 263.722 41.425 270.089 43.3468 275.376C44.9483 279.908 45.5889 279.692 47.4039 273.865C48.8986 269.225 54.9842 263.291 62.1375 259.73C67.5826 256.924 80.5012 253.579 85.8395 253.579C87.6545 253.579 89.1492 253.039 89.1492 252.5C89.1492 251.852 87.441 251.421 85.3057 251.421C79.0065 251.421 66.5149 248.076 60.2158 244.731C52.6354 240.738 49.0054 236.961 46.5498 230.487L44.628 225.415L43.4536 229.624Z" fill="white"/>
<path d="M458.772 229.409C457.063 235.236 452.259 240.739 445.96 244.192C440.088 247.429 426.101 251.422 420.55 251.422C418.628 251.422 416.706 251.853 416.386 252.501C415.959 253.148 417.24 253.58 419.482 253.58C425.461 253.58 436.991 256.709 443.504 260.054C450.551 263.615 456.957 270.197 458.024 275.053C459.092 279.909 460.16 280.017 461.654 275.161C463.256 269.55 471.69 262.104 480.125 258.651C483.861 257.248 490.908 255.414 495.926 254.551L505.001 253.148L499.129 252.177C495.926 251.745 489.413 250.127 484.609 248.616C471.69 244.516 464.857 238.581 461.014 227.79C460.053 225.308 459.946 225.416 458.772 229.409Z" fill="white"/>
<path d="M132.496 376.269C119.684 384.685 101.534 386.628 92.3522 380.477C87.7613 377.456 87.7613 377.456 88.6154 379.937C89.1492 381.34 89.5763 385.764 89.5763 389.649C89.683 395.584 89.1492 397.742 85.9462 404.108C83.8109 408.317 79.4336 414.467 75.59 418.46C71.8532 422.345 69.0773 425.798 69.3976 426.013C69.6111 426.337 70.4652 426.013 71.2126 425.474C78.6862 419.431 91.8184 415.007 102.068 415.007C109.221 414.899 110.716 415.331 114.666 417.92C119.577 421.266 120.965 421.158 119.15 417.813C117.656 415.007 117.656 406.482 119.044 401.303C120.645 395.584 127.478 385.441 134.098 378.966C140.183 373.031 139.436 371.629 132.496 376.269Z" fill="white"/>
<path d="M371.33 379.506C378.697 387.275 380.726 389.865 383.822 396.015C386.705 401.842 387.986 413.82 385.957 417.489C384.142 421.05 385.21 421.373 389.908 418.244C398.556 412.633 412.756 413.928 428.023 421.913C432.507 424.287 436.137 425.905 436.137 425.69C436.137 425.366 433.041 422.129 429.304 418.352C420.016 408.964 415.318 399.253 415.318 389.541C415.318 385.656 415.745 381.448 416.172 380.045C417.133 377.563 417.026 377.563 412.542 380.585C405.816 385.117 395.139 385.441 384.142 381.448C379.658 379.829 374.213 377.348 371.971 375.945C365.138 371.629 364.925 373.031 371.33 379.506Z" fill="white"/>
<path d="M252.287 416.517C251.967 417.381 251.113 421.589 250.472 425.905C247.91 442.631 239.902 455.471 229.973 458.816L225.275 460.435L229.546 461.838C235.205 463.672 241.29 469.607 245.134 477.161C248.23 483.419 251.433 495.828 251.433 501.871C251.433 503.598 251.967 505 252.501 505C253.141 505 253.568 503.598 253.568 501.871C253.568 495.828 256.771 483.419 259.867 477.161C263.711 469.715 268.515 464.751 274.815 462.269L279.619 460.327L275.135 458.816C269.903 457.09 263.07 450.616 260.081 444.789C257.305 439.285 254.636 429.898 253.675 421.697C253.248 417.92 252.607 415.654 252.287 416.517Z" fill="white"/>
</svg>
