<svg width="476" height="238" viewBox="0 0 476 238" fill="none" xmlns="http://www.w3.org/2000/svg">
<g clip-path="url(#clip0_843_88509)">
<rect x="14.875" y="14.875" width="208.25" height="208.25" stroke="white" stroke-width="0.709545"/>
<rect x="220.948" width="4.35366" height="29.75" fill="#D9D9D9"/>
<rect x="208.25" y="17.052" width="4.35366" height="29.75" transform="rotate(-90 208.25 17.052)" fill="#D9D9D9"/>
<rect x="12.6982" width="4.35366" height="29.75" fill="#D9D9D9"/>
<rect y="17.052" width="4.35366" height="29.75" transform="rotate(-90 0 17.052)" fill="#D9D9D9"/>
<rect x="220.948" y="208.25" width="4.35366" height="29.75" fill="#D9D9D9"/>
<rect x="208.25" y="225.302" width="4.35366" height="29.75" transform="rotate(-90 208.25 225.302)" fill="#D9D9D9"/>
<rect x="12.6982" y="208.25" width="4.35366" height="29.75" fill="#D9D9D9"/>
<rect y="225.302" width="4.35366" height="29.75" transform="rotate(-90 0 225.302)" fill="#D9D9D9"/>
</g>
<g clip-path="url(#clip1_843_88509)">
<rect x="252.875" y="14.875" width="208.25" height="208.25" stroke="white" stroke-width="0.709545"/>
<rect x="449.068" y="5.896" width="4.35366" height="29.75" transform="rotate(-45 449.068 5.896)" fill="#D9D9D9"/>
<rect x="452.146" y="26.9326" width="4.35366" height="29.75" transform="rotate(-135 452.146 26.9326)" fill="#D9D9D9"/>
<rect x="240.818" y="5.896" width="4.35366" height="29.75" transform="rotate(-45 240.818 5.896)" fill="#D9D9D9"/>
<rect x="243.896" y="26.9326" width="4.35366" height="29.75" transform="rotate(-135 243.896 26.9326)" fill="#D9D9D9"/>
<rect x="449.068" y="214.146" width="4.35366" height="29.75" transform="rotate(-45 449.068 214.146)" fill="#D9D9D9"/>
<rect x="452.146" y="235.183" width="4.35366" height="29.75" transform="rotate(-135 452.146 235.183)" fill="#D9D9D9"/>
<rect x="240.818" y="214.146" width="4.35366" height="29.75" transform="rotate(-45 240.818 214.146)" fill="#D9D9D9"/>
<rect x="243.896" y="235.183" width="4.35366" height="29.75" transform="rotate(-135 243.896 235.183)" fill="#D9D9D9"/>
</g>
<defs>
<clipPath id="clip0_843_88509">
<rect width="238" height="238" fill="white"/>
</clipPath>
<clipPath id="clip1_843_88509">
<rect width="238" height="238" fill="white" transform="translate(238)"/>
</clipPath>
</defs>
</svg>
