<svg width="135" height="135" viewBox="0 0 135 135" fill="none" xmlns="http://www.w3.org/2000/svg">
<path d="M75.6545 0.0231003C75.6929 0.176766 78.6684 7.72561 82.2773 16.8111C87.1149 28.9891 88.8234 33.5031 88.8234 34.0793C88.8234 34.5019 88.6314 35.251 88.4011 35.712C88.0363 36.4804 87.614 36.8261 84.4658 38.8814C82.5269 40.1491 80.972 41.2056 81.0104 41.244C81.0488 41.2824 82.834 40.7638 85.0033 40.0723C87.1725 39.3808 89.2457 38.8238 89.6872 38.8238C91.223 38.8238 91.7797 39.3616 94.3712 43.2993C95.6766 45.2777 96.79 46.872 96.8284 46.8144C96.8668 46.776 96.3484 44.9896 95.6574 42.8383C94.9663 40.687 94.3904 38.6509 94.3904 38.3051C94.3904 36.6532 95.1199 35.9041 99.5159 33.0805C101.244 31.9664 102.626 31.0444 102.587 31.0252C102.568 31.006 100.725 31.5438 98.5177 32.2353C95.2734 33.2342 94.3328 33.4455 93.7185 33.3494C92.6627 33.1958 91.7797 32.6195 91.2805 31.7935C90.935 31.2173 84.8305 18.7127 79.8394 8.37869C77.7853 4.09525 75.5393 -0.361065 75.6545 0.0231003Z" fill="white"/>
<path d="M40.8319 4.90229C40.8319 4.9407 43.481 7.07282 46.7445 9.64672C49.9887 12.2206 54.0584 15.4476 55.8053 16.8306C57.5521 18.2136 61.2571 21.1525 64.0406 23.3614C71.009 28.8742 70.8554 28.49 67.8799 34.3485C65.6723 38.6704 65.6339 38.6704 69.454 34.483C72.0456 31.6402 72.7366 31.1408 74.1188 31.1408C74.5603 31.1408 76.0961 31.7938 78.8796 33.1768C83.4292 35.4434 83.41 35.5202 79.3211 31.813C76.1152 28.8934 75.8657 28.5476 75.8849 27.0302C75.9041 25.9353 76.0385 25.6088 77.8621 22.0553C78.9371 19.9808 79.801 18.2712 79.7626 18.2712C79.705 18.2712 78.3804 19.6926 76.7679 21.4214C73.6005 24.8789 73.255 25.1094 71.4697 24.9557C70.3563 24.8597 71.2393 25.4167 57.341 16.0047C53.8088 13.6036 48.6449 10.1077 45.8806 8.22531C43.0971 6.34291 40.8319 4.84466 40.8319 4.90229Z" fill="white"/>
<path d="M108.25 13.0852C108.25 13.4499 108.289 13.6035 108.346 13.4115C108.385 13.2387 108.385 12.9316 108.346 12.7396C108.289 12.5669 108.25 12.7204 108.25 13.0852Z" fill="white"/>
<path d="M107.982 14.7174C105.236 34.0986 103.048 48.4279 102.703 49.1386C102.319 49.9646 101.436 50.6369 100.437 50.8866C100.015 51.0018 98.0761 51.1555 96.1181 51.2131C94.16 51.2899 92.4899 51.4052 92.394 51.4628C92.298 51.5204 94.0257 51.9622 96.2333 52.4616C98.4409 52.9419 100.514 53.4989 100.86 53.6718C101.589 54.0559 102.165 54.7666 102.434 55.5926C102.607 56.1496 103.029 61.9505 103.029 63.8329C103.029 64.2747 103.067 64.5821 103.125 64.5436C103.163 64.486 103.605 62.6804 104.085 60.5099C104.565 58.3586 105.045 56.3609 105.16 56.092C105.428 55.4197 106.427 54.4593 107.156 54.1904C107.463 54.0751 109.498 53.8831 111.667 53.7678C113.837 53.6526 115.66 53.4989 115.756 53.4221C115.833 53.3644 114.182 52.9226 112.109 52.4809C110.016 52.0199 108.078 51.5397 107.809 51.386C107.041 51.0018 106.139 49.8493 105.985 49.081C105.851 48.3895 105.985 46.4687 107.463 25.6853C108.174 15.7547 108.346 12.1435 107.982 14.7174Z" fill="white"/>
<path d="M52.561 22.8235C52.1003 24.9172 51.6204 26.8572 51.4668 27.1262C51.0829 27.8945 49.9311 28.7973 49.1824 28.9509C48.5298 29.0662 41.4462 28.6052 21.9425 27.203C16.9706 26.838 12.8817 26.5883 12.8241 26.6267C12.7857 26.6844 12.8625 26.7228 12.9969 26.7228C13.3232 26.7228 31.0993 29.2967 40.8127 30.7565C45.2279 31.4096 48.8369 32.0435 49.2208 32.2356C50.0847 32.6389 50.7566 33.5417 50.9869 34.5982C51.0829 35.0784 51.2173 37.0184 51.2941 38.92C51.3709 40.8216 51.486 42.4543 51.5436 42.5504C51.6012 42.6464 52.0427 40.9177 52.5419 38.7087C53.0218 36.4998 53.5785 34.4253 53.7512 34.0795C54.1352 33.3496 54.8454 32.7734 55.6709 32.5045C56.2084 32.3316 61.833 31.9282 63.8486 31.909C65.0388 31.8898 64.175 31.6209 60.2205 30.7565C58.1665 30.3147 56.266 29.8345 55.9972 29.7001C55.3254 29.3543 54.5191 28.4707 54.2695 27.7792C54.1544 27.4719 53.9624 25.4358 53.8472 23.2653C53.732 21.0948 53.5785 19.27 53.5209 19.1739C53.4441 19.0971 53.0026 20.749 52.561 22.8235Z" fill="white"/>
<path d="M31.1184 32.5815C31.5983 33.926 33.5372 40.4376 33.5372 40.7065C33.5372 41.4173 33.0957 42.5313 32.6157 43.0692C32.251 43.4533 29.1028 45.086 22.5951 48.2554C13.6495 52.6157 11.4995 53.6529 3.24496 57.6482C1.44048 58.5318 -0.0376618 59.2809 0.000731417 59.3001C0.0391246 59.3386 2.51549 58.3973 5.52935 57.1872C29.5635 47.6023 33.3836 46.1233 34.1515 46.1233C34.593 46.1233 35.3417 46.3154 35.8024 46.5459C36.5702 46.9108 36.9158 47.3334 38.9698 50.4835C40.2368 52.4236 41.3118 53.9794 41.331 53.941C41.4078 53.8642 41.331 53.5569 39.9872 49.4079C38.2404 43.9912 38.2595 43.9527 43.385 40.5721C45.3623 39.2659 46.9556 38.1519 46.898 38.1134C46.8596 38.075 45.0551 38.5936 42.9051 39.2851C40.7551 39.9766 38.7395 40.5529 38.4323 40.5529C37.6453 40.5337 36.4167 39.9574 35.8216 39.2851C35.5336 38.9778 34.4202 37.3451 33.326 35.6548C31.2912 32.4662 30.8881 31.9092 31.1184 32.5815Z" fill="white"/>
<path d="M125.585 46.2578C121.496 51.444 120.075 53.2304 111.571 63.9678C106.062 70.9212 106.446 70.7867 100.649 67.8287C98.5753 66.753 96.886 65.9655 96.9052 66.0423C96.9052 66.1191 98.3065 67.4445 99.9958 68.9812C103.24 71.9008 103.778 72.6307 103.797 74.0137C103.797 74.5131 103.24 75.8193 101.762 78.8158C100.649 81.0632 99.8999 82.7343 100.111 82.523C100.322 82.3117 101.628 80.8903 103.029 79.3536C104.469 77.7786 105.889 76.3763 106.35 76.1266C107.713 75.3583 108.5 75.5696 112.877 77.817C114.95 78.8926 116.658 79.7378 116.658 79.6994C116.658 79.6418 115.238 78.3164 113.51 76.7029C110.055 73.5335 109.825 73.1878 109.978 71.4014C110.074 70.2489 109.229 71.5551 122.245 52.366C129.405 41.8207 129.981 40.9371 129.847 40.9371C129.808 40.9371 127.888 43.3382 125.585 46.2578Z" fill="white"/>
<path d="M32.3854 55.0937C29.0452 58.8009 28.6805 59.0698 27.2407 59.089C26.2233 59.089 25.8586 58.9353 22.2496 57.1105C20.1188 56.0157 18.3719 55.1705 18.3719 55.2089C18.3719 55.2473 19.7924 56.5919 21.5201 58.1862C24.9755 61.3748 25.2059 61.7205 25.0523 63.4877C24.9755 64.3713 24.7644 64.813 23.0943 67.2717C19.8692 72.0546 15.9531 77.8554 10.7892 85.4619C5.01106 93.9904 4.89589 94.144 5.01107 94.144C5.04946 94.144 7.35305 91.2628 10.1366 87.7477C27.951 65.1972 27.4519 65.8119 28.3349 65.4661C29.8323 64.8515 30.293 64.9859 34.3627 67.0604C36.4551 68.1169 38.1444 68.9236 38.1252 68.8468C38.1252 68.7507 36.743 67.4446 35.0729 65.9271C31.8671 63.0459 31.2336 62.2007 31.2336 60.8754C31.2336 60.3759 31.8095 59.0122 33.2493 56.1309C34.3435 53.9028 35.2265 52.078 35.1881 52.078C35.1689 52.078 33.9019 53.4418 32.3854 55.0937Z" fill="white"/>
<path d="M31.5216 71.7663C29.8131 79.488 29.6979 79.7954 28.239 80.5253C27.5671 80.8326 26.78 80.9479 23.4398 81.1207C21.2322 81.236 19.3702 81.3896 19.2742 81.4473C19.1974 81.5241 20.8483 81.9659 22.9215 82.4077C25.014 82.8687 26.9528 83.3489 27.2216 83.5026C27.9894 83.8867 28.8917 85.0392 29.0452 85.8075C29.1796 86.499 29.0261 88.7848 27.5671 109.126C27.1448 114.985 26.8376 120.094 26.8568 120.459C26.8952 120.824 27.3751 117.924 27.9318 114.024C30.2738 97.6014 32.0207 86.3838 32.3279 85.7499C32.7118 84.924 33.5948 84.2517 34.5931 84.002C35.0154 83.8867 36.9542 83.7331 38.9123 83.6754C40.8704 83.5986 42.5405 83.4833 42.6364 83.4257C42.7324 83.3681 41.0047 82.9263 38.7971 82.4269C36.5895 81.9467 34.5163 81.4089 34.2091 81.236C32.6926 80.4292 32.4622 79.7185 32.1935 74.7436C32.0783 72.477 31.9439 70.5178 31.9247 70.4217C31.8863 70.3065 31.7136 70.9212 31.5216 71.7663Z" fill="white"/>
<path d="M120.402 81.2937C101.57 88.8233 101.724 88.7657 100.84 88.7657C100.418 88.7657 99.6887 88.5736 99.228 88.3623C98.4793 87.9974 98.1338 87.5364 96.0605 84.4246C94.7936 82.4846 93.7186 80.9287 93.6802 80.9671C93.6226 81.0248 94.3712 83.4834 95.8494 87.9781C96.2333 89.1883 96.1757 90.2639 95.6766 91.1667C95.3311 91.7814 94.5632 92.3768 91.7605 94.24C89.8408 95.5078 88.2091 96.6219 88.1131 96.7179C87.9212 96.9484 88.0556 96.91 92.3748 95.5078C94.3904 94.8739 96.2717 94.3361 96.5596 94.3361C97.2891 94.3361 98.4217 94.8355 99.0552 95.4309C99.3432 95.7191 100.533 97.4478 101.724 99.2726C102.895 101.097 103.893 102.557 103.931 102.519C103.97 102.48 103.912 102.211 103.797 101.904C103.374 100.79 101.493 94.4897 101.493 94.1824C101.493 93.4717 101.935 92.3576 102.415 91.8198C102.895 91.3012 108.404 88.5544 126.161 79.9683C131.593 77.3368 135.202 75.5312 134.991 75.5504C134.895 75.5504 128.33 78.1435 120.402 81.2937Z" fill="white"/>
<path d="M38.1444 88.0546C38.1444 88.1122 38.7011 89.937 39.3922 92.0691C40.6975 96.1605 40.7743 96.5639 40.4288 97.6203C40.0257 98.8304 39.4882 99.2338 33.4028 103.172C32.8461 103.517 32.4046 103.844 32.443 103.882C32.4814 103.901 33.2877 103.69 34.2283 103.383C37.2038 102.403 39.6609 101.654 40.3136 101.539C41.1966 101.366 42.4636 101.731 43.1355 102.365C43.6922 102.864 47.2052 109.933 56.4771 129.16C58.0321 132.406 59.3566 135.038 59.3758 135C59.4142 134.961 58.5504 132.695 57.4562 129.948C47.8579 105.841 46.207 101.558 46.207 100.809C46.207 100.386 46.3989 99.6372 46.6293 99.1762C46.994 98.4079 47.4163 98.0621 50.5646 96.0068C52.5034 94.7391 54.0584 93.6826 54.02 93.6442C53.9432 93.5674 53.6552 93.6442 49.4896 94.9888C44.0953 96.7367 44.0377 96.6983 40.7359 91.7042C38.4515 88.2659 38.1444 87.8241 38.1444 88.0546Z" fill="white"/>
<path d="M82.5077 96.1991C82.047 98.2928 81.5095 100.31 81.3175 100.713C80.8952 101.52 80.2233 102.115 79.3595 102.384C78.8028 102.557 73.0246 102.98 71.2201 102.98C70.8362 102.98 70.5674 103.037 70.6442 103.095C70.7018 103.172 72.5831 103.633 74.7907 104.132C80.8952 105.496 80.8568 105.458 81.1832 111.566C81.2983 113.755 81.4519 115.619 81.5287 115.715C81.5863 115.792 82.0278 114.14 82.4693 112.065C82.9301 109.971 83.41 108.031 83.5635 107.762C83.9475 106.994 85.0993 106.091 85.8671 105.938C86.2511 105.861 89.2457 105.995 92.5476 106.226C95.8302 106.456 103.298 106.994 109.133 107.417C114.988 107.82 120.075 108.147 120.459 108.147C121.17 108.127 121.17 108.127 120.306 107.974C119.826 107.878 116.332 107.378 112.531 106.821C94.544 104.247 86.5006 102.98 85.752 102.595C84.1778 101.789 83.9091 100.924 83.7171 95.911C83.6403 93.9902 83.5252 92.4151 83.4676 92.4151C83.3908 92.4151 82.9493 94.1246 82.5077 96.1991Z" fill="white"/>
<path d="M67.784 98.024C67.1505 98.6963 65.8451 100.098 64.9045 101.136C63.1 103.153 62.1977 103.729 60.95 103.748C60.4509 103.748 59.1455 103.191 56.1508 101.712C53.5785 100.425 52.2347 99.8487 52.5419 100.156C52.8106 100.406 54.1928 101.693 55.6133 102.999C58.9535 106.034 59.1647 106.341 59.1455 107.859C59.1263 108.953 59.0111 109.28 57.2642 112.641C56.2276 114.639 55.4214 116.291 55.4597 116.329C55.4981 116.387 56.7843 115.062 58.3008 113.429C61.3531 110.106 61.7754 109.818 63.4839 109.933C64.6741 110.01 63.5415 109.299 76.9791 118.404C91.4726 128.239 94.1985 130.063 94.1985 129.986C94.1985 129.948 91.7605 127.989 88.785 125.626C85.7904 123.264 81.9319 120.209 80.185 118.826C78.4381 117.444 74.522 114.332 71.4697 111.912C63.9638 105.957 64.1366 106.437 67.1313 100.598C68.2063 98.5234 69.0317 96.833 69.0125 96.833C68.9741 96.833 68.4174 97.3709 67.784 98.024Z" fill="white"/>
<path d="M121.515 108.3C121.688 108.339 121.957 108.339 122.091 108.3C122.206 108.243 122.072 108.204 121.746 108.204C121.438 108.204 121.323 108.243 121.515 108.3Z" fill="white"/>
<path d="M26.6648 121.708C26.6648 122.015 26.7032 122.13 26.7608 121.938C26.7992 121.766 26.7992 121.497 26.7608 121.362C26.7032 121.247 26.6648 121.382 26.6648 121.708Z" fill="white"/>
</svg>
