<svg width="1938" height="243" viewBox="0 0 1938 243" fill="none" xmlns="http://www.w3.org/2000/svg">
<g clip-path="url(#clip0_892_90272)">
<g filter="url(#filter0_f_892_90272)">
<path d="M161.5 41L169.811 113.189L242 121.5L169.811 129.811L161.5 202L153.189 129.811L81 121.5L153.189 113.189L161.5 41Z" fill="white"/>
<path d="M282.5 81L286.681 117.319L323 121.5L286.681 125.681L282.5 162L278.319 125.681L242 121.5L278.319 117.319L282.5 81Z" fill="white"/>
<path d="M40.5 81L44.6811 117.319L81 121.5L44.6811 125.681L40.5 162L36.3189 125.681L0 121.5L36.3189 117.319L40.5 81Z" fill="white"/>
<path d="M80.5 0L84.6811 36.3189L121 40.5L84.6811 44.6811L80.5 81L76.3189 44.6811L40 40.5L76.3189 36.3189L80.5 0Z" fill="white"/>
<path d="M241.5 0L245.681 36.3189L282 40.5L245.681 44.6811L241.5 81L237.319 44.6811L201 40.5L237.319 36.3189L241.5 0Z" fill="white"/>
<path d="M80.5 162L84.6811 198.319L121 202.5L84.6811 206.681L80.5 243L76.3189 206.681L40 202.5L76.3189 198.319L80.5 162Z" fill="white"/>
<path d="M241.5 162L245.681 198.319L282 202.5L245.681 206.681L241.5 243L237.319 206.681L201 202.5L237.319 198.319L241.5 162Z" fill="white"/>
</g>
<path d="M161.5 41L169.811 113.189L242 121.5L169.811 129.811L161.5 202L153.189 129.811L81 121.5L153.189 113.189L161.5 41Z" fill="white"/>
<path d="M282.5 81L286.681 117.319L323 121.5L286.681 125.681L282.5 162L278.319 125.681L242 121.5L278.319 117.319L282.5 81Z" fill="white"/>
<path d="M40.5 81L44.6811 117.319L81 121.5L44.6811 125.681L40.5 162L36.3189 125.681L0 121.5L36.3189 117.319L40.5 81Z" fill="white"/>
<path d="M80.5 0L84.6811 36.3189L121 40.5L84.6811 44.6811L80.5 81L76.3189 44.6811L40 40.5L76.3189 36.3189L80.5 0Z" fill="white"/>
<path d="M241.5 0L245.681 36.3189L282 40.5L245.681 44.6811L241.5 81L237.319 44.6811L201 40.5L237.319 36.3189L241.5 0Z" fill="white"/>
<path d="M80.5 162L84.6811 198.319L121 202.5L84.6811 206.681L80.5 243L76.3189 206.681L40 202.5L76.3189 198.319L80.5 162Z" fill="white"/>
<path d="M241.5 162L245.681 198.319L282 202.5L245.681 206.681L241.5 243L237.319 206.681L201 202.5L237.319 198.319L241.5 162Z" fill="white"/>
</g>
<g clip-path="url(#clip1_892_90272)">
<g filter="url(#filter1_f_892_90272)">
<path d="M484.5 41L492.811 113.189L565 121.5L492.811 129.811L484.5 202L476.189 129.811L404 121.5L476.189 113.189L484.5 41Z" fill="white"/>
<path d="M605.5 81L609.681 117.319L646 121.5L609.681 125.681L605.5 162L601.319 125.681L565 121.5L601.319 117.319L605.5 81Z" fill="white" fill-opacity="0.5"/>
<path d="M363.5 81L367.681 117.319L404 121.5L367.681 125.681L363.5 162L359.319 125.681L323 121.5L359.319 117.319L363.5 81Z" fill="white" fill-opacity="0.5"/>
<path d="M403.5 0L407.681 36.3189L444 40.5L407.681 44.6811L403.5 81L399.319 44.6811L363 40.5L399.319 36.3189L403.5 0Z" fill="white"/>
<path d="M564.5 0L568.681 36.3189L605 40.5L568.681 44.6811L564.5 81L560.319 44.6811L524 40.5L560.319 36.3189L564.5 0Z" fill="white"/>
<path d="M403.5 162L407.681 198.319L444 202.5L407.681 206.681L403.5 243L399.319 206.681L363 202.5L399.319 198.319L403.5 162Z" fill="white"/>
<path d="M564.5 162L568.681 198.319L605 202.5L568.681 206.681L564.5 243L560.319 206.681L524 202.5L560.319 198.319L564.5 162Z" fill="white"/>
</g>
<path d="M484.5 41L492.811 113.189L565 121.5L492.811 129.811L484.5 202L476.189 129.811L404 121.5L476.189 113.189L484.5 41Z" fill="white"/>
<path d="M605.5 81L609.681 117.319L646 121.5L609.681 125.681L605.5 162L601.319 125.681L565 121.5L601.319 117.319L605.5 81Z" fill="white" fill-opacity="0.5"/>
<path d="M363.5 81L367.681 117.319L404 121.5L367.681 125.681L363.5 162L359.319 125.681L323 121.5L359.319 117.319L363.5 81Z" fill="white" fill-opacity="0.5"/>
<path d="M403.5 0L407.681 36.3189L444 40.5L407.681 44.6811L403.5 81L399.319 44.6811L363 40.5L399.319 36.3189L403.5 0Z" fill="white"/>
<path d="M564.5 0L568.681 36.3189L605 40.5L568.681 44.6811L564.5 81L560.319 44.6811L524 40.5L560.319 36.3189L564.5 0Z" fill="white"/>
<path d="M403.5 162L407.681 198.319L444 202.5L407.681 206.681L403.5 243L399.319 206.681L363 202.5L399.319 198.319L403.5 162Z" fill="white"/>
<path d="M564.5 162L568.681 198.319L605 202.5L568.681 206.681L564.5 243L560.319 206.681L524 202.5L560.319 198.319L564.5 162Z" fill="white"/>
</g>
<g clip-path="url(#clip2_892_90272)">
<g filter="url(#filter2_f_892_90272)">
<path d="M807.5 41L815.811 113.189L888 121.5L815.811 129.811L807.5 202L799.189 129.811L727 121.5L799.189 113.189L807.5 41Z" fill="white"/>
<path d="M928.5 81L932.681 117.319L969 121.5L932.681 125.681L928.5 162L924.319 125.681L888 121.5L924.319 117.319L928.5 81Z" fill="white"/>
<path d="M686.5 81L690.681 117.319L727 121.5L690.681 125.681L686.5 162L682.319 125.681L646 121.5L682.319 117.319L686.5 81Z" fill="white"/>
<path d="M726.5 0L730.681 36.3189L767 40.5L730.681 44.6811L726.5 81L722.319 44.6811L686 40.5L722.319 36.3189L726.5 0Z" fill="white" fill-opacity="0.5"/>
<path d="M887.5 0L891.681 36.3189L928 40.5L891.681 44.6811L887.5 81L883.319 44.6811L847 40.5L883.319 36.3189L887.5 0Z" fill="white" fill-opacity="0.5"/>
<path d="M726.5 162L730.681 198.319L767 202.5L730.681 206.681L726.5 243L722.319 206.681L686 202.5L722.319 198.319L726.5 162Z" fill="white" fill-opacity="0.5"/>
<path d="M887.5 162L891.681 198.319L928 202.5L891.681 206.681L887.5 243L883.319 206.681L847 202.5L883.319 198.319L887.5 162Z" fill="white" fill-opacity="0.5"/>
</g>
<path d="M807.5 41L815.811 113.189L888 121.5L815.811 129.811L807.5 202L799.189 129.811L727 121.5L799.189 113.189L807.5 41Z" fill="white"/>
<path d="M928.5 81L932.681 117.319L969 121.5L932.681 125.681L928.5 162L924.319 125.681L888 121.5L924.319 117.319L928.5 81Z" fill="white"/>
<path d="M686.5 81L690.681 117.319L727 121.5L690.681 125.681L686.5 162L682.319 125.681L646 121.5L682.319 117.319L686.5 81Z" fill="white"/>
<path d="M726.5 0L730.681 36.3189L767 40.5L730.681 44.6811L726.5 81L722.319 44.6811L686 40.5L722.319 36.3189L726.5 0Z" fill="white" fill-opacity="0.5"/>
<path d="M887.5 0L891.681 36.3189L928 40.5L891.681 44.6811L887.5 81L883.319 44.6811L847 40.5L883.319 36.3189L887.5 0Z" fill="white" fill-opacity="0.5"/>
<path d="M726.5 162L730.681 198.319L767 202.5L730.681 206.681L726.5 243L722.319 206.681L686 202.5L722.319 198.319L726.5 162Z" fill="white" fill-opacity="0.5"/>
<path d="M887.5 162L891.681 198.319L928 202.5L891.681 206.681L887.5 243L883.319 206.681L847 202.5L883.319 198.319L887.5 162Z" fill="white" fill-opacity="0.5"/>
</g>
<g clip-path="url(#clip3_892_90272)">
<g filter="url(#filter3_f_892_90272)">
<path d="M1130.5 41L1138.81 113.189L1211 121.5L1138.81 129.811L1130.5 202L1122.19 129.811L1050 121.5L1122.19 113.189L1130.5 41Z" fill="white"/>
<path d="M1251.5 81L1255.68 117.319L1292 121.5L1255.68 125.681L1251.5 162L1247.32 125.681L1211 121.5L1247.32 117.319L1251.5 81Z" fill="white" fill-opacity="0.5"/>
<path d="M1009.5 81L1013.68 117.319L1050 121.5L1013.68 125.681L1009.5 162L1005.32 125.681L969 121.5L1005.32 117.319L1009.5 81Z" fill="white" fill-opacity="0.5"/>
<path d="M1049.5 0L1053.68 36.3189L1090 40.5L1053.68 44.6811L1049.5 81L1045.32 44.6811L1009 40.5L1045.32 36.3189L1049.5 0Z" fill="white"/>
<path d="M1210.5 0L1214.68 36.3189L1251 40.5L1214.68 44.6811L1210.5 81L1206.32 44.6811L1170 40.5L1206.32 36.3189L1210.5 0Z" fill="white"/>
<path d="M1049.5 162L1053.68 198.319L1090 202.5L1053.68 206.681L1049.5 243L1045.32 206.681L1009 202.5L1045.32 198.319L1049.5 162Z" fill="white"/>
<path d="M1210.5 162L1214.68 198.319L1251 202.5L1214.68 206.681L1210.5 243L1206.32 206.681L1170 202.5L1206.32 198.319L1210.5 162Z" fill="white"/>
</g>
<path d="M1130.5 41L1138.81 113.189L1211 121.5L1138.81 129.811L1130.5 202L1122.19 129.811L1050 121.5L1122.19 113.189L1130.5 41Z" fill="white"/>
<path d="M1251.5 81L1255.68 117.319L1292 121.5L1255.68 125.681L1251.5 162L1247.32 125.681L1211 121.5L1247.32 117.319L1251.5 81Z" fill="white" fill-opacity="0.5"/>
<path d="M1009.5 81L1013.68 117.319L1050 121.5L1013.68 125.681L1009.5 162L1005.32 125.681L969 121.5L1005.32 117.319L1009.5 81Z" fill="white" fill-opacity="0.5"/>
<path d="M1049.5 0L1053.68 36.3189L1090 40.5L1053.68 44.6811L1049.5 81L1045.32 44.6811L1009 40.5L1045.32 36.3189L1049.5 0Z" fill="white"/>
<path d="M1210.5 0L1214.68 36.3189L1251 40.5L1214.68 44.6811L1210.5 81L1206.32 44.6811L1170 40.5L1206.32 36.3189L1210.5 0Z" fill="white"/>
<path d="M1049.5 162L1053.68 198.319L1090 202.5L1053.68 206.681L1049.5 243L1045.32 206.681L1009 202.5L1045.32 198.319L1049.5 162Z" fill="white"/>
<path d="M1210.5 162L1214.68 198.319L1251 202.5L1214.68 206.681L1210.5 243L1206.32 206.681L1170 202.5L1206.32 198.319L1210.5 162Z" fill="white"/>
</g>
<g clip-path="url(#clip4_892_90272)">
<g filter="url(#filter4_f_892_90272)">
<path d="M1453.5 41L1461.81 113.189L1534 121.5L1461.81 129.811L1453.5 202L1445.19 129.811L1373 121.5L1445.19 113.189L1453.5 41Z" fill="white"/>
<path d="M1574.5 81L1578.68 117.319L1615 121.5L1578.68 125.681L1574.5 162L1570.32 125.681L1534 121.5L1570.32 117.319L1574.5 81Z" fill="white"/>
<path d="M1332.5 81L1336.68 117.319L1373 121.5L1336.68 125.681L1332.5 162L1328.32 125.681L1292 121.5L1328.32 117.319L1332.5 81Z" fill="white"/>
<path d="M1372.5 0L1376.68 36.3189L1413 40.5L1376.68 44.6811L1372.5 81L1368.32 44.6811L1332 40.5L1368.32 36.3189L1372.5 0Z" fill="white" fill-opacity="0.5"/>
<path d="M1533.5 0L1537.68 36.3189L1574 40.5L1537.68 44.6811L1533.5 81L1529.32 44.6811L1493 40.5L1529.32 36.3189L1533.5 0Z" fill="white" fill-opacity="0.5"/>
<path d="M1372.5 162L1376.68 198.319L1413 202.5L1376.68 206.681L1372.5 243L1368.32 206.681L1332 202.5L1368.32 198.319L1372.5 162Z" fill="white" fill-opacity="0.5"/>
<path d="M1533.5 162L1537.68 198.319L1574 202.5L1537.68 206.681L1533.5 243L1529.32 206.681L1493 202.5L1529.32 198.319L1533.5 162Z" fill="white" fill-opacity="0.5"/>
</g>
<path d="M1453.5 41L1461.81 113.189L1534 121.5L1461.81 129.811L1453.5 202L1445.19 129.811L1373 121.5L1445.19 113.189L1453.5 41Z" fill="white"/>
<path d="M1574.5 81L1578.68 117.319L1615 121.5L1578.68 125.681L1574.5 162L1570.32 125.681L1534 121.5L1570.32 117.319L1574.5 81Z" fill="white"/>
<path d="M1332.5 81L1336.68 117.319L1373 121.5L1336.68 125.681L1332.5 162L1328.32 125.681L1292 121.5L1328.32 117.319L1332.5 81Z" fill="white"/>
<path d="M1372.5 0L1376.68 36.3189L1413 40.5L1376.68 44.6811L1372.5 81L1368.32 44.6811L1332 40.5L1368.32 36.3189L1372.5 0Z" fill="white" fill-opacity="0.5"/>
<path d="M1533.5 0L1537.68 36.3189L1574 40.5L1537.68 44.6811L1533.5 81L1529.32 44.6811L1493 40.5L1529.32 36.3189L1533.5 0Z" fill="white" fill-opacity="0.5"/>
<path d="M1372.5 162L1376.68 198.319L1413 202.5L1376.68 206.681L1372.5 243L1368.32 206.681L1332 202.5L1368.32 198.319L1372.5 162Z" fill="white" fill-opacity="0.5"/>
<path d="M1533.5 162L1537.68 198.319L1574 202.5L1537.68 206.681L1533.5 243L1529.32 206.681L1493 202.5L1529.32 198.319L1533.5 162Z" fill="white" fill-opacity="0.5"/>
</g>
<g clip-path="url(#clip5_892_90272)">
<g filter="url(#filter5_f_892_90272)">
<path d="M1776.5 41L1784.81 113.189L1857 121.5L1784.81 129.811L1776.5 202L1768.19 129.811L1696 121.5L1768.19 113.189L1776.5 41Z" fill="white"/>
<path d="M1897.5 81L1901.68 117.319L1938 121.5L1901.68 125.681L1897.5 162L1893.32 125.681L1857 121.5L1893.32 117.319L1897.5 81Z" fill="white" fill-opacity="0.5"/>
<path d="M1655.5 81L1659.68 117.319L1696 121.5L1659.68 125.681L1655.5 162L1651.32 125.681L1615 121.5L1651.32 117.319L1655.5 81Z" fill="white" fill-opacity="0.5"/>
<path d="M1695.5 0L1699.68 36.3189L1736 40.5L1699.68 44.6811L1695.5 81L1691.32 44.6811L1655 40.5L1691.32 36.3189L1695.5 0Z" fill="white" fill-opacity="0.5"/>
<path d="M1856.5 0L1860.68 36.3189L1897 40.5L1860.68 44.6811L1856.5 81L1852.32 44.6811L1816 40.5L1852.32 36.3189L1856.5 0Z" fill="white" fill-opacity="0.5"/>
<path d="M1695.5 162L1699.68 198.319L1736 202.5L1699.68 206.681L1695.5 243L1691.32 206.681L1655 202.5L1691.32 198.319L1695.5 162Z" fill="white" fill-opacity="0.5"/>
<path d="M1856.5 162L1860.68 198.319L1897 202.5L1860.68 206.681L1856.5 243L1852.32 206.681L1816 202.5L1852.32 198.319L1856.5 162Z" fill="white" fill-opacity="0.5"/>
</g>
<path d="M1776.5 41L1784.81 113.189L1857 121.5L1784.81 129.811L1776.5 202L1768.19 129.811L1696 121.5L1768.19 113.189L1776.5 41Z" fill="white"/>
<path d="M1897.5 81L1901.68 117.319L1938 121.5L1901.68 125.681L1897.5 162L1893.32 125.681L1857 121.5L1893.32 117.319L1897.5 81Z" fill="white" fill-opacity="0.5"/>
<path d="M1655.5 81L1659.68 117.319L1696 121.5L1659.68 125.681L1655.5 162L1651.32 125.681L1615 121.5L1651.32 117.319L1655.5 81Z" fill="white" fill-opacity="0.5"/>
<path d="M1695.5 0L1699.68 36.3189L1736 40.5L1699.68 44.6811L1695.5 81L1691.32 44.6811L1655 40.5L1691.32 36.3189L1695.5 0Z" fill="white" fill-opacity="0.5"/>
<path d="M1856.5 0L1860.68 36.3189L1897 40.5L1860.68 44.6811L1856.5 81L1852.32 44.6811L1816 40.5L1852.32 36.3189L1856.5 0Z" fill="white" fill-opacity="0.5"/>
<path d="M1695.5 162L1699.68 198.319L1736 202.5L1699.68 206.681L1695.5 243L1691.32 206.681L1655 202.5L1691.32 198.319L1695.5 162Z" fill="white" fill-opacity="0.5"/>
<path d="M1856.5 162L1860.68 198.319L1897 202.5L1860.68 206.681L1856.5 243L1852.32 206.681L1816 202.5L1852.32 198.319L1856.5 162Z" fill="white" fill-opacity="0.5"/>
</g>
<defs>
<filter id="filter0_f_892_90272" x="-20" y="-20" width="363" height="283" filterUnits="userSpaceOnUse" color-interpolation-filters="sRGB">
<feFlood flood-opacity="0" result="BackgroundImageFix"/>
<feBlend mode="normal" in="SourceGraphic" in2="BackgroundImageFix" result="shape"/>
<feGaussianBlur stdDeviation="10" result="effect1_foregroundBlur_892_90272"/>
</filter>
<filter id="filter1_f_892_90272" x="303" y="-20" width="363" height="283" filterUnits="userSpaceOnUse" color-interpolation-filters="sRGB">
<feFlood flood-opacity="0" result="BackgroundImageFix"/>
<feBlend mode="normal" in="SourceGraphic" in2="BackgroundImageFix" result="shape"/>
<feGaussianBlur stdDeviation="10" result="effect1_foregroundBlur_892_90272"/>
</filter>
<filter id="filter2_f_892_90272" x="626" y="-20" width="363" height="283" filterUnits="userSpaceOnUse" color-interpolation-filters="sRGB">
<feFlood flood-opacity="0" result="BackgroundImageFix"/>
<feBlend mode="normal" in="SourceGraphic" in2="BackgroundImageFix" result="shape"/>
<feGaussianBlur stdDeviation="10" result="effect1_foregroundBlur_892_90272"/>
</filter>
<filter id="filter3_f_892_90272" x="949" y="-20" width="363" height="283" filterUnits="userSpaceOnUse" color-interpolation-filters="sRGB">
<feFlood flood-opacity="0" result="BackgroundImageFix"/>
<feBlend mode="normal" in="SourceGraphic" in2="BackgroundImageFix" result="shape"/>
<feGaussianBlur stdDeviation="10" result="effect1_foregroundBlur_892_90272"/>
</filter>
<filter id="filter4_f_892_90272" x="1272" y="-20" width="363" height="283" filterUnits="userSpaceOnUse" color-interpolation-filters="sRGB">
<feFlood flood-opacity="0" result="BackgroundImageFix"/>
<feBlend mode="normal" in="SourceGraphic" in2="BackgroundImageFix" result="shape"/>
<feGaussianBlur stdDeviation="10" result="effect1_foregroundBlur_892_90272"/>
</filter>
<filter id="filter5_f_892_90272" x="1595" y="-20" width="363" height="283" filterUnits="userSpaceOnUse" color-interpolation-filters="sRGB">
<feFlood flood-opacity="0" result="BackgroundImageFix"/>
<feBlend mode="normal" in="SourceGraphic" in2="BackgroundImageFix" result="shape"/>
<feGaussianBlur stdDeviation="10" result="effect1_foregroundBlur_892_90272"/>
</filter>
<clipPath id="clip0_892_90272">
<rect width="323" height="243" fill="white"/>
</clipPath>
<clipPath id="clip1_892_90272">
<rect width="323" height="243" fill="white" transform="translate(323)"/>
</clipPath>
<clipPath id="clip2_892_90272">
<rect width="323" height="243" fill="white" transform="translate(646)"/>
</clipPath>
<clipPath id="clip3_892_90272">
<rect width="323" height="243" fill="white" transform="translate(969)"/>
</clipPath>
<clipPath id="clip4_892_90272">
<rect width="323" height="243" fill="white" transform="translate(1292)"/>
</clipPath>
<clipPath id="clip5_892_90272">
<rect width="323" height="243" fill="white" transform="translate(1615)"/>
</clipPath>
</defs>
</svg>
