<svg width="135" height="135" viewBox="0 0 135 135" fill="none" xmlns="http://www.w3.org/2000/svg">
<path d="M67.2147 0.836745C67.2147 2.36559 66.387 5.74059 65.6449 7.21174C64.5889 9.31751 62.7337 11.1637 61.4494 11.3944C60.1079 11.6541 60.0508 12.0002 61.3066 12.231C62.6766 12.4906 64.3891 14.106 65.4451 16.0964C66.3299 17.7694 67.2147 21.1156 67.2147 22.8175C67.2147 23.2791 67.3574 23.6541 67.5001 23.6541C67.6713 23.6541 67.7855 23.1637 67.7855 22.5579C67.8426 18.1444 70.8965 12.7502 73.6935 12.231C74.2073 12.1444 74.6354 11.9425 74.6354 11.8271C74.6354 11.7117 74.2073 11.5098 73.6935 11.4233C72.3236 11.1637 70.6111 9.54828 69.5836 7.58674C68.6988 5.88482 67.7855 2.50982 67.7855 0.894437C67.7855 0.404053 67.6713 0.000206463 67.5001 0.000206463C67.3574 0.000206463 67.2147 0.375206 67.2147 0.836745Z" fill="white"/>
<path d="M20.0358 22.8173C22.3762 25.2403 24.1172 28.5865 24.1172 30.6057C24.1172 31.3846 23.9174 32.4807 23.7177 33.0288C23.4893 33.5769 23.3466 34.0384 23.4322 34.0384C23.5179 34.0384 24.0602 33.6923 24.6024 33.2307C25.5728 32.5096 25.8012 32.4519 28.5126 32.4519C31.6236 32.4807 33.5358 33.0288 35.6764 34.4711C37.4745 35.7403 37.3604 35.25 35.3339 33.0865C32.6511 30.2307 31.6807 28.2115 31.7092 25.5288C31.7092 24.4038 31.8234 23.1923 31.9661 22.8173L32.1944 22.125L31.1955 22.9038C29.0263 24.5769 25.2018 24.375 21.2631 22.4134C19.9217 21.75 18.7229 21.1442 18.5517 21.0865C18.409 21.0288 19.0654 21.8077 20.0358 22.8173Z" fill="white"/>
<path d="M114.736 21.9232C110.483 24.4616 105.859 24.7212 103.348 22.5289C102.834 22.0962 102.805 22.0962 103.034 22.7885C103.177 23.1924 103.291 24.4039 103.291 25.5289C103.319 28.1828 102.32 30.2308 99.6374 33.0866C98.5528 34.2405 97.7537 35.1924 97.8393 35.1924C97.9535 35.1924 98.8382 34.7597 99.8086 34.2116C102.434 32.7693 104.546 32.2212 107.144 32.3366C109.027 32.4232 109.513 32.5674 110.397 33.2308C111.682 34.2405 111.853 34.2405 111.311 33.1732C111.082 32.7116 110.883 31.6732 110.883 30.8943C110.883 28.3558 112.253 25.702 115.135 22.702C115.992 21.8078 116.591 21.0578 116.448 21.0866C116.277 21.0866 115.535 21.4616 114.736 21.9232Z" fill="white"/>
<path d="M11.6163 61.3847C10.7315 64.327 7.44926 66.3751 2.2833 67.2405L0 67.6155L3.13953 68.2212C4.88055 68.5674 6.93552 69.202 7.70613 69.6058C9.47569 70.5001 11.074 72.202 11.5877 73.6155C12.0159 74.827 12.1871 74.7693 12.6723 73.2116C13.0719 71.9712 14.6987 70.3847 16.611 69.4328C18.0666 68.6828 21.5201 67.7885 22.9471 67.7885C23.4323 67.7885 23.8319 67.6443 23.8319 67.5001C23.8319 67.327 23.3753 67.2116 22.8044 67.2116C21.1205 67.2116 17.7812 66.3174 16.0972 65.4232C14.0708 64.3558 13.1004 63.3462 12.444 61.6155L11.9302 60.2597L11.6163 61.3847Z" fill="white"/>
<path d="M122.642 61.3271C122.185 62.8848 120.901 64.3559 119.217 65.279C117.647 66.1444 113.908 67.2117 112.424 67.2117C111.91 67.2117 111.396 67.3271 111.311 67.5001C111.197 67.6732 111.539 67.7886 112.139 67.7886C113.737 67.7886 116.819 68.6251 118.56 69.5194C120.444 70.4713 122.157 72.2309 122.442 73.529C122.727 74.8271 123.013 74.8559 123.412 73.5578C123.84 72.0578 126.095 70.0675 128.35 69.1444C129.349 68.7694 131.233 68.279 132.574 68.0482L135 67.6732L133.43 67.4136C132.574 67.2982 130.833 66.8655 129.549 66.4617C126.095 65.3655 124.269 63.779 123.241 60.8944C122.984 60.2309 122.956 60.2598 122.642 61.3271Z" fill="white"/>
<path d="M35.4198 100.587C31.9948 102.837 27.1428 103.356 24.6883 101.712C23.461 100.904 23.461 100.904 23.6893 101.567C23.832 101.942 23.9462 103.125 23.9462 104.164C23.9747 105.75 23.832 106.327 22.9758 108.029C22.405 109.154 21.2348 110.798 20.2073 111.865C19.2083 112.904 18.4663 113.827 18.5519 113.885C18.609 113.971 18.8373 113.885 19.0371 113.74C21.035 112.125 24.5455 110.942 27.2855 110.942C29.1978 110.914 29.5973 111.029 30.6534 111.721C31.9663 112.615 32.3373 112.587 31.8521 111.692C31.4525 110.942 31.4525 108.664 31.8236 107.279C32.2517 105.75 34.0783 103.039 35.8479 101.308C37.4747 99.7212 37.2749 99.3462 35.4198 100.587Z" fill="white"/>
<path d="M99.2664 101.452C101.236 103.529 101.778 104.221 102.606 105.865C103.376 107.423 103.719 110.625 103.177 111.606C102.691 112.558 102.977 112.644 104.233 111.808C106.544 110.308 110.34 110.654 114.422 112.788C115.62 113.423 116.591 113.856 116.591 113.798C116.591 113.712 115.763 112.846 114.764 111.837C112.281 109.327 111.025 106.731 111.025 104.135C111.025 103.096 111.14 101.971 111.254 101.596C111.511 100.933 111.482 100.933 110.283 101.74C108.485 102.952 105.631 103.038 102.691 101.971C101.493 101.538 100.037 100.875 99.4376 100.5C97.611 99.3461 97.5539 99.7211 99.2664 101.452Z" fill="white"/>
<path d="M67.4429 111.346C67.3572 111.577 67.1289 112.702 66.9577 113.856C66.2727 118.327 64.1321 121.76 61.4777 122.654L60.2219 123.087L61.3636 123.462C62.8763 123.952 64.5031 125.538 65.5306 127.558C66.3583 129.231 67.2145 132.548 67.2145 134.163C67.2145 134.625 67.3572 135 67.4999 135C67.6712 135 67.7853 134.625 67.7853 134.163C67.7853 132.548 68.6416 129.231 69.4693 127.558C70.4968 125.567 71.7811 124.24 73.4651 123.577L74.7494 123.058L73.5507 122.654C72.1522 122.192 70.3255 120.462 69.5264 118.904C68.7843 117.433 68.0708 114.923 67.8139 112.731C67.6997 111.721 67.5285 111.115 67.4429 111.346Z" fill="white"/>
</svg>
