<svg width="136" height="136" viewBox="0 0 136 136" fill="none" xmlns="http://www.w3.org/2000/svg">
<circle cx="91.5064" cy="67.7825" r="43.7761" stroke="white" stroke-width="0.564854"/>
<circle cx="67.7824" cy="91.5064" r="43.7761" transform="rotate(90 67.7824 91.5064)" stroke="white" stroke-width="0.564854"/>
<circle cx="44.0586" cy="67.7825" r="43.7761" stroke="white" stroke-width="0.564854"/>
<circle cx="67.7824" cy="44.0586" r="43.7761" transform="rotate(90 67.7824 44.0586)" stroke="white" stroke-width="0.564854"/>
<path d="M67.5 24.0063L69.4627 66.1022L111.559 68.0649L69.4627 70.0276L67.5 112.124L65.5373 70.0276L23.4414 68.0649L65.5373 66.1022L67.5 24.0063Z" fill="white"/>
<path d="M51.1192 64.6758L51.7231 51.7232L64.6757 51.1193L51.7231 50.5154L51.1192 37.5628L50.5153 50.5154L37.5627 51.1193L50.5153 51.7232L51.1192 64.6758Z" fill="white"/>
<path d="M83.8808 64.6758L84.4847 51.7232L97.4373 51.1193L84.4847 50.5154L83.8808 37.5628L83.2769 50.5154L70.3243 51.1193L83.2769 51.7232L83.8808 64.6758Z" fill="white"/>
<path d="M51.1192 98.5669L51.7231 85.6143L64.6757 85.0104L51.7231 84.4065L51.1192 71.4539L50.5153 84.4065L37.5627 85.0104L50.5153 85.6143L51.1192 98.5669Z" fill="white"/>
<path d="M83.8808 98.5669L84.4847 85.6143L97.4373 85.0104L84.4847 84.4065L83.8808 71.4539L83.2769 84.4065L70.3243 85.0104L83.2769 85.6143L83.8808 98.5669Z" fill="white"/>
</svg>
