<svg width="856" height="553" viewBox="0 0 856 553" fill="none" xmlns="http://www.w3.org/2000/svg">
<rect x="109.875" y="252.468" width="208.25" height="208.25" stroke="white" stroke-width="0.709545"/>
<rect x="315.948" y="237.593" width="4.35366" height="29.75" fill="#D9D9D9"/>
<rect x="303.25" y="254.645" width="4.35366" height="29.75" transform="rotate(-90 303.25 254.645)" fill="#D9D9D9"/>
<rect x="107.698" y="237.593" width="4.35366" height="29.75" fill="#D9D9D9"/>
<rect x="95" y="254.645" width="4.35366" height="29.75" transform="rotate(-90 95 254.645)" fill="#D9D9D9"/>
<rect x="315.948" y="445.843" width="4.35366" height="29.75" fill="#D9D9D9"/>
<rect x="303.25" y="462.895" width="4.35366" height="29.75" transform="rotate(-90 303.25 462.895)" fill="#D9D9D9"/>
<rect x="107.698" y="445.843" width="4.35366" height="29.75" fill="#D9D9D9"/>
<rect x="95" y="462.895" width="4.35366" height="29.75" transform="rotate(-90 95 462.895)" fill="#D9D9D9"/>
<rect x="537.875" y="252.468" width="208.25" height="208.25" stroke="white" stroke-width="0.709545"/>
<rect x="734.067" y="243.489" width="4.35366" height="29.75" transform="rotate(-45 734.067 243.489)" fill="#D9D9D9"/>
<rect x="737.146" y="264.526" width="4.35366" height="29.75" transform="rotate(-135 737.146 264.526)" fill="#D9D9D9"/>
<rect x="525.817" y="243.489" width="4.35366" height="29.75" transform="rotate(-45 525.817 243.489)" fill="#D9D9D9"/>
<rect x="528.896" y="264.526" width="4.35366" height="29.75" transform="rotate(-135 528.896 264.526)" fill="#D9D9D9"/>
<rect x="734.067" y="451.739" width="4.35366" height="29.75" transform="rotate(-45 734.067 451.739)" fill="#D9D9D9"/>
<rect x="737.146" y="472.776" width="4.35366" height="29.75" transform="rotate(-135 737.146 472.776)" fill="#D9D9D9"/>
<rect x="525.817" y="451.739" width="4.35366" height="29.75" transform="rotate(-45 525.817 451.739)" fill="#D9D9D9"/>
<rect x="528.896" y="472.776" width="4.35366" height="29.75" transform="rotate(-135 528.896 472.776)" fill="#D9D9D9"/>
</svg>
