<svg width="612" height="17" viewBox="0 0 612 17" fill="none" xmlns="http://www.w3.org/2000/svg">
<path d="M6.23997 11.016C4.27197 11.016 2.73597 10.544 1.63197 9.6C0.54397 8.64 -3.01898e-05 7.288 -3.01898e-05 5.544V0H1.72797V5.352C1.72797 6.648 2.13597 7.656 2.95197 8.376C3.78397 9.096 4.93597 9.456 6.40797 9.456C7.27197 9.456 8.15997 9.344 9.07197 9.12C9.99997 8.88 10.928 8.544 11.856 8.112V9.696C10.88 10.128 9.91197 10.456 8.95197 10.68C8.00797 10.904 7.10397 11.016 6.23997 11.016ZM11.52 16.8V0H13.272V16.8H11.52ZM18.9322 16.8V0H30.4522V1.536H20.7082V15.264H30.8122V16.8H18.9322ZM20.5162 9.024V7.512H29.3962V9.024H20.5162ZM34.7525 16.8V0H41.0405C42.4645 0 43.6885 0.232 44.7125 0.696001C45.7365 1.144 46.5205 1.8 47.0645 2.664C47.6245 3.512 47.9045 4.544 47.9045 5.76C47.9045 6.944 47.6245 7.968 47.0645 8.832C46.5205 9.68 45.7365 10.336 44.7125 10.8C43.6885 11.264 42.4645 11.496 41.0405 11.496H35.7365L36.5285 10.656V16.8H34.7525ZM36.5285 10.8L35.7365 9.936H40.9925C42.6725 9.936 43.9445 9.576 44.8085 8.856C45.6885 8.12 46.1285 7.088 46.1285 5.76C46.1285 4.416 45.6885 3.376 44.8085 2.64C43.9445 1.904 42.6725 1.536 40.9925 1.536H35.7365L36.5285 0.696001V10.8ZM51.5338 16.8V0H53.2858V13.92L64.0378 0H65.6458V16.8H63.8938V2.904L53.1418 16.8H51.5338ZM83.603 16.8V0H85.355V16.8H83.603ZM71.315 16.8V0H73.091V16.8H71.315ZM72.899 9.048V7.488H83.771V9.048H72.899ZM102.522 16.8L96.066 8.424L97.506 7.56L104.562 16.8H102.522ZM91.026 16.8V0H92.754V16.8H91.026ZM92.226 9.096V7.536H97.482V9.096H92.226ZM97.65 8.592L96.018 8.304L102.282 0H104.202L97.65 8.592ZM104.632 16.8L112.312 0H114.064L121.744 16.8H119.872L112.816 1.032H113.536L106.48 16.8H104.632ZM107.656 12.312L108.184 10.872H117.952L118.48 12.312H107.656ZM131.245 16.8V0H138.229C140.005 0 141.397 0.368 142.405 1.104C143.429 1.824 143.941 2.888 143.941 4.296C143.941 5.688 143.453 6.744 142.477 7.464C141.501 8.168 140.221 8.52 138.637 8.52L139.045 7.92C140.917 7.92 142.341 8.288 143.317 9.024C144.293 9.76 144.781 10.84 144.781 12.264C144.781 13.704 144.269 14.824 143.245 15.624C142.237 16.408 140.717 16.8 138.685 16.8H131.245ZM132.997 15.384H138.685C140.109 15.384 141.189 15.12 141.925 14.592C142.661 14.064 143.029 13.248 143.029 12.144C143.029 11.056 142.661 10.256 141.925 9.744C141.189 9.232 140.109 8.976 138.685 8.976H132.997V15.384ZM132.997 7.608H138.133C139.429 7.608 140.421 7.352 141.109 6.84C141.813 6.312 142.165 5.536 142.165 4.512C142.165 3.488 141.813 2.72 141.109 2.208C140.421 1.68 139.429 1.416 138.133 1.416H132.997V7.608ZM149.221 16.8V0H160.741V1.536H150.997V15.264H161.101V16.8H149.221ZM150.805 9.024V7.512H159.685V9.024H150.805ZM169.506 11.016C167.538 11.016 166.002 10.544 164.898 9.6C163.81 8.64 163.266 7.288 163.266 5.544V0H164.994V5.352C164.994 6.648 165.402 7.656 166.218 8.376C167.05 9.096 168.202 9.456 169.674 9.456C170.538 9.456 171.426 9.344 172.338 9.12C173.266 8.88 174.194 8.544 175.122 8.112V9.696C174.146 10.128 173.178 10.456 172.218 10.68C171.274 10.904 170.37 11.016 169.506 11.016ZM174.786 16.8V0H176.538V16.8H174.786ZM182.198 16.8V0H193.718V1.536H183.974V15.264H194.078V16.8H182.198ZM183.782 9.024V7.512H192.662V9.024H183.782ZM198.018 16.8V0H204.306C205.73 0 206.954 0.232 207.978 0.696001C209.002 1.144 209.786 1.8 210.33 2.664C210.89 3.512 211.17 4.544 211.17 5.76C211.17 6.944 210.89 7.968 210.33 8.832C209.786 9.68 209.002 10.336 207.978 10.8C206.954 11.264 205.73 11.496 204.306 11.496H199.002L199.794 10.656V16.8H198.018ZM199.794 10.8L199.002 9.936H204.258C205.938 9.936 207.21 9.576 208.074 8.856C208.954 8.12 209.394 7.088 209.394 5.76C209.394 4.416 208.954 3.376 208.074 2.64C207.21 1.904 205.938 1.536 204.258 1.536H199.002L199.794 0.696001V10.8ZM214.799 16.8V0H216.551V13.92L227.303 0H228.911V16.8H227.159V2.904L216.407 16.8H214.799ZM246.869 16.8V0H248.621V16.8H246.869ZM234.581 16.8V0H236.357V16.8H234.581ZM236.165 9.048V7.488H247.037V9.048H236.165ZM265.788 16.8L259.332 8.424L260.772 7.56L267.828 16.8H265.788ZM254.292 16.8V0H256.02V16.8H254.292ZM255.492 9.096V7.536H260.748V9.096H255.492ZM260.916 8.592L259.284 8.304L265.548 0H267.468L260.916 8.592ZM267.898 16.8L275.578 0H277.33L285.01 16.8H283.138L276.082 1.032H276.802L269.746 16.8H267.898ZM270.922 12.312L271.45 10.872H281.218L281.746 12.312H270.922ZM294.51 16.8V0H301.494C303.27 0 304.662 0.368 305.67 1.104C306.694 1.824 307.206 2.888 307.206 4.296C307.206 5.688 306.718 6.744 305.742 7.464C304.766 8.168 303.486 8.52 301.902 8.52L302.31 7.92C304.182 7.92 305.606 8.288 306.582 9.024C307.558 9.76 308.046 10.84 308.046 12.264C308.046 13.704 307.534 14.824 306.51 15.624C305.502 16.408 303.982 16.8 301.95 16.8H294.51ZM296.262 15.384H301.95C303.374 15.384 304.454 15.12 305.19 14.592C305.926 14.064 306.294 13.248 306.294 12.144C306.294 11.056 305.926 10.256 305.19 9.744C304.454 9.232 303.374 8.976 301.95 8.976H296.262V15.384ZM296.262 7.608H301.398C302.694 7.608 303.686 7.352 304.374 6.84C305.078 6.312 305.43 5.536 305.43 4.512C305.43 3.488 305.078 2.72 304.374 2.208C303.686 1.68 302.694 1.416 301.398 1.416H296.262V7.608ZM312.487 16.8V0H324.007V1.536H314.263V15.264H324.367V16.8H312.487ZM314.071 9.024V7.512H322.951V9.024H314.071ZM332.771 11.016C330.803 11.016 329.267 10.544 328.163 9.6C327.075 8.64 326.531 7.288 326.531 5.544V0H328.259V5.352C328.259 6.648 328.667 7.656 329.483 8.376C330.315 9.096 331.467 9.456 332.939 9.456C333.803 9.456 334.691 9.344 335.603 9.12C336.531 8.88 337.459 8.544 338.387 8.112V9.696C337.411 10.128 336.443 10.456 335.483 10.68C334.539 10.904 333.635 11.016 332.771 11.016ZM338.051 16.8V0H339.803V16.8H338.051ZM345.463 16.8V0H356.983V1.536H347.239V15.264H357.343V16.8H345.463ZM347.047 9.024V7.512H355.927V9.024H347.047ZM361.284 16.8V0H367.572C368.996 0 370.22 0.232 371.244 0.696001C372.268 1.144 373.052 1.8 373.596 2.664C374.156 3.512 374.436 4.544 374.436 5.76C374.436 6.944 374.156 7.968 373.596 8.832C373.052 9.68 372.268 10.336 371.244 10.8C370.22 11.264 368.996 11.496 367.572 11.496H362.268L363.06 10.656V16.8H361.284ZM363.06 10.8L362.268 9.936H367.524C369.204 9.936 370.476 9.576 371.34 8.856C372.22 8.12 372.66 7.088 372.66 5.76C372.66 4.416 372.22 3.376 371.34 2.64C370.476 1.904 369.204 1.536 367.524 1.536H362.268L363.06 0.696001V10.8ZM378.065 16.8V0H379.817V13.92L390.569 0H392.177V16.8H390.425V2.904L379.673 16.8H378.065ZM410.134 16.8V0H411.886V16.8H410.134ZM397.846 16.8V0H399.622V16.8H397.846ZM399.43 9.048V7.488H410.302V9.048H399.43ZM429.053 16.8L422.597 8.424L424.037 7.56L431.093 16.8H429.053ZM417.557 16.8V0H419.285V16.8H417.557ZM418.757 9.096V7.536H424.013V9.096H418.757ZM424.181 8.592L422.549 8.304L428.813 0H430.733L424.181 8.592ZM431.163 16.8L438.843 0H440.595L448.275 16.8H446.403L439.347 1.032H440.067L433.011 16.8H431.163ZM434.187 12.312L434.715 10.872H444.483L445.011 12.312H434.187ZM457.776 16.8V0H464.76C466.536 0 467.928 0.368 468.936 1.104C469.96 1.824 470.472 2.888 470.472 4.296C470.472 5.688 469.984 6.744 469.008 7.464C468.032 8.168 466.752 8.52 465.168 8.52L465.576 7.92C467.448 7.92 468.872 8.288 469.848 9.024C470.824 9.76 471.312 10.84 471.312 12.264C471.312 13.704 470.8 14.824 469.776 15.624C468.768 16.408 467.248 16.8 465.216 16.8H457.776ZM459.528 15.384H465.216C466.64 15.384 467.72 15.12 468.456 14.592C469.192 14.064 469.56 13.248 469.56 12.144C469.56 11.056 469.192 10.256 468.456 9.744C467.72 9.232 466.64 8.976 465.216 8.976H459.528V15.384ZM459.528 7.608H464.664C465.96 7.608 466.952 7.352 467.64 6.84C468.344 6.312 468.696 5.536 468.696 4.512C468.696 3.488 468.344 2.72 467.64 2.208C466.952 1.68 465.96 1.416 464.664 1.416H459.528V7.608ZM475.753 16.8V0H487.273V1.536H477.529V15.264H487.633V16.8H475.753ZM477.337 9.024V7.512H486.217V9.024H477.337ZM496.037 11.016C494.069 11.016 492.533 10.544 491.429 9.6C490.341 8.64 489.797 7.288 489.797 5.544V0H491.525V5.352C491.525 6.648 491.933 7.656 492.749 8.376C493.581 9.096 494.733 9.456 496.205 9.456C497.069 9.456 497.957 9.344 498.869 9.12C499.797 8.88 500.725 8.544 501.653 8.112V9.696C500.677 10.128 499.709 10.456 498.749 10.68C497.805 10.904 496.901 11.016 496.037 11.016ZM501.317 16.8V0H503.069V16.8H501.317ZM508.729 16.8V0H520.249V1.536H510.505V15.264H520.609V16.8H508.729ZM510.313 9.024V7.512H519.193V9.024H510.313ZM524.549 16.8V0H530.837C532.261 0 533.485 0.232 534.509 0.696001C535.533 1.144 536.317 1.8 536.861 2.664C537.421 3.512 537.701 4.544 537.701 5.76C537.701 6.944 537.421 7.968 536.861 8.832C536.317 9.68 535.533 10.336 534.509 10.8C533.485 11.264 532.261 11.496 530.837 11.496H525.533L526.325 10.656V16.8H524.549ZM526.325 10.8L525.533 9.936H530.789C532.469 9.936 533.741 9.576 534.605 8.856C535.485 8.12 535.925 7.088 535.925 5.76C535.925 4.416 535.485 3.376 534.605 2.64C533.741 1.904 532.469 1.536 530.789 1.536H525.533L526.325 0.696001V10.8ZM541.331 16.8V0H543.083V13.92L553.835 0H555.443V16.8H553.691V2.904L542.939 16.8H541.331ZM573.4 16.8V0H575.152V16.8H573.4ZM561.112 16.8V0H562.888V16.8H561.112ZM562.696 9.048V7.488H573.568V9.048H562.696ZM592.319 16.8L585.863 8.424L587.303 7.56L594.359 16.8H592.319ZM580.823 16.8V0H582.551V16.8H580.823ZM582.023 9.096V7.536H587.279V9.096H582.023ZM587.447 8.592L585.815 8.304L592.079 0H593.999L587.447 8.592ZM594.429 16.8L602.109 0H603.861L611.541 16.8H609.669L602.613 1.032H603.333L596.277 16.8H594.429ZM597.453 12.312L597.981 10.872H607.749L608.277 12.312H597.453Z" fill="white"/>
</svg>
